SplineFontDB: 3.0
FontName: NovaFlat-BookOblique
FullName: Nova Flat Book Oblique
FamilyName: Nova Flat
Weight: Book
Copyright: Copyright (c) 2020-2024 by Wojciech Kalinowski "wmk69" with Reserved Font Name "NovaFlat-BookOblique".\nThis Font Software is licensed under the SIL Open Font License, Version 1.1.
Version: 3.1.0; 2021-05-23
ItalicAngle: -12
UnderlinePosition: -80
UnderlineWidth: 200
Ascent: 1638
Descent: 410
InvalidEm: 0
LayerCount: 2
Layer: 0 1 "Warstwa t+AUIA-a" 1
Layer: 1 1 "Plan pierwszy" 0
XUID: [1021 783 23647091 8360855]
StyleMap: 0x0001
FSType: 0
OS2Version: 3
OS2_WeightWidthSlopeOnly: 0
OS2_UseTypoMetrics: 1
CreationTime: 1260698820
ModificationTime: 1621761512
PfmFamily: 33
TTFWeight: 400
TTFWidth: 5
LineGap: 200
VLineGap: 0
Panose: 2 12 5 4 2 5 3 13 2 4
OS2TypoAscent: 2000
OS2TypoAOffset: 0
OS2TypoDescent: -500
OS2TypoDOffset: 0
OS2TypoLinegap: 200
OS2WinAscent: 2000
OS2WinAOffset: 0
OS2WinDescent: 500
OS2WinDOffset: 0
HheadAscent: 2000
HheadAOffset: 0
HheadDescent: -500
HheadDOffset: 0
OS2SubXSize: 1434
OS2SubYSize: 1331
OS2SubXOff: 0
OS2SubYOff: 287
OS2SupXSize: 1434
OS2SupYSize: 1331
OS2SupXOff: 0
OS2SupYOff: 977
OS2StrikeYSize: 102
OS2StrikeYPos: 512
OS2CapHeight: 1530
OS2XHeight: 1120
OS2Vendor: '    '
OS2CodePages: 20000093.00000000
OS2UnicodeRanges: 8000002f.4000204b.00000000.00000000
Lookup: 258 0 0 "'kern' Horizontal Kerning lookup 0" { "'kern' Horizontal Kerning lookup 0-1 subtable" [307,0,4] } ['kern' ('DFLT' <'dflt' > 'grek' <'dflt' > 'latn' <'dflt' > ) ]
MarkAttachClasses: 1
DEI: 91125
KernClass2: 65 55 "'kern' Horizontal Kerning lookup 0-1 subtable"
 134 A M N Agrave Aacute Acircumflex Atilde Adieresis Aring Ntilde Amacron Abreve Aogonek Nacute Ncommaaccent Ncaron Eng Aringacute uni1E40
 28 B germandbls uni1E02 uni1E9E
 47 C Ccedilla Cacute Ccircumflex Cdotaccent Ccaron
 122 D O Q Eth Ograve Oacute Ocircumflex Otilde Odieresis Oslash Dcaron Dcroat Omacron Obreve Ohungarumlaut Oslashacute uni1E0A

StartChar: .notdef
Encoding: 65536 -1 0
Width: 994
Flags: W
HStem: 0 68<274 748> 1442 68<567 1041>
VStem: 150 694<0 694> 471 694<816 1510>
DStem2: 150 0 259.546 0 0.207912 0.978148<92.2951 1497.19> 733.546 0 844 0 0.207912 0.978148<69.5192 1474.41>
LayerCount: 2
Fore
SplineSet
150 0 m 1,0,-1
 471 1510 l 1,1,-1
 1165 1510 l 1,2,-1
 844 0 l 1,3,-1
 150 0 l 1,0,-1
274 68 m 1,4,-1
 748 68 l 1,5,-1
 1041 1442 l 1,6,-1
 567 1442 l 1,7,-1
 274 68 l 1,4,-1
EndSplineSet
Validated: 1
EndChar

StartChar: exclam
Encoding: 33 33 4
Width: 600
GlyphClass: 2
Flags: W
HStem: -20 245<246.711 397.42> 1510 20G<668.556 725>
VStem: 199 246<27.5918 176.764>
DStem2: 195.726 -20 395.596 -20 0.207912 0.978148<562.949 1492.61>
LayerCount: 2
Fore
SplineSet
296 -20 m 128,-1,1
 246 -20 246 -20 218 16 c 0,2,3
 199 41 199 41 199 75 c 0,4,5
 199 88 199 88 202 102 c 0,6,7
 213 152 213 152 255.5 188.5 c 128,-1,8
 298 225 298 225 348 225 c 0,9,10
 400 225 400 225 426 189 c 0,11,12
 445 163 445 163 445 130 c 0,13,14
 445 116 445 116 442 102 c 0,15,16
 431 52 431 52 388.5 16 c 128,-1,0
 346 -20 346 -20 296 -20 c 128,-1,1
715 1530 m 1,17,-1
 725 1530 l 1,18,-1
 504 490 l 1,19,-1
 295 400 l 1,20,-1
 285 400 l 1,21,-1
 506 1440 l 1,22,-1
 715 1530 l 1,17,-1
EndSplineSet
Validated: 1
EndChar

StartChar: quotedbl
Encoding: 34 34 5
Width: 453
GlyphClass: 2
Flags: W
HStem: 1140 440
VStem: 292 447
DStem2: 292 1140 411.947 1140 0.207912 0.978148<78.1001 396.778> 525 1140 644.947 1140 0.207912 0.978148<78.1001 396.778>
LayerCount: 2
Fore
SplineSet
729 1580 m 1,0,-1
 739 1580 l 1,1,-1
 656 1192 l 1,2,-1
 535 1140 l 1,3,-1
 525 1140 l 1,4,-1
 608 1528 l 1,5,-1
 729 1580 l 1,0,-1
496 1580 m 1,6,-1
 506 1580 l 1,7,-1
 423 1192 l 1,8,-1
 302 1140 l 1,9,-1
 292 1140 l 1,10,-1
 375 1528 l 1,11,-1
 496 1580 l 1,6,-1
EndSplineSet
Validated: 1
EndChar

StartChar: numbersign
Encoding: 35 35 6
Width: 1368
GlyphClass: 2
Flags: W
HStem: 520 120<338 559 704 911 1056 1277> 872 120<413 633 779 985 1131 1351>
DStem2: 495 222 614.947 222 0.207912 0.978148<78.1001 304.794 452.319 664.488 812.221 1038.71> 847 222 966.947 222 0.207912 0.978148<78.1001 304.794 452.319 664.488 812.221 1038.71>
LayerCount: 2
Fore
SplineSet
832 1290 m 1,0,-1
 842 1290 l 1,1,-1
 779 992 l 1,2,-1
 1011 992 l 1,3,-1
 1063 1238 l 1,4,-1
 1184 1290 l 1,5,-1
 1194 1290 l 1,6,-1
 1131 992 l 1,7,-1
 1429 992 l 1,8,-1
 1427 982 l 1,9,-1
 1351 872 l 1,10,-1
 1105 872 l 1,11,-1
 1056 640 l 1,12,-1
 1354 640 l 1,13,-1
 1352 630 l 1,14,-1
 1277 520 l 1,15,-1
 1031 520 l 1,16,-1
 978 274 l 1,17,-1
 857 222 l 1,18,-1
 847 222 l 1,19,-1
 911 520 l 1,20,-1
 679 520 l 1,21,-1
 626 274 l 1,22,-1
 505 222 l 1,23,-1
 495 222 l 1,24,-1
 559 520 l 1,25,-1
 261 520 l 1,26,-1
 263 530 l 1,27,-1
 338 640 l 1,28,-1
 584 640 l 1,29,-1
 633 872 l 1,30,-1
 335 872 l 1,31,-1
 337 882 l 1,32,-1
 413 992 l 1,33,-1
 659 992 l 1,34,-1
 711 1238 l 1,35,-1
 832 1290 l 1,0,-1
985 872 m 1,36,-1
 753 872 l 1,37,-1
 704 640 l 1,38,-1
 936 640 l 1,39,-1
 985 872 l 1,36,-1
EndSplineSet
Validated: 1
EndChar

StartChar: dollar
Encoding: 36 36 7
Width: 1130
GlyphClass: 2
Flags: W
HStem: -18 179<398.612 512 650 797.023> 753 201<623.223 676 817 904.713>
VStem: 141 194<219.16 369.382> 371 213<992.945 1138.22> 969 208<495.072 694.816> 1042 189<1213.25 1308.78>
DStem2: 490 -120 590.073 -120 0.207912 0.978148<63.7446 104.345 311.06 892.594 1113.63 1500.02 1703.59 1746.36> 824.871 -120 1024.87 -120 0.207912 0.978148<362.89 723.563>
LayerCount: 2
Fore
SplineSet
599 -78 m 1,0,-1
 500 -120 l 1,1,-1
 490 -120 l 1,2,-1
 512 -18 l 1,3,4
 344 -6 344 -6 233 76 c 0,5,6
 141 144 141 144 141 285 c 0,7,8
 141 321 141 321 147 362 c 1,9,-1
 345 448 l 1,10,-1
 355 448 l 1,11,-1
 342 384 l 2,12,13
 335 352 335 352 335 325 c 0,14,15
 335 245 335 245 394 208 c 0,16,17
 459 168 459 168 550 161 c 1,18,-1
 676 753 l 1,19,20
 554 764 554 764 466 833 c 0,21,22
 371 907 371 907 371 1021 c 0,23,24
 371 1053 371 1053 379 1089 c 2,25,-1
 401 1192 l 2,26,27
 441 1380 441 1380 557 1448 c 0,28,29
 685 1524 685 1524 842 1530 c 1,30,-1
 854 1588 l 1,31,-1
 952 1630 l 1,32,-1
 962 1630 l 1,33,-1
 940 1526 l 1,34,35
 1071 1512 1071 1512 1154 1448 c 0,36,37
 1231 1389 1231 1389 1231 1272 c 0,38,39
 1231 1250 1231 1250 1228 1226 c 1,40,-1
 1041 1145 l 1,41,-1
 1031 1145 l 1,42,-1
 1036 1168 l 2,43,44
 1042 1195 1042 1195 1042 1218 c 0,45,46
 1042 1278 1042 1278 1002 1308 c 0,47,48
 962 1339 962 1339 902 1347 c 1,49,-1
 817 949 l 1,50,51
 972 937 972 937 1078 855 c 0,52,53
 1177 778 1177 778 1177 642 c 0,54,55
 1177 597 1177 597 1166 547 c 2,56,-1
 1132 384 l 2,57,58
 1085 160 1085 160 939 76 c 0,59,60
 788 -10 788 -10 612 -19 c 1,61,-1
 599 -78 l 1,0,-1
719 954 m 1,62,-1
 803 1347 l 1,63,64
 741 1338 741 1338 689 1308 c 0,65,66
 616 1265 616 1265 596 1168 c 2,67,-1
 589 1133 l 2,68,69
 584 1106 584 1106 584 1083 c 0,70,71
 584 1022 584 1022 622 992 c 0,72,73
 661 962 661 962 719 954 c 1,62,-1
775 748 m 1,74,-1
 650 164 l 1,75,76
 732 173 732 173 805 208 c 0,77,78
 905 257 905 257 932 384 c 2,79,-1
 962 527 l 2,80,81
 969 561 969 561 969 590 c 0,82,83
 969 667 969 667 916 702 c 0,84,85
 859 739 859 739 775 748 c 1,74,-1
EndSplineSet
Validated: 1
EndChar

StartChar: percent
Encoding: 37 37 8
Width: 1547
GlyphClass: 2
Flags: W
HStem: -20 129<1001.78 1249.94> 470 124<1050.36 1311.12> 916 129<557.369 805.936> 1406 124<606.12 867.116>
VStem: 390 144<1069.77 1326.39> 834 144<134.878 389.697> 891 142<1123.54 1380.34> 1335 143<187.412 445.01>
DStem2: 145.333 -20 284.845 -20 0.207912 0.978148<1213.01 1464.88> 358 47 491 -20 0.566694 0.823928<20.1671 1799.35> 610.889 -20 749.333 -20 0.207912 0.978148<1111.64 1361.62> 788.286 -20 927.798 -20 0.207912 0.978148<256.104 508.859> 1253.84 -20 1392.29 -20 0.207912 0.978148<154.141 404.709>
LayerCount: 2
Fore
SplineSet
481 -20 m 1,0,-1
 358 47 l 1,1,-1
 1377 1530 l 1,2,-1
 1387 1530 l 1,3,-1
 1511 1463 l 1,4,-1
 491 -20 l 1,5,-1
 481 -20 l 1,0,-1
1118 109 m 0,6,7
 1187 109 1187 109 1240 137.5 c 128,-1,8
 1293 166 1293 166 1308 235 c 2,9,-1
 1331 343 l 2,10,11
 1335 361 1335 361 1335 377 c 0,12,13
 1335 420 1335 420 1305 441 c 0,14,15
 1264 470 1264 470 1195 470 c 128,-1,16
 1126 470 1126 470 1073 441 c 128,-1,17
 1020 412 1020 412 1005 343 c 2,18,-1
 982 235 l 2,19,20
 978 217 978 217 978 201 c 0,21,22
 978 158 978 158 1008 138 c 0,23,24
 1049 110 1049 110 1118 109 c 0,6,7
1101 -20 m 0,25,26
 971 -20 971 -20 895 40 c 0,27,28
 834 88 834 88 834 170 c 0,29,30
 834 197 834 197 841 228 c 2,31,-1
 867 346 l 2,32,33
 897 482 897 482 985 534 c 0,34,35
 1086 594 1086 594 1211 594 c 128,-1,36
 1336 594 1336 594 1417 534 c 0,37,38
 1478 489 1478 489 1478 406 c 0,39,40
 1478 378 1478 378 1471 346 c 2,41,-1
 1445 228 l 2,42,43
 1415 92 1415 92 1327 40 c 0,44,45
 1226 -20 1226 -20 1101 -20 c 0,25,26
751 1406 m 128,-1,47
 682 1406 682 1406 629 1377 c 128,-1,48
 576 1348 576 1348 561 1279 c 2,49,-1
 538 1171 l 2,50,51
 534 1153 534 1153 534 1137 c 0,52,53
 535 1095 535 1095 564 1074 c 0,54,55
 604 1045 604 1045 674 1045 c 0,56,57
 743 1045 743 1045 796 1073.5 c 128,-1,58
 849 1102 849 1102 864 1171 c 2,59,-1
 887 1279 l 2,60,61
 891 1297 891 1297 891 1313 c 0,62,63
 891 1356 891 1356 861 1377 c 0,64,46
 820 1406 820 1406 751 1406 c 128,-1,47
767 1530 m 128,-1,66
 892 1530 892 1530 973 1470 c 0,67,68
 1033 1426 1033 1426 1033 1343 c 0,69,70
 1033 1315 1033 1315 1026 1282 c 2,71,-1
 1001 1164 l 2,72,73
 972 1029 972 1029 883 976 c 0,74,75
 782 916 782 916 657 916 c 128,-1,76
 532 916 532 916 451 976 c 0,77,78
 390 1021 390 1021 390 1104 c 0,79,80
 390 1132 390 1132 397 1164 c 2,81,-1
 422 1282 l 2,82,83
 450 1417 450 1417 540 1470 c 0,84,65
 642 1530 642 1530 767 1530 c 128,-1,66
EndSplineSet
Validated: 1
EndChar

StartChar: ampersand
Encoding: 38 38 9
Width: 1624
GlyphClass: 2
Flags: W
HStem: -20 180<490.155 941.949> 746 180<701.698 821> 1350 180<766.937 1093.15>
VStem: 222 203<219.002 546.094> 463 198<967.592 1242.52> 1134 189<1213.25 1307.81>
DStem2: 146.127 -20 346.127 -20 0.207912 0.978148<395.291 747.078> 235.338 -20 426.236 -20 0.207912 0.978148<1143.65 1392.42> 944 926 821 746 0.517235 -0.855843<66.5214 558.574 783.813 988.074>
LayerCount: 2
Fore
SplineSet
1093 300 m 1,0,1
 821 746 l 1,2,3
 687 746 687 746 588 698 c 0,4,5
 488 649 488 649 461 522 c 2,6,-1
 432 384 l 2,7,8
 425 351 425 351 425 324 c 0,9,10
 425 244 425 244 484 208 c 0,11,12
 565 160 565 160 691 160 c 0,13,14
 865 160 865 160 972 216 c 0,15,16
 1032 248 1032 248 1093 300 c 1,0,1
658 -20 m 0,17,18
 449 -20 449 -20 324 76 c 0,19,20
 222 155 222 155 222 291 c 0,21,22
 222 334 222 334 232 384 c 2,23,-1
 261 522 l 2,24,25
 318 794 318 794 557 866 c 1,26,27
 463 919 463 919 463 1024 c 0,28,29
 463 1052 463 1052 470 1084 c 2,30,-1
 493 1192 l 2,31,32
 533 1380 533 1380 649 1448 c 0,33,34
 788 1530 788 1530 960 1530 c 24,35,36
 1140 1530 1140 1530 1246 1448 c 0,37,38
 1323 1389 1323 1389 1323 1274 c 0,39,40
 1323 1251 1323 1251 1320 1226 c 1,41,-1
 1133 1145 l 1,42,-1
 1123 1145 l 1,43,-1
 1128 1168 l 2,44,45
 1134 1195 1134 1195 1134 1218 c 0,46,47
 1134 1278 1134 1278 1094 1308 c 0,48,49
 1039 1350 1039 1350 941 1350 c 152,-1,50
 843 1350 843 1350 771 1308 c 0,51,52
 698 1265 698 1265 678 1168 c 2,53,-1
 666 1108 l 2,54,55
 661 1081 661 1081 661 1058 c 0,56,57
 662 998 662 998 700 968 c 0,58,59
 754 926 754 926 852 926 c 2,60,-1
 944 926 l 1,61,-1
 1233 448 l 1,62,63
 1380 641 1380 641 1423 827 c 1,64,-1
 1637 919 l 1,65,-1
 1647 919 l 1,66,67
 1569 553 1569 553 1329 288 c 1,68,-1
 1471 54 l 1,69,-1
 1299 -20 l 1,70,-1
 1289 -20 l 1,71,-1
 1182 154 l 1,72,73
 1129 116 1129 116 1068 81 c 0,74,75
 891 -20 891 -20 658 -20 c 0,17,18
EndSplineSet
Validated: 1
EndChar

StartChar: quotesingle
Encoding: 39 39 10
Width: 220
GlyphClass: 2
Flags: W
HStem: 1140 440
VStem: 292 214
DStem2: 292 1140 411.947 1140 0.207912 0.978148<78.1001 396.778>
LayerCount: 2
Fore
SplineSet
496 1580 m 1,0,-1
 506 1580 l 1,1,-1
 423 1192 l 1,2,-1
 302 1140 l 1,3,-1
 292 1140 l 1,4,-1
 375 1528 l 1,5,-1
 496 1580 l 1,0,-1
EndSplineSet
Validated: 1
EndChar

StartChar: parenleft
Encoding: 40 40 11
Width: 756
GlyphClass: 2
Flags: W
HStem: -240 180<494.465 655> 1570 180<826.732 1040>
VStem: 224 204<-1.00488 228.676>
DStem2: 149.127 -240 349.127 -240 0.207912 0.978148<395.291 1815.14>
LayerCount: 2
Fore
SplineSet
655 -240 m 1,0,1
 456 -240 456 -240 328 -144 c 4,2,3
 224 -66 224 -66 224 70 c 0,4,5
 224 114 224 114 235 164 c 2,6,-1
 486 1346 l 2,7,8
 534 1571 534 1571 680 1654 c 0,9,10
 848 1750 848 1750 1078 1750 c 1,11,-1
 1040 1570 l 1,12,13
 914 1570 914 1570 813.5 1521.5 c 128,-1,14
 713 1473 713 1473 686 1346 c 2,15,-1
 435 164 l 2,16,17
 428 131 428 131 428 104 c 0,18,19
 428 24 428 24 487 -12 c 0,20,21
 567 -60 567 -60 693 -60 c 1,22,-1
 655 -240 l 1,0,1
EndSplineSet
Validated: 1
EndChar

StartChar: parenright
Encoding: 41 41 12
Width: 756
GlyphClass: 2
Flags: W
HStem: -240 180<37 251.103> 1570 180<422 583.219>
VStem: 649 204<1198.25 1511.57>
DStem2: 305.127 -240 505.127 -240 0.207912 0.978148<260.962 1679.72>
LayerCount: 2
Fore
SplineSet
-1 -240 m 1,0,1
 37 -60 l 1,2,3
 166 -60 166 -60 263 -12 c 0,4,5
 364 38 364 38 391 164 c 2,6,-1
 642 1346 l 2,7,8
 649 1378 649 1378 649 1405 c 0,9,10
 649 1487 649 1487 590 1522 c 0,11,12
 510 1570 510 1570 384 1570 c 1,13,-1
 422 1750 l 1,14,15
 622 1750 622 1750 750 1654 c 0,16,17
 853 1576 853 1576 853 1440 c 0,18,19
 853 1396 853 1396 842 1346 c 2,20,-1
 591 164 l 2,21,22
 544 -61 544 -61 398 -144 c 0,23,24
 230 -240 230 -240 -1 -240 c 1,0,1
EndSplineSet
Validated: 1
EndChar

StartChar: asterisk
Encoding: 42 42 13
Width: 748
GlyphClass: 2
Flags: W
HStem: 900 680
DStem2: 288 1122 377 1044 0.889118 0.457677<43.4327 243.802 485.703 686.073> 460 1436 339 1358 0.834738 -0.550647<0 156.342 356.679 512.186> 505 900 624.947 900 0.207912 0.978148<78.1001 241.238 478.999 642.137>
LayerCount: 2
Fore
SplineSet
760 1580 m 1,0,-1
 770 1580 l 1,1,-1
 720 1344 l 1,2,-1
 898 1436 l 1,3,-1
 984 1367 l 1,4,-1
 987 1358 l 1,5,-1
 758 1240 l 1,6,-1
 936 1122 l 1,7,-1
 930 1113 l 1,8,-1
 815 1044 l 1,9,-1
 675 1136 l 1,10,-1
 636 952 l 1,11,-1
 515 900 l 1,12,-1
 505 900 l 1,13,-1
 555 1136 l 1,14,-1
 377 1044 l 1,15,-1
 292 1113 l 1,16,-1
 288 1122 l 1,17,-1
 518 1240 l 1,18,-1
 339 1358 l 1,19,-1
 346 1367 l 1,20,-1
 460 1436 l 1,21,-1
 600 1344 l 1,22,-1
 639 1528 l 1,23,-1
 760 1580 l 1,0,-1
EndSplineSet
Validated: 1
EndChar

StartChar: plus
Encoding: 43 43 14
Width: 1200
GlyphClass: 2
Flags: W
HStem: 680 150<392 670 851 1129>
DStem2: 590 305 739.971 305 0.207912 0.978148<98.6553 383.438 567.792 852.575>
LayerCount: 2
Fore
SplineSet
767 1139 m 1,0,-1
 921 1205 l 1,1,-1
 931 1205 l 1,2,-1
 851 830 l 1,3,-1
 1226 830 l 1,4,-1
 1224 820 l 1,5,-1
 1129 680 l 1,6,-1
 820 680 l 1,7,-1
 754 371 l 1,8,-1
 600 305 l 1,9,-1
 590 305 l 1,10,-1
 670 680 l 1,11,-1
 295 680 l 1,12,-1
 297 690 l 1,13,-1
 392 830 l 1,14,-1
 701 830 l 1,15,-1
 767 1139 l 1,0,-1
EndSplineSet
Validated: 1
EndChar

StartChar: comma
Encoding: 44 44 15
Width: 389
GlyphClass: 2
Flags: W
HStem: -276 554
VStem: 187 166<-64.7295 154.218>
LayerCount: 2
Fore
SplineSet
279 278 m 1,0,-1
 289 278 l 1,1,2
 353 198 353 198 353 101 c 0,3,4
 353 68 353 68 346 34 c 0,5,6
 304 -163 304 -163 55 -276 c 1,7,-1
 50 -269 l 1,8,9
 155 -139 155 -139 182 -10 c 0,10,11
 187 14 187 14 187 37 c 0,12,13
 187 134 187 134 92 198 c 1,14,-1
 279 278 l 1,0,-1
EndSplineSet
Validated: 1
EndChar

StartChar: hyphen
Encoding: 45 45 16
Width: 1200
GlyphClass: 2
Flags: W
HStem: 680 150<392 1129>
LayerCount: 2
Fore
SplineSet
392 830 m 5,0,-1
 1226 830 l 5,1,-1
 1224 820 l 5,2,-1
 1129 680 l 5,3,-1
 295 680 l 5,4,-1
 297 690 l 5,5,-1
 392 830 l 5,0,-1
EndSplineSet
Validated: 1
EndChar

StartChar: period
Encoding: 46 46 17
Width: 340
GlyphClass: 2
Flags: W
HStem: -20 245<116.901 267.42>
VStem: 69 246<27.5918 176.764>
LayerCount: 2
Fore
SplineSet
166 -20 m 0,0,1
 114 -20 114 -20 88 16 c 0,2,3
 69 42 69 42 69 75 c 0,4,5
 69 88 69 88 72 102 c 0,6,7
 83 152 83 152 125.5 188.5 c 128,-1,8
 168 225 168 225 218 225 c 128,-1,9
 268 225 268 225 296 189 c 0,10,11
 315 165 315 165 315 130 c 0,12,13
 315 116 315 116 312 102 c 0,14,15
 301 52 301 52 258.5 16 c 128,-1,16
 216 -20 216 -20 166 -20 c 0,0,1
EndSplineSet
Validated: 1
EndChar

StartChar: slash
Encoding: 47 47 18
Width: 1039
GlyphClass: 2
Flags: W
DStem2: -18 -133 114 -200 0.565598 0.824681<19.4053 2233.67>
LayerCount: 2
Fore
SplineSet
104 -200 m 1,0,-1
 -18 -133 l 1,1,-1
 1244 1710 l 1,2,-1
 1254 1710 l 1,3,-1
 1378 1643 l 1,4,-1
 114 -200 l 1,5,-1
 104 -200 l 1,0,-1
EndSplineSet
Validated: 1
EndChar

StartChar: zero
Encoding: 48 48 19
Width: 1330
GlyphClass: 2
Flags: W
HStem: -20 180<499.645 916.299> 1350 180<735.433 1151.82>
VStem: 231 204<220.06 534.719> 1216 204<975.281 1290.97>
DStem2: 156.127 -20 356.127 -20 0.207912 0.978148<395.321 1366.47> 966.127 -20 1166.13 -20 0.207912 0.978148<260.949 1230.77>
LayerCount: 2
Fore
SplineSet
699.5 160 m 128,-1,1
 826 160 826 160 925.5 208.5 c 128,-1,2
 1025 257 1025 257 1052 384 c 2,3,-1
 1209 1126 l 2,4,5
 1216 1159 1216 1159 1216 1186 c 0,6,7
 1216 1266 1216 1266 1158 1302 c 0,8,9
 1080 1350 1080 1350 953 1350 c 128,-1,10
 826 1350 826 1350 726 1301.5 c 128,-1,11
 626 1253 626 1253 599 1126 c 2,12,-1
 442 384 l 2,13,14
 435 352 435 352 435 324 c 0,15,16
 435 244 435 244 494 208 c 0,17,0
 573 160 573 160 699.5 160 c 128,-1,1
681.5 -20 m 128,-1,19
 471 -20 471 -20 334 76 c 0,20,21
 231 148 231 148 231 286 c 0,22,23
 231 331 231 331 242 384 c 2,24,-1
 399 1126 l 2,25,26
 447 1351 447 1351 592 1434 c 0,27,28
 760 1530 760 1530 970 1530 c 0,29,30
 1179 1530 1179 1530 1318 1434 c 0,31,32
 1420 1364 1420 1364 1420 1224 c 0,33,34
 1420 1179 1420 1179 1409 1126 c 2,35,-1
 1252 384 l 2,36,37
 1204 159 1204 159 1060 76 c 0,38,18
 892 -20 892 -20 681.5 -20 c 128,-1,19
EndSplineSet
Validated: 1
EndChar

StartChar: one
Encoding: 49 49 20
Width: 714
GlyphClass: 2
Flags: W
HStem: -20 21G<260 316.444> 1510 20G<732.816 789>
VStem: 260 529
DStem2: 260 -20 459.87 -20 0.207912 0.978148<133.566 1300.34>
LayerCount: 2
Fore
SplineSet
260 -20 m 1,0,-1
 530 1252 l 1,1,-1
 262 1138 l 1,2,-1
 301 1323 l 1,3,-1
 779 1530 l 1,4,-1
 789 1530 l 1,5,-1
 479 70 l 1,6,-1
 270 -20 l 1,7,-1
 260 -20 l 1,0,-1
EndSplineSet
Validated: 1
EndChar

StartChar: two
Encoding: 50 50 21
Width: 1233
GlyphClass: 2
Flags: W
HStem: 0 180<470 1023> 1350 180<663.701 1080.35>
VStem: 1145 204<983.488 1289.93>
DStem2: 198 180 470 180 0.798316 0.602239<217.142 1096.27> 899.154 0 1098.58 0 0.207912 0.978148<873.928 1209.39>
LayerCount: 2
Fore
SplineSet
80 0 m 1,0,-1
 82 10 l 1,1,-1
 198 180 l 1,2,-1
 825 653 l 2,3,4
 1080 845 1080 845 1120 1039 c 2,5,-1
 1138 1126 l 2,6,7
 1145 1158 1145 1158 1145 1185 c 0,8,9
 1145 1266 1145 1266 1086 1302 c 0,10,11
 1007 1350 1007 1350 880.5 1350 c 128,-1,12
 754 1350 754 1350 654.5 1301.5 c 128,-1,13
 555 1253 555 1253 528 1126 c 1,14,-1
 319 1036 l 1,15,-1
 309 1036 l 1,16,-1
 328 1126 l 2,17,18
 374 1351 374 1351 520 1434 c 0,19,20
 688 1530 688 1530 898.5 1530 c 128,-1,21
 1109 1530 1109 1530 1246 1434 c 0,22,23
 1349 1362 1349 1362 1349 1224 c 0,24,25
 1349 1179 1349 1179 1338 1126 c 2,26,-1
 1319 1037 l 2,27,28
 1256 743 1256 743 945 520 c 2,29,-1
 470 180 l 1,30,-1
 1141 180 l 1,31,-1
 1139 170 l 1,32,-1
 1023 0 l 1,33,-1
 80 0 l 1,0,-1
EndSplineSet
Validated: 1
EndChar

StartChar: three
Encoding: 51 51 22
Width: 1210
GlyphClass: 2
Flags: W
HStem: -20 180<441.017 837.653> 1330 180<614 970>
VStem: 180 195<219.226 368.897> 1013 203<382.018 710.017>
DStem2: 588 791 914 942 0.597285 0.802029<315.821 660.457> 886.127 -20 1086.13 -20 0.207912 0.978148<260.248 638.82>
LayerCount: 2
Fore
SplineSet
610 -20 m 0,0,1
 402 -20 402 -20 273 76 c 0,2,3
 180 145 180 145 180 285 c 0,4,5
 180 321 180 321 186 361 c 1,6,-1
 385 448 l 1,7,-1
 395 448 l 9,8,-1
 382 384 l 2,9,10
 375 352 375 352 375 325 c 0,11,12
 375 244 375 244 434 208 c 0,13,14
 512 160 512 160 628.5 160 c 128,-1,15
 745 160 745 160 845 208 c 128,-1,16
 945 256 945 256 972 384 c 2,17,-1
 1006 547 l 2,18,19
 1013 579 1013 579 1013 607 c 0,20,21
 1013 686 1013 686 954 722 c 0,22,23
 875 770 875 770 756 771 c 0,24,25
 680 771 680 771 611 752 c 1,26,-1
 588 791 l 1,27,-1
 970 1330 l 1,28,-1
 496 1330 l 1,29,-1
 498 1340 l 1,30,-1
 614 1510 l 1,31,-1
 1337 1510 l 1,32,-1
 914 942 l 1,33,34
 1032 917 1032 917 1114 855 c 0,35,36
 1216 778 1216 778 1216 640 c 0,37,38
 1216 596 1216 596 1206 547 c 2,39,-1
 1172 384 l 2,40,41
 1125 160 1125 160 979 76 c 0,42,43
 810 -20 810 -20 610 -20 c 0,0,1
EndSplineSet
Validated: 1
EndChar

StartChar: four
Encoding: 52 52 23
Width: 1232
GlyphClass: 2
Flags: W
HStem: -20 21G<778 834.444> 340 180<457 854 1093 1124> 1510 20G<1250.56 1307>
DStem2: 84 350 457 520 0.677495 0.735527<377.745 1219.32> 778 -20 977.87 -20 0.207912 0.978148<133.566 367.934 593.692 1186.98>
LayerCount: 2
Fore
SplineSet
457 520 m 1,0,-1
 893 520 l 1,1,-1
 1025 1141 l 1,2,-1
 457 520 l 1,0,-1
778 -20 m 1,3,-1
 854 340 l 1,4,-1
 82 340 l 1,5,-1
 84 350 l 1,6,-1
 1088 1440 l 1,7,-1
 1297 1530 l 1,8,-1
 1307 1530 l 1,9,-1
 1093 520 l 1,10,-1
 1243 520 l 1,11,-1
 1240 510 l 1,12,-1
 1124 340 l 1,13,-1
 1054 340 l 1,14,-1
 997 70 l 1,15,-1
 788 -20 l 1,16,-1
 778 -20 l 1,3,-1
EndSplineSet
Validated: 1
EndChar

StartChar: five
Encoding: 53 53 24
Width: 1210
GlyphClass: 2
Flags: W
HStem: -20 180<441.017 837.653> 770 181<588.717 948.6> 1330 180<776 1225>
VStem: 180 195<219.226 368.897> 1013 202<376.556 710.354>
DStem2: 334 808 586 925 0.410473 0.911873<210.128 657.427> 886.127 -20 1086.13 -20 0.207912 0.978148<260.248 638.82>
LayerCount: 2
Fore
SplineSet
610 -20 m 0,0,1
 402 -20 402 -20 273 76 c 0,2,3
 180 145 180 145 180 285 c 0,4,5
 180 321 180 321 186 361 c 1,6,-1
 385 448 l 1,7,-1
 395 448 l 9,8,-1
 382 384 l 2,9,10
 375 352 375 352 375 325 c 0,11,12
 376 244 376 244 434 208 c 0,13,14
 512 160 512 160 628.5 160 c 128,-1,15
 745 160 745 160 845 208 c 128,-1,16
 945 256 945 256 972 384 c 2,17,-1
 1006 547 l 2,18,19
 1013 579 1013 579 1013 607 c 0,20,21
 1013 686 1013 686 954 722 c 0,22,23
 875 770 875 770 755.5 770 c 128,-1,24
 636 770 636 770 511 712 c 1,25,-1
 334 808 l 1,26,-1
 650 1510 l 1,27,-1
 1343 1510 l 1,28,-1
 1341 1500 l 1,29,-1
 1225 1330 l 1,30,-1
 776 1330 l 1,31,-1
 586 925 l 1,32,33
 677 951 677 951 776 951 c 0,34,35
 977 951 977 951 1104 855 c 0,36,37
 1215 771 1215 771 1215 632 c 0,38,39
 1215 592 1215 592 1206 547 c 2,40,-1
 1172 384 l 2,41,42
 1125 160 1125 160 979 76 c 0,43,44
 810 -20 810 -20 610 -20 c 0,0,1
EndSplineSet
Validated: 1
EndChar

StartChar: six
Encoding: 54 54 25
Width: 1280
GlyphClass: 2
Flags: W
HStem: -20 180<499.551 896.321> 788 180<624.674 1011.78> 1350 180<732.575 1130.21>
VStem: 231 204<217.688 441.344> 1077 204<511.337 729.005> 1195 200<1141.79 1291.45>
DStem2: 156.127 -20 356.127 -20 0.207912 0.978148<395.291 793.338 963.764 1366.91> 946.127 -20 1146.13 -20 0.207912 0.978148<260.898 656.28>
LayerCount: 2
Fore
SplineSet
670 -20 m 128,-1,1
 469 -20 469 -20 333 76 c 0,2,3
 231 148 231 148 231 286 c 0,4,5
 231 331 231 331 242 384 c 2,6,-1
 399 1126 l 2,7,8
 447 1352 447 1352 591 1434 c 0,9,10
 759 1530 759 1530 960 1530 c 128,-1,11
 1161 1530 1161 1530 1295 1445 c 0,12,13
 1395 1382 1395 1382 1395 1246 c 0,14,15
 1395 1201 1395 1201 1384 1148 c 1,16,-1
 1186 1062 l 1,17,-1
 1176 1062 l 1,18,-1
 1189 1126 l 2,19,20
 1195 1158 1195 1158 1195 1185 c 0,21,22
 1195 1266 1195 1266 1137 1302 c 0,23,24
 1058 1350 1058 1350 941.5 1350 c 128,-1,25
 825 1350 825 1350 726 1302 c 0,26,27
 626 1253 626 1253 599 1126 c 2,28,-1
 548 882 l 1,29,30
 677 968 677 968 850 968 c 0,31,32
 1049 968 1049 968 1177 872 c 0,33,34
 1280 794 1280 794 1281 658 c 0,35,36
 1281 614 1281 614 1270 564 c 2,37,-1
 1232 384 l 2,38,39
 1184 159 1184 159 1039 76 c 0,40,0
 871 -20 871 -20 670 -20 c 128,-1,1
822.5 788 m 128,-1,42
 706 788 706 788 606.5 739.5 c 128,-1,43
 507 691 507 691 480 564 c 2,44,-1
 442 384 l 2,45,46
 435 351 435 351 435 324 c 0,47,48
 435 244 435 244 493 208 c 0,49,50
 571 160 571 160 688 160 c 128,-1,51
 805 160 805 160 905 208.5 c 128,-1,52
 1005 257 1005 257 1032 384 c 2,53,-1
 1070 564 l 2,54,55
 1077 596 1077 596 1077 624 c 0,56,57
 1077 704 1077 704 1018 740 c 0,58,41
 939 788 939 788 822.5 788 c 128,-1,42
EndSplineSet
Validated: 1
EndChar

StartChar: seven
Encoding: 55 55 26
Width: 967
GlyphClass: 2
Flags: W
HStem: -20 21G<158 214.202> 1330 180<411 943>
DStem2: 158 -20 466 109 0.503214 0.864162<266.467 1561.64>
LayerCount: 2
Fore
SplineSet
158 -20 m 1,0,-1
 943 1330 l 1,1,-1
 293 1330 l 1,2,-1
 295 1340 l 1,3,-1
 411 1510 l 1,4,-1
 1278 1510 l 1,5,-1
 1276 1500 l 1,6,-1
 466 109 l 1,7,-1
 168 -20 l 1,8,-1
 158 -20 l 1,0,-1
EndSplineSet
Validated: 1
EndChar

StartChar: eight
Encoding: 56 56 27
Width: 1210
GlyphClass: 2
Flags: W
HStem: -20 180<439.417 856.44> 746 180<651.698 962.898> 1350 180<716.967 1043.54>
VStem: 172 203<219.002 546.094> 413 197<968.945 1135.61> 1028 203<362.005 686.715> 1084 198<1143.62 1307.06>
DStem2: 96.1271 -20 296.127 -20 0.207912 0.978148<395.291 747.173> 185.338 -20 376.236 -20 0.207912 0.978148<1142.46 1392.42> 825.483 -20 1015.34 -20 0.207912 0.978148<1014.87 1263.99> 906.127 -20 1106.13 -20 0.207912 0.978148<260.134 612.379>
LayerCount: 2
Fore
SplineSet
764 746 m 152,-1,1
 637 746 637 746 538 698 c 0,2,3
 438 649 438 649 411 522 c 2,4,-1
 382 384 l 2,5,6
 375 351 375 351 375 324 c 0,7,8
 375 244 375 244 434 208 c 0,9,10
 515 160 515 160 639 160 c 152,-1,11
 763 160 763 160 864 208 c 0,12,13
 964 256 964 256 992 384 c 2,14,-1
 1021 522 l 2,15,16
 1028 554 1028 554 1028 581 c 0,17,18
 1028 661 1028 661 968 698 c 0,19,0
 891 746 891 746 764 746 c 152,-1,1
621 -20 m 24,20,21
 399 -20 399 -20 274 76 c 0,22,23
 172 155 172 155 172 291 c 0,24,25
 172 334 172 334 182 384 c 2,26,-1
 211 522 l 2,27,28
 268 794 268 794 510 866 c 1,29,30
 413 920 413 920 413 1025 c 0,31,32
 413 1053 413 1053 420 1084 c 2,33,-1
 443 1192 l 2,34,35
 483 1380 483 1380 599 1448 c 0,36,37
 738 1530 738 1530 910 1530 c 152,-1,38
 1082 1530 1082 1530 1196 1448 c 0,39,40
 1282 1386 1282 1386 1282 1272 c 0,41,42
 1282 1235 1282 1235 1273 1192 c 2,43,-1
 1250 1084 l 2,44,45
 1211 903 1211 903 1065 835 c 1,46,47
 1231 777 1231 777 1231 610 c 0,48,49
 1231 569 1231 569 1221 522 c 2,50,-1
 1192 384 l 2,51,52
 1145 160 1145 160 998 76 c 0,53,54
 831 -20 831 -20 621 -20 c 24,20,21
802 926 m 152,-1,56
 900 926 900 926 972 967.5 c 128,-1,57
 1044 1009 1044 1009 1066 1108 c 2,58,-1
 1078 1168 l 2,59,60
 1084 1195 1084 1195 1084 1218 c 0,61,62
 1084 1278 1084 1278 1044 1308 c 0,63,64
 989 1350 989 1350 891 1350 c 152,-1,65
 793 1350 793 1350 721 1308.5 c 128,-1,66
 649 1267 649 1267 628 1168 c 2,67,-1
 616 1108 l 2,68,69
 610 1080 610 1080 610 1057 c 0,70,71
 610 998 610 998 650 968 c 0,72,55
 704 926 704 926 802 926 c 152,-1,56
EndSplineSet
Validated: 1
EndChar

StartChar: nine
Encoding: 57 57 28
Width: 1280
GlyphClass: 2
Flags: W
HStem: -20 180<470.937 868.507> 542 180<589.219 976.326> 1350 180<704.597 1101.3>
VStem: 206 200<218.555 368.212> 320 204<780.995 998.663> 1166 204<970.484 1292.48>
DStem2: 125.67 -20 325.67 -20 0.207912 0.978148<969.876 1365.26> 916.127 -20 1116.13 -20 0.207912 0.978148<260.656 662.297 835.41 1230.77>
LayerCount: 2
Fore
SplineSet
642 -20 m 0,0,1
 440 -20 440 -20 306 65 c 0,2,3
 206 128 206 128 206 264 c 0,4,5
 206 309 206 309 217 362 c 1,6,-1
 415 448 l 1,7,-1
 425 448 l 1,8,-1
 412 384 l 2,9,10
 406 352 406 352 406 325 c 0,11,12
 406 244 406 244 464 208 c 0,13,14
 543 160 543 160 659.5 160 c 128,-1,15
 776 160 776 160 875 208 c 0,16,17
 975 257 975 257 1002 384 c 2,18,-1
 1053 628 l 1,19,20
 924 542 924 542 751 542 c 0,21,22
 552 542 552 542 424 638 c 0,23,24
 321 716 321 716 320 852 c 0,25,26
 320 896 320 896 331 946 c 2,27,-1
 369 1126 l 2,28,29
 417 1351 417 1351 562 1434 c 0,30,31
 730 1530 730 1530 930 1530 c 0,32,33
 1132 1530 1132 1530 1268 1434 c 0,34,35
 1370 1362 1370 1362 1370 1224 c 0,36,37
 1370 1179 1370 1179 1359 1126 c 2,38,-1
 1202 384 l 2,39,40
 1154 158 1154 158 1010 76 c 0,41,42
 842 -20 842 -20 642 -20 c 0,0,1
778.5 722 m 128,-1,44
 895 722 895 722 994.5 770.5 c 128,-1,45
 1094 819 1094 819 1121 946 c 2,46,-1
 1159 1126 l 2,47,48
 1166 1159 1166 1159 1166 1186 c 0,49,50
 1166 1266 1166 1266 1108 1302 c 0,51,52
 1030 1350 1030 1350 913 1350 c 128,-1,53
 796 1350 796 1350 696 1301.5 c 128,-1,54
 596 1253 596 1253 569 1126 c 2,55,-1
 531 946 l 2,56,57
 524 914 524 914 524 886 c 0,58,59
 524 806 524 806 583 770 c 0,60,43
 662 722 662 722 778.5 722 c 128,-1,44
EndSplineSet
Validated: 1
EndChar

StartChar: colon
Encoding: 58 58 29
Width: 340
GlyphClass: 2
Flags: W
HStem: -20 245<116.711 267.42> 632 245<254.711 405.42>
VStem: 69 246<27.5918 176.764> 207 246<679.592 828.764>
LayerCount: 2
Fore
SplineSet
356 877 m 0,0,1
 408 877 408 877 434 841 c 0,2,3
 453 816 453 816 453 782 c 0,4,5
 453 768 453 768 450 754 c 0,6,7
 439 704 439 704 396.5 668 c 128,-1,8
 354 632 354 632 304 632 c 128,-1,9
 254 632 254 632 226 668 c 0,10,11
 207 693 207 693 207 727 c 0,12,13
 207 740 207 740 210 754 c 0,14,15
 221 804 221 804 263.5 840.5 c 128,-1,16
 306 877 306 877 356 877 c 0,0,1
166 -20 m 128,-1,18
 116 -20 116 -20 88 16 c 0,19,20
 69 41 69 41 69 75 c 0,21,22
 69 88 69 88 72 102 c 0,23,24
 83 152 83 152 125.5 188.5 c 128,-1,25
 168 225 168 225 218 225 c 0,26,27
 270 225 270 225 296 189 c 0,28,29
 315 163 315 163 315 130 c 0,30,31
 315 116 315 116 312 102 c 0,32,33
 301 52 301 52 258.5 16 c 128,-1,17
 216 -20 216 -20 166 -20 c 128,-1,18
EndSplineSet
Validated: 1
EndChar

StartChar: semicolon
Encoding: 59 59 30
Width: 389
GlyphClass: 2
Flags: W
HStem: 632 245<274.711 425.42>
VStem: 187 166<-64.7295 154.218> 227 246<679.592 828.764>
LayerCount: 2
Fore
SplineSet
376 877 m 0,0,1
 428 877 428 877 454 841 c 0,2,3
 473 816 473 816 473 782 c 0,4,5
 473 768 473 768 470 754 c 0,6,7
 459 704 459 704 416.5 668 c 128,-1,8
 374 632 374 632 324 632 c 128,-1,9
 274 632 274 632 246 668 c 0,10,11
 227 693 227 693 227 727 c 0,12,13
 227 740 227 740 230 754 c 0,14,15
 241 804 241 804 283.5 840.5 c 128,-1,16
 326 877 326 877 376 877 c 0,0,1
279 278 m 1,17,-1
 289 278 l 1,18,19
 353 198 353 198 353 101 c 0,20,21
 353 68 353 68 346 34 c 0,22,23
 304 -163 304 -163 55 -276 c 1,24,-1
 50 -269 l 1,25,26
 155 -139 155 -139 182 -10 c 0,27,28
 187 14 187 14 187 37 c 0,29,30
 187 134 187 134 92 198 c 1,31,-1
 279 278 l 1,17,-1
EndSplineSet
Validated: 1
EndChar

StartChar: less
Encoding: 60 60 31
Width: 1315
GlyphClass: 2
Flags: W
DStem2: 589 736 295 680 0.933865 -0.357626<0 637.463> 392 830 589 736 0.945717 0.324992<155.757 940.972>
LayerCount: 2
Fore
SplineSet
295 680 m 1,0,-1
 297 690 l 1,1,-1
 392 830 l 1,2,-1
 1297 1141 l 1,3,-1
 1335 1000 l 1,4,-1
 1332 990 l 1,5,-1
 589 736 l 1,6,-1
 1222 505 l 1,7,-1
 1220 495 l 1,8,-1
 1128 361 l 1,9,-1
 295 680 l 1,0,-1
EndSplineSet
Validated: 1
EndChar

StartChar: equal
Encoding: 61 61 32
Width: 1200
GlyphClass: 2
Flags: W
HStem: 480 150<350 1086> 880 150<435 1171>
LayerCount: 2
Fore
SplineSet
435 1030 m 1,0,-1
 1269 1030 l 1,1,-1
 1267 1020 l 1,2,-1
 1171 880 l 1,3,-1
 337 880 l 1,4,-1
 339 890 l 1,5,-1
 435 1030 l 1,0,-1
350 630 m 1,6,-1
 1184 630 l 1,7,-1
 1182 620 l 1,8,-1
 1086 480 l 1,9,-1
 252 480 l 1,10,-1
 254 490 l 1,11,-1
 350 630 l 1,6,-1
EndSplineSet
Validated: 1
EndChar

StartChar: greater
Encoding: 62 62 33
Width: 1315
GlyphClass: 2
Flags: W
DStem2: 304 520 339 369 0.945717 0.324992<0 785.216> 508 1149 414 1005 0.933865 -0.357626<0 637.463>
LayerCount: 2
Fore
SplineSet
1341 830 m 1,0,-1
 1339 820 l 1,1,-1
 1244 680 l 1,2,-1
 339 369 l 1,3,-1
 301 510 l 1,4,-1
 304 520 l 1,5,-1
 1047 774 l 1,6,-1
 414 1005 l 1,7,-1
 416 1015 l 1,8,-1
 508 1149 l 1,9,-1
 1341 830 l 1,0,-1
EndSplineSet
Validated: 1
EndChar

StartChar: question
Encoding: 63 63 34
Width: 1310
GlyphClass: 2
Flags: W
HStem: -20 245<581.901 732.42> 1350 180<725.16 1141.43>
VStem: 534 246<27.5918 176.764> 1206 204<1091.09 1288.88>
DStem2: 955.888 -20 1155.31 -20 0.207912 0.978148<928.01 1229.84>
LayerCount: 2
Fore
SplineSet
631 -20 m 0,0,1
 579 -20 579 -20 553 16 c 0,2,3
 534 42 534 42 534 75 c 0,4,5
 534 88 534 88 537 102 c 0,6,7
 548 152 548 152 590.5 188.5 c 128,-1,8
 633 225 633 225 683 225 c 128,-1,9
 733 225 733 225 761 189 c 0,10,11
 780 165 780 165 780 130 c 0,12,13
 780 116 780 116 777 102 c 0,14,15
 766 52 766 52 723.5 16 c 128,-1,16
 681 -20 681 -20 631 -20 c 0,0,1
960 1530 m 128,-1,18
 1170 1530 1170 1530 1307 1434 c 0,19,20
 1410 1362 1410 1362 1410 1224 c 0,21,22
 1410 1179 1410 1179 1399 1126 c 2,23,-1
 1387 1070 l 2,24,25
 1317 743 1317 743 957 577 c 0,26,27
 857 531 857 531 838 454 c 1,28,-1
 625 361 l 1,29,-1
 615 361 l 1,30,31
 674 638 674 638 906 743 c 0,32,33
 1143 851 1143 851 1188 1072 c 2,34,-1
 1199 1126 l 2,35,36
 1206 1158 1206 1158 1206 1185 c 0,37,38
 1206 1266 1206 1266 1147 1302 c 0,39,40
 1068 1350 1068 1350 941.5 1350 c 128,-1,41
 815 1350 815 1350 715.5 1301.5 c 128,-1,42
 616 1253 616 1253 589 1126 c 1,43,-1
 380 1036 l 1,44,-1
 370 1036 l 1,45,-1
 389 1126 l 2,46,47
 436 1351 436 1351 582 1434 c 0,48,17
 750 1530 750 1530 960 1530 c 128,-1,18
EndSplineSet
Validated: 1
EndChar

StartChar: at
Encoding: 64 64 35
Width: 1380
GlyphClass: 2
Flags: W
HStem: -430 160<412 594> -20 160<812.85 1006> 522 160<870.172 1131> 960 160<652.185 1116.04>
VStem: 162 181<-210.043 124.891> 595 172<183.626 424.098> 1180 183<684.281 901.687>
DStem2: 88.1271 -430 268.378 -430 0.207912 0.978148<371.716 1381.61> 928.843 -430 1108.72 -430 0.207912 0.978148<582.734 973.227 1136.18 1249.62>
LayerCount: 2
Fore
SplineSet
1006 -20 m 1,0,-1
 940 -20 l 2,1,2
 783 -20 783 -20 679 62 c 0,3,4
 595 129 595 129 595 245 c 0,5,6
 595 279 595 279 602 318 c 2,7,-1
 607 344 l 2,8,9
 642 528 642 528 764 600 c 0,10,11
 902 682 902 682 1059 682 c 2,12,-1
 1162 682 l 1,13,-1
 1173 736 l 2,14,15
 1180 768 1180 768 1180 795 c 0,16,17
 1180 876 1180 876 1122 912 c 0,18,19
 1044 960 1044 960 893.5 960 c 128,-1,20
 743 960 743 960 643 911.5 c 128,-1,21
 543 863 543 863 516 736 c 2,22,-1
 350 -46 l 2,23,24
 343 -78 343 -78 343 -105 c 0,25,26
 343 -187 343 -187 402 -222 c 0,27,28
 482 -270 482 -270 628 -270 c 2,29,-1
 699 -270 l 1,30,-1
 696 -280 l 1,31,-1
 594 -430 l 17,32,33
 394 -430 394 -430 266 -340 c 0,34,35
 162 -268 162 -268 162 -128 c 0,36,37
 162 -81 162 -81 174 -26 c 2,38,-1
 332 716 l 2,39,40
 380 941 380 941 525 1024 c 0,41,42
 693 1120 693 1120 908.5 1120 c 128,-1,43
 1124 1120 1124 1120 1260 1024 c 0,44,45
 1363 952 1363 952 1363 814 c 0,46,47
 1363 769 1363 769 1352 716 c 2,48,-1
 1215 70 l 1,49,-1
 1006 -20 l 1,0,-1
1050 140 m 1,50,-1
 1131 522 l 1,51,-1
 1037 522 l 2,52,53
 951 522 951 522 874 480 c 0,54,55
 797 439 797 439 776 340 c 2,56,-1
 772 322 l 2,57,58
 767 296 767 296 767 275 c 0,59,60
 767 213 767 213 811 182 c 0,61,62
 870 140 870 140 956 140 c 2,63,-1
 1050 140 l 1,50,-1
EndSplineSet
Validated: 1
EndChar

StartChar: A
Encoding: 65 65 36
Width: 1370
GlyphClass: 2
Flags: W
HStem: -20 21G<176 232.444 986 1042.44> 665 180<560 1131> 1350 180<755.433 1171.82>
VStem: 1236 204<1064.96 1289.62>
DStem2: 176 -20 375.87 -20 0.207912 0.978148<133.566 741.761 925.936 1366.5> 986 -20 1185.87 -20 0.207912 0.978148<133.566 700.178 884.353 1230.8>
LayerCount: 2
Fore
SplineSet
186 -20 m 1,0,-1
 176 -20 l 1,1,-1
 419 1126 l 2,2,3
 467 1351 467 1351 612 1434 c 0,4,5
 780 1530 780 1530 990 1530 c 0,6,7
 1199 1530 1199 1530 1338 1434 c 0,8,9
 1440 1364 1440 1364 1440 1224 c 0,10,11
 1440 1179 1440 1179 1429 1126 c 2,12,-1
 1205 70 l 1,13,-1
 996 -20 l 1,14,-1
 986 -20 l 1,15,-1
 1131 665 l 1,16,-1
 521 665 l 1,17,-1
 395 70 l 1,18,-1
 186 -20 l 1,0,-1
560 845 m 1,19,-1
 1170 845 l 1,20,-1
 1229 1126 l 2,21,22
 1236 1159 1236 1159 1236 1186 c 0,23,24
 1236 1266 1236 1266 1178 1302 c 0,25,26
 1100 1350 1100 1350 973 1350 c 128,-1,27
 846 1350 846 1350 746 1301.5 c 128,-1,28
 646 1253 646 1253 619 1126 c 2,29,-1
 560 845 l 1,19,-1
EndSplineSet
Validated: 1
EndChar

StartChar: B
Encoding: 66 66 37
Width: 1250
GlyphClass: 2
Flags: W
HStem: 0 180<438 909.216> 746 180<597 1012.17> 1330 180<683 1084.12>
VStem: 1078 203<364.592 685.559> 1129 198<1125.28 1287.09>
DStem2: 200 0 399.74 0 0.207912 0.978148<225.55 804.338 988.306 1401.36> 960.127 0 1160.13 0 0.207912 0.978148<260.058 591.984>
LayerCount: 2
Fore
SplineSet
438 180 m 1,0,-1
 693 180 l 2,1,2
 817 180 817 180 918 228 c 0,3,4
 1018 276 1018 276 1046 404 c 2,5,-1
 1071 522 l 2,6,7
 1078 554 1078 554 1078 581 c 0,8,9
 1078 661 1078 661 1018 698 c 0,10,11
 940 746 940 746 814 746 c 2,12,-1
 559 746 l 1,13,-1
 438 180 l 1,0,-1
200 0 m 1,14,-1
 506 1440 l 1,15,-1
 669 1510 l 1,16,-1
 956 1510 l 2,17,18
 1128 1510 1128 1510 1232 1428 c 0,19,20
 1327 1354 1327 1354 1327 1240 c 0,21,22
 1327 1208 1327 1208 1319 1172 c 2,23,-1
 1300 1084 l 2,24,25
 1259 896 1259 896 1117 831 c 1,26,27
 1281 773 1281 773 1281 609 c 0,28,29
 1281 569 1281 569 1271 522 c 2,30,-1
 1246 404 l 2,31,32
 1198 180 1198 180 1052 96 c 0,33,34
 885 0 885 0 675 0 c 2,35,-1
 200 0 l 1,14,-1
597 926 m 1,36,-1
 842 926 l 2,37,38
 940 926 940 926 1017 967.5 c 128,-1,39
 1094 1009 1094 1009 1116 1108 c 2,40,-1
 1124 1148 l 2,41,42
 1129 1174 1129 1174 1129 1196 c 0,43,44
 1129 1259 1129 1259 1086 1288 c 0,45,46
 1026 1330 1026 1330 928 1330 c 2,47,-1
 683 1330 l 1,48,-1
 597 926 l 1,36,-1
EndSplineSet
Validated: 1
EndChar

StartChar: C
Encoding: 67 67 38
Width: 1250
GlyphClass: 2
Flags: W
HStem: -20 180<499.645 916.299> 1350 180<735.433 1151.29>
VStem: 231 204<221.125 447.317> 1216 195<1141.1 1291.43>
DStem2: 156.127 -20 356.127 -20 0.207912 0.978148<395.321 1366.47>
LayerCount: 2
Fore
SplineSet
681.5 -20 m 128,-1,1
 471 -20 471 -20 334 76 c 0,2,3
 231 148 231 148 231 286 c 0,4,5
 231 331 231 331 242 384 c 2,6,-1
 399 1126 l 2,7,8
 447 1351 447 1351 592 1434 c 0,9,10
 760 1530 760 1530 970 1530 c 0,11,12
 1188 1530 1188 1530 1318 1434 c 0,13,14
 1411 1365 1411 1365 1411 1225 c 0,15,16
 1411 1189 1411 1189 1405 1149 c 1,17,-1
 1206 1062 l 1,18,-1
 1196 1062 l 9,19,-1
 1209 1126 l 2,20,21
 1216 1158 1216 1158 1216 1185 c 0,22,23
 1216 1266 1216 1266 1158 1302 c 0,24,25
 1080 1350 1080 1350 953 1350 c 128,-1,26
 826 1350 826 1350 726 1301.5 c 128,-1,27
 626 1253 626 1253 599 1126 c 2,28,-1
 442 384 l 2,29,30
 435 352 435 352 435 324 c 0,31,32
 435 244 435 244 494 208 c 0,33,34
 573 160 573 160 699.5 160 c 128,-1,35
 826 160 826 160 925.5 208.5 c 128,-1,36
 1025 257 1025 257 1052 384 c 1,37,-1
 1261 474 l 1,38,-1
 1271 474 l 1,39,-1
 1252 384 l 2,40,41
 1206 159 1206 159 1060 76 c 0,42,0
 892 -20 892 -20 681.5 -20 c 128,-1,1
EndSplineSet
Validated: 1
EndChar

StartChar: D
Encoding: 68 68 39
Width: 1350
GlyphClass: 2
Flags: W
HStem: 0 180<438 939.216> 1330 180<683 1163.42>
VStem: 1232 203<941.469 1269.76>
DStem2: 200 0 399.74 0 0.207912 0.978148<225.55 1401.36> 990.127 0 1190.13 0 0.207912 0.978148<260.134 1189.95>
LayerCount: 2
Fore
SplineSet
438 180 m 1,0,-1
 723 180 l 2,1,2
 850 180 850 180 948 228 c 0,3,4
 1048 276 1048 276 1076 404 c 2,5,-1
 1225 1106 l 2,6,7
 1232 1138 1232 1138 1232 1166 c 0,8,9
 1232 1247 1232 1247 1172 1282 c 0,10,11
 1094 1330 1094 1330 968 1330 c 2,12,-1
 683 1330 l 1,13,-1
 438 180 l 1,0,-1
200 0 m 1,14,-1
 506 1440 l 1,15,-1
 669 1510 l 1,16,-1
 986 1510 l 2,17,18
 1194 1510 1194 1510 1322 1414 c 0,19,20
 1435 1329 1435 1329 1435 1191 c 0,21,22
 1435 1151 1435 1151 1425 1106 c 2,23,-1
 1276 404 l 2,24,25
 1229 180 1229 180 1082 96 c 0,26,27
 915 0 915 0 705 0 c 2,28,-1
 200 0 l 1,14,-1
EndSplineSet
Validated: 1
EndChar

StartChar: E
Encoding: 69 69 40
Width: 1060
GlyphClass: 2
Flags: W
HStem: 0 180<438 930> 665 180<580 1021> 1330 180<683 1163>
DStem2: 200 0 399.74 0 0.207912 0.978148<225.55 721.366 905.541 1401.36>
CounterMasks: 1 e0
LayerCount: 2
Fore
SplineSet
200 0 m 1,0,-1
 506 1440 l 1,1,-1
 669 1510 l 1,2,-1
 1281 1510 l 1,3,-1
 1279 1500 l 1,4,-1
 1163 1330 l 1,5,-1
 683 1330 l 1,6,-1
 580 845 l 1,7,-1
 1140 845 l 1,8,-1
 1137 835 l 1,9,-1
 1021 665 l 1,10,-1
 541 665 l 1,11,-1
 438 180 l 1,12,-1
 1048 180 l 1,13,-1
 1046 170 l 1,14,-1
 930 0 l 1,15,-1
 200 0 l 1,0,-1
EndSplineSet
Validated: 1
EndChar

StartChar: F
Encoding: 70 70 41
Width: 1010
GlyphClass: 2
Flags: W
HStem: -20 21G<196 252.444> 665 180<580 1021> 1330 180<683 1163>
DStem2: 196 -20 395.87 -20 0.207912 0.978148<133.566 741.761 925.936 1421.75>
LayerCount: 2
Fore
SplineSet
196 -20 m 1,0,-1
 506 1440 l 1,1,-1
 669 1510 l 1,2,-1
 1281 1510 l 1,3,-1
 1279 1500 l 1,4,-1
 1163 1330 l 1,5,-1
 683 1330 l 1,6,-1
 580 845 l 1,7,-1
 1140 845 l 1,8,-1
 1137 835 l 1,9,-1
 1021 665 l 1,10,-1
 541 665 l 1,11,-1
 415 70 l 1,12,-1
 206 -20 l 1,13,-1
 196 -20 l 1,0,-1
EndSplineSet
Validated: 1
EndChar

StartChar: G
Encoding: 71 71 42
Width: 1330
GlyphClass: 2
Flags: W
HStem: -20 180<499.645 918.105> 665 180<882 1111> 1350 180<735.433 1151.29>
VStem: 231 204<221.125 447.317> 1216 195<1141.1 1291.43>
DStem2: 156.127 -20 356.127 -20 0.207912 0.978148<395.321 1366.47> 966.127 -20 1166.13 -20 0.207912 0.978148<259.639 700.152>
CounterMasks: 1 e0
LayerCount: 2
Fore
SplineSet
681.5 -20 m 128,-1,1
 471 -20 471 -20 334 76 c 0,2,3
 231 148 231 148 231 286 c 0,4,5
 231 331 231 331 242 384 c 2,6,-1
 399 1126 l 2,7,8
 447 1351 447 1351 592 1434 c 0,9,10
 760 1530 760 1530 970 1530 c 0,11,12
 1188 1530 1188 1530 1318 1434 c 0,13,14
 1411 1365 1411 1365 1411 1225 c 0,15,16
 1411 1189 1411 1189 1405 1149 c 1,17,-1
 1206 1062 l 1,18,-1
 1196 1062 l 9,19,-1
 1209 1126 l 2,20,21
 1216 1158 1216 1158 1216 1185 c 0,22,23
 1216 1266 1216 1266 1158 1302 c 0,24,25
 1080 1350 1080 1350 953 1350 c 128,-1,26
 826 1350 826 1350 726 1301.5 c 128,-1,27
 626 1253 626 1253 599 1126 c 2,28,-1
 442 384 l 2,29,30
 435 352 435 352 435 324 c 0,31,32
 435 244 435 244 494 208 c 0,33,34
 573 160 573 160 699.5 160 c 128,-1,35
 826 160 826 160 926 208 c 0,36,37
 1026 257 1026 257 1052 384 c 2,38,-1
 1111 665 l 1,39,-1
 763 665 l 1,40,-1
 765 675 l 1,41,-1
 882 845 l 1,42,-1
 1350 845 l 1,43,-1
 1252 384 l 2,44,45
 1204 159 1204 159 1060 76 c 0,46,0
 892 -20 892 -20 681.5 -20 c 128,-1,1
EndSplineSet
Validated: 1
EndChar

StartChar: H
Encoding: 72 72 43
Width: 1400
GlyphClass: 2
Flags: W
HStem: -20 21G<196 252.444 996 1052.44> 665 180<580 1141> 1510 20G<668.556 725 1468.56 1525>
DStem2: 196 -20 395.87 -20 0.207912 0.978148<133.566 741.761 925.936 1492.55> 996 -20 1195.87 -20 0.207912 0.978148<133.566 700.178 884.353 1492.55>
LayerCount: 2
Fore
SplineSet
196 -20 m 1,0,-1
 506 1440 l 1,1,-1
 715 1530 l 1,2,-1
 725 1530 l 1,3,-1
 580 845 l 1,4,-1
 1180 845 l 1,5,-1
 1306 1440 l 1,6,-1
 1515 1530 l 1,7,-1
 1525 1530 l 1,8,-1
 1215 70 l 1,9,-1
 1006 -20 l 1,10,-1
 996 -20 l 1,11,-1
 1141 665 l 1,12,-1
 541 665 l 1,13,-1
 415 70 l 1,14,-1
 206 -20 l 1,15,-1
 196 -20 l 1,0,-1
EndSplineSet
Validated: 1
EndChar

StartChar: I
Encoding: 73 73 44
Width: 600
GlyphClass: 2
Flags: W
HStem: -20 21G<196 252.444> 1510 20G<668.556 725>
VStem: 196 529
DStem2: 196 -20 395.87 -20 0.207912 0.978148<133.566 1492.55>
LayerCount: 2
Fore
SplineSet
196 -20 m 1,0,-1
 506 1440 l 1,1,-1
 715 1530 l 1,2,-1
 725 1530 l 1,3,-1
 415 70 l 1,4,-1
 206 -20 l 1,5,-1
 196 -20 l 1,0,-1
EndSplineSet
Validated: 1
EndChar

StartChar: J
Encoding: 74 74 45
Width: 1150
GlyphClass: 2
Flags: W
HStem: -20 180<349.2 733.946> 1330 180<526 1073>
VStem: 90 194<218.901 370.309>
DStem2: 786.127 -20 986.127 -20 0.207912 0.978148<261.548 1380.14>
LayerCount: 2
Fore
SplineSet
517 -20 m 0,0,1
 311 -20 311 -20 182 76 c 0,2,3
 90 144 90 144 90 294 c 0,4,5
 90 327 90 327 96 363 c 1,6,-1
 294 448 l 1,7,-1
 304 448 l 9,8,-1
 291 384 l 2,9,10
 284 350 284 350 284 325 c 0,11,12
 284 244 284 244 342 208 c 0,13,14
 420 160 420 160 535 160 c 0,15,16
 645 160 645 160 745 209 c 128,-1,17
 845 258 845 258 872 384 c 2,18,-1
 1073 1330 l 17,19,-1
 408 1330 l 1,20,-1
 410 1340 l 1,21,-1
 526 1510 l 1,22,-1
 1311 1510 l 9,23,-1
 1072 384 l 2,24,25
 1024 159 1024 159 878 76 c 0,26,27
 711 -20 711 -20 517 -20 c 0,0,1
EndSplineSet
Validated: 1
EndChar

StartChar: K
Encoding: 75 75 46
Width: 1350
GlyphClass: 2
Flags: W
HStem: -20 21G<196 252.444 986 1042.44> 863 179<944 1066.42> 1510 20G<668.556 725 1299.27 1373.95>
VStem: 1133 204<577.203 801.158>
DStem2: 196 -20 395.87 -20 0.207912 0.978148<133.566 867.365 1079.1 1492.55> 611 995 944 1042 0.800671 0.599104<294.781 893.001> 986 -20 1185.87 -20 0.207912 0.978148<133.566 732.994>
LayerCount: 2
Fore
SplineSet
206 -20 m 1,0,-1
 196 -20 l 1,1,-1
 506 1440 l 1,2,-1
 715 1530 l 1,3,-1
 725 1530 l 1,4,-1
 611 995 l 1,5,-1
 1326 1530 l 1,6,-1
 1336 1530 l 1,7,-1
 1503 1442 l 1,8,-1
 944 1042 l 1,9,10
 1119 1034 1119 1034 1234 947 c 0,11,12
 1337 869 1337 869 1337 733 c 0,13,14
 1337 689 1337 689 1326 639 c 2,15,-1
 1205 70 l 1,16,-1
 996 -20 l 1,17,-1
 986 -20 l 1,18,-1
 1126 639 l 2,19,20
 1133 671 1133 671 1133 699 c 0,21,22
 1133 778 1133 778 1074 814 c 0,23,24
 994 863 994 863 878 863 c 128,-1,25
 762 863 762 863 662.5 814.5 c 128,-1,26
 563 766 563 766 536 639 c 2,27,-1
 415 70 l 1,28,-1
 206 -20 l 1,0,-1
EndSplineSet
Validated: 1
EndChar

StartChar: L
Encoding: 76 76 47
Width: 1020
GlyphClass: 2
Flags: W
HStem: 0 180<438 930> 1510 20G<668.556 725>
DStem2: 200 0 399.74 0 0.207912 0.978148<225.55 1472.15>
LayerCount: 2
Fore
SplineSet
200 0 m 1,0,-1
 506 1440 l 1,1,-1
 715 1530 l 1,2,-1
 725 1530 l 1,3,-1
 438 180 l 1,4,-1
 1048 180 l 1,5,-1
 1046 170 l 1,6,-1
 930 0 l 1,7,-1
 200 0 l 1,0,-1
EndSplineSet
Validated: 1
EndChar

StartChar: M
Encoding: 77 77 48
Width: 2180
GlyphClass: 2
Flags: W
HStem: -20 21G<176 232.444 986 1042.44 1796 1852.44> 1350 180<755.433 1171.71 1565.93 1982.71>
VStem: 2046 204<1061.58 1289.25>
DStem2: 176 -20 375.87 -20 0.207912 0.978148<133.566 1366.5> 986 -20 1185.87 -20 0.207912 0.978148<133.566 1230.8> 1796 -20 1995.87 -20 0.207912 0.978148<133.566 1230.8>
LayerCount: 2
Fore
SplineSet
186 -20 m 1,0,-1
 176 -20 l 1,1,-1
 419 1126 l 2,2,3
 467 1351 467 1351 612 1434 c 0,4,5
 780 1530 780 1530 990 1530 c 0,6,7
 1203 1530 1203 1530 1328 1434 c 0,8,9
 1350 1417 1350 1417 1367 1397 c 1,10,11
 1393 1417 1393 1417 1423 1434 c 0,12,13
 1591 1530 1591 1530 1801 1530 c 0,14,15
 2012 1530 2012 1530 2148 1434 c 0,16,17
 2250 1363 2250 1363 2250 1224 c 0,18,19
 2250 1179 2250 1179 2239 1126 c 2,20,-1
 2015 70 l 1,21,-1
 1806 -20 l 1,22,-1
 1796 -20 l 1,23,-1
 2039 1126 l 2,24,25
 2046 1159 2046 1159 2046 1186 c 0,26,27
 2046 1266 2046 1266 1988 1302 c 0,28,29
 1910 1350 1910 1350 1783 1350 c 128,-1,30
 1656 1350 1656 1350 1556 1301.5 c 128,-1,31
 1456 1253 1456 1253 1429 1126 c 2,32,-1
 1205 70 l 1,33,-1
 996 -20 l 1,34,-1
 986 -20 l 1,35,-1
 1229 1126 l 2,36,37
 1236 1159 1236 1159 1236 1186 c 0,38,39
 1236 1266 1236 1266 1178 1302 c 0,40,41
 1100 1350 1100 1350 973 1350 c 128,-1,42
 846 1350 846 1350 746 1301.5 c 128,-1,43
 646 1253 646 1253 619 1126 c 2,44,-1
 395 70 l 1,45,-1
 186 -20 l 1,0,-1
EndSplineSet
Validated: 1
EndChar

StartChar: N
Encoding: 78 78 49
Width: 1370
GlyphClass: 2
Flags: W
HStem: -20 21G<176 232.444 986 1042.44> 1350 180<755.433 1171.82>
VStem: 1236 204<1061.58 1289.62>
DStem2: 176 -20 375.87 -20 0.207912 0.978148<133.566 1366.5> 986 -20 1185.87 -20 0.207912 0.978148<133.566 1230.8>
LayerCount: 2
Fore
SplineSet
186 -20 m 1,0,-1
 176 -20 l 9,1,-1
 419 1126 l 2,2,3
 467 1351 467 1351 612 1434 c 0,4,5
 780 1530 780 1530 990 1530 c 0,6,7
 1199 1530 1199 1530 1338 1434 c 0,8,9
 1440 1364 1440 1364 1440 1224 c 0,10,11
 1440 1179 1440 1179 1429 1126 c 2,12,-1
 1205 70 l 17,13,-1
 996 -20 l 1,14,-1
 986 -20 l 9,15,-1
 1229 1126 l 2,16,17
 1236 1159 1236 1159 1236 1186 c 0,18,19
 1236 1266 1236 1266 1178 1302 c 0,20,21
 1100 1350 1100 1350 973 1350 c 128,-1,22
 846 1350 846 1350 746 1301.5 c 128,-1,23
 646 1253 646 1253 619 1126 c 2,24,-1
 395 70 l 17,25,-1
 186 -20 l 1,0,-1
EndSplineSet
Validated: 1
EndChar

StartChar: O
Encoding: 79 79 50
Width: 1330
GlyphClass: 2
Flags: W
HStem: -20 180<499.645 916.299> 1350 180<735.433 1151.82>
VStem: 231 204<220.06 534.719> 1216 204<975.281 1290.97>
DStem2: 156.127 -20 356.127 -20 0.207912 0.978148<395.321 1366.47> 966.127 -20 1166.13 -20 0.207912 0.978148<260.949 1230.77>
LayerCount: 2
Fore
SplineSet
699.5 160 m 128,-1,1
 826 160 826 160 925.5 208.5 c 128,-1,2
 1025 257 1025 257 1052 384 c 2,3,-1
 1209 1126 l 2,4,5
 1216 1159 1216 1159 1216 1186 c 0,6,7
 1216 1266 1216 1266 1158 1302 c 0,8,9
 1080 1350 1080 1350 953 1350 c 128,-1,10
 826 1350 826 1350 726 1301.5 c 128,-1,11
 626 1253 626 1253 599 1126 c 2,12,-1
 442 384 l 2,13,14
 435 352 435 352 435 324 c 0,15,16
 435 244 435 244 494 208 c 0,17,0
 573 160 573 160 699.5 160 c 128,-1,1
681.5 -20 m 128,-1,19
 471 -20 471 -20 334 76 c 0,20,21
 231 148 231 148 231 286 c 0,22,23
 231 331 231 331 242 384 c 2,24,-1
 399 1126 l 2,25,26
 447 1351 447 1351 592 1434 c 0,27,28
 760 1530 760 1530 970 1530 c 0,29,30
 1179 1530 1179 1530 1318 1434 c 0,31,32
 1420 1364 1420 1364 1420 1224 c 0,33,34
 1420 1179 1420 1179 1409 1126 c 2,35,-1
 1252 384 l 2,36,37
 1204 159 1204 159 1060 76 c 0,38,18
 892 -20 892 -20 681.5 -20 c 128,-1,19
EndSplineSet
Validated: 1
EndChar

StartChar: P
Encoding: 80 80 51
Width: 1210
GlyphClass: 2
Flags: W
HStem: -20 21G<196 252.444> 500 180<545 1016.05> 1330 180<683 1133.42>
VStem: 1202 203<1051.36 1268.27>
DStem2: 196 -20 395.87 -20 0.207912 0.978148<133.566 573.089 757.265 1421.75> 955.598 -20 1155.6 -20 0.207912 0.978148<791.865 1210.46>
LayerCount: 2
Fore
SplineSet
206 -20 m 1,0,-1
 196 -20 l 1,1,-1
 506 1440 l 1,2,-1
 669 1510 l 1,3,-1
 956 1510 l 2,4,5
 1164 1510 1164 1510 1292 1414 c 0,6,7
 1404 1329 1404 1329 1405 1191 c 0,8,9
 1405 1151 1405 1151 1395 1106 c 2,10,-1
 1352 904 l 2,11,12
 1304 680 1304 680 1159 596 c 0,13,14
 992 500 992 500 781 500 c 2,15,-1
 506 500 l 1,16,-1
 415 70 l 1,17,-1
 206 -20 l 1,0,-1
545 680 m 1,18,-1
 800 680 l 2,19,20
 927 680 927 680 1025 728 c 0,21,22
 1125 776 1125 776 1152 904 c 2,23,-1
 1195 1106 l 2,24,25
 1202 1138 1202 1138 1202 1166 c 0,26,27
 1202 1247 1202 1247 1142 1282 c 0,28,29
 1064 1330 1064 1330 938 1330 c 2,30,-1
 683 1330 l 1,31,-1
 545 680 l 1,18,-1
EndSplineSet
Validated: 1
EndChar

StartChar: Q
Encoding: 81 81 52
Width: 1330
GlyphClass: 2
Flags: W
HStem: -40 21G<892.612 958.747> -20 180<500.105 799.94> 1350 180<735.433 1152.56>
VStem: 231 204<218.439 534.719> 1216 204<975.281 1292.48>
DStem2: 151.876 -40 351.876 -40 0.207912 0.978148<415.768 1386.92> 865 540 661 457 0.436318 -0.899793<0 305.01 478.748 538.023> 961.159 -40 1161.88 -40 0.207912 0.978148<308.869 1251.37>
LayerCount: 2
Fore
SplineSet
661 457 m 1,0,-1
 855 540 l 1,1,-1
 865 540 l 1,2,-1
 999 266 l 1,3,4
 1037 313 1037 313 1052 384 c 2,5,-1
 1209 1126 l 2,6,7
 1216 1159 1216 1159 1216 1186 c 0,8,9
 1216 1266 1216 1266 1158 1302 c 0,10,11
 1080 1350 1080 1350 953 1350 c 128,-1,12
 826 1350 826 1350 726 1301.5 c 128,-1,13
 626 1253 626 1253 599 1126 c 2,14,-1
 442 384 l 2,15,16
 435 352 435 352 435 324 c 0,17,18
 435 244 435 244 494 208 c 0,19,20
 574 160 574 160 700 160 c 0,21,22
 753 160 753 160 801 169 c 1,23,-1
 661 457 l 1,0,-1
682 -20 m 0,24,25
 472 -20 472 -20 335 76 c 0,26,27
 231 148 231 148 231 287 c 0,28,29
 231 332 231 332 242 384 c 2,30,-1
 399 1126 l 2,31,32
 447 1351 447 1351 592 1434 c 0,33,34
 760 1530 760 1530 970 1530 c 0,35,36
 1182 1530 1182 1530 1318 1434 c 0,37,38
 1420 1362 1420 1362 1420 1224 c 0,39,40
 1420 1179 1420 1179 1409 1126 c 2,41,-1
 1252 384 l 2,42,43
 1213 199 1213 199 1078 101 c 1,44,-1
 1106 43 l 1,45,-1
 912 -40 l 1,46,-1
 902 -40 l 1,47,-1
 879 9 l 1,48,49
 777 -20 777 -20 682 -20 c 0,24,25
EndSplineSet
Validated: 1
EndChar

StartChar: R
Encoding: 82 82 53
Width: 1294
GlyphClass: 2
Flags: W
HStem: -20 21G<196 252.444 1021.38 1090.83> 500 180<545 756> 1330 180<683 1133.42>
VStem: 1202 203<941.875 1271.45>
DStem2: 196 -20 395.87 -20 0.207912 0.978148<133.566 573.089 757.265 1421.75> 972 528 756 500 0.468824 -0.883292<0 512.173> 955.598 -20 1155.6 -20 0.207912 0.978148<792.025 1210.46>
LayerCount: 2
Fore
SplineSet
545 680 m 1,0,-1
 800 680 l 2,1,2
 927 680 927 680 1025 728 c 0,3,4
 1125 776 1125 776 1152 904 c 2,5,-1
 1195 1106 l 2,6,7
 1202 1138 1202 1138 1202 1166 c 0,8,9
 1202 1247 1202 1247 1142 1282 c 0,10,11
 1064 1330 1064 1330 938 1330 c 2,12,-1
 683 1330 l 1,13,-1
 545 680 l 1,0,-1
206 -20 m 1,14,-1
 196 -20 l 1,15,-1
 506 1440 l 1,16,-1
 669 1510 l 1,17,-1
 956 1510 l 2,18,19
 1164 1510 1164 1510 1292 1414 c 0,20,21
 1405 1328 1405 1328 1405 1191 c 0,22,23
 1405 1151 1405 1151 1395 1106 c 2,24,-1
 1352 904 l 2,25,26
 1307 691 1307 691 1159 596 c 0,27,28
 1092 553 1092 553 972 528 c 1,29,-1
 1230 57 l 1,30,-1
 1042 -20 l 1,31,-1
 1032 -20 l 1,32,-1
 756 500 l 1,33,-1
 506 500 l 1,34,-1
 415 70 l 1,35,-1
 206 -20 l 1,14,-1
EndSplineSet
Validated: 1
EndChar

StartChar: T
Encoding: 84 84 54
Width: 1070
GlyphClass: 2
Flags: W
HStem: -20 21G<431 487.444> 1330 180<411 718 918 1263>
DStem2: 431 -20 630.87 -20 0.207912 0.978148<133.566 1380.17>
LayerCount: 2
Fore
SplineSet
431 -20 m 1,0,-1
 718 1330 l 1,1,-1
 293 1330 l 1,2,-1
 295 1340 l 1,3,-1
 411 1510 l 1,4,-1
 1381 1510 l 1,5,-1
 1379 1500 l 1,6,-1
 1263 1330 l 1,7,-1
 918 1330 l 1,8,-1
 650 70 l 1,9,-1
 441 -20 l 1,10,-1
 431 -20 l 1,0,-1
EndSplineSet
Validated: 1
EndChar

StartChar: U
Encoding: 85 85 55
Width: 1370
GlyphClass: 2
Flags: W
HStem: -20 180<519.224 935.526> 1510 20G<648.556 705 1458.56 1515>
VStem: 251 204<221.125 448.42>
DStem2: 176.127 -20 376.127 -20 0.207912 0.978148<395.291 1492.52> 986.127 -20 1186.13 -20 0.207912 0.978148<260.898 1492.52>
LayerCount: 2
Fore
SplineSet
700.5 -20 m 128,-1,1
 490 -20 490 -20 354 76 c 0,2,3
 251 148 251 148 251 286 c 0,4,5
 251 331 251 331 262 384 c 2,6,-1
 486 1440 l 17,7,-1
 695 1530 l 1,8,-1
 705 1530 l 9,9,-1
 462 384 l 2,10,11
 455 351 455 351 455 324 c 0,12,13
 455 245 455 245 514 208 c 0,14,15
 592 160 592 160 718.5 160 c 128,-1,16
 845 160 845 160 945 208.5 c 128,-1,17
 1045 257 1045 257 1072 384 c 2,18,-1
 1296 1440 l 17,19,-1
 1505 1530 l 1,20,-1
 1515 1530 l 9,21,-1
 1272 384 l 2,22,23
 1224 159 1224 159 1079 76 c 0,24,0
 911 -20 911 -20 700.5 -20 c 128,-1,1
EndSplineSet
Validated: 1
EndChar

StartChar: V
Encoding: 86 86 56
Width: 1233
GlyphClass: 2
Flags: W
HStem: -20 21G<522.154 581.4> 1510 20G<439.784 498.885 1374.21 1434.11>
DStem2: 496 1530 315 1456 0.140858 -0.99003<47.7669 1225.56> 671 317 709 55 0.508791 0.86089<0 1408.05>
LayerCount: 2
Fore
SplineSet
525 -20 m 1,0,-1
 315 1456 l 1,1,-1
 486 1530 l 1,2,-1
 496 1530 l 1,3,-1
 671 317 l 1,4,-1
 1386 1530 l 1,5,-1
 1396 1530 l 1,6,-1
 1537 1456 l 1,7,-1
 709 55 l 1,8,-1
 535 -20 l 1,9,-1
 525 -20 l 1,0,-1
EndSplineSet
Validated: 1
EndChar

StartChar: W
Encoding: 87 87 57
Width: 2180
GlyphClass: 2
Flags: W
HStem: -20 180<519.154 935.068 1329.4 1745.24> 1510 20G<648.556 705 1458.56 1515 2268.56 2325>
VStem: 251 204<221.125 448.42>
DStem2: 176.127 -20 376.127 -20 0.207912 0.978148<395.291 1492.52> 986.127 -20 1186.13 -20 0.207912 0.978148<395.291 1492.52> 1796.13 -20 1996.13 -20 0.207912 0.978148<260.898 1492.52>
LayerCount: 2
Fore
SplineSet
700 -20 m 128,-1,1
 490 -20 490 -20 354 76 c 0,2,3
 251 148 251 148 251 286 c 0,4,5
 251 331 251 331 262 384 c 2,6,-1
 486 1440 l 1,7,-1
 695 1530 l 1,8,-1
 705 1530 l 1,9,-1
 462 384 l 2,10,11
 455 351 455 351 455 324 c 0,12,13
 455 245 455 245 514 208 c 0,14,15
 592 160 592 160 718.5 160 c 128,-1,16
 845 160 845 160 945 208.5 c 128,-1,17
 1045 257 1045 257 1072 384 c 2,18,-1
 1296 1440 l 1,19,-1
 1505 1530 l 1,20,-1
 1515 1530 l 1,21,-1
 1272 384 l 2,22,23
 1265 351 1265 351 1265 324 c 0,24,25
 1265 244 1265 244 1324 208 c 0,26,27
 1402 160 1402 160 1528.5 160 c 128,-1,28
 1655 160 1655 160 1755 208.5 c 128,-1,29
 1855 257 1855 257 1882 384 c 2,30,-1
 2106 1440 l 1,31,-1
 2315 1530 l 1,32,-1
 2325 1530 l 1,33,-1
 2082 384 l 2,34,35
 2034 159 2034 159 1889 76 c 0,36,37
 1720 -20 1720 -20 1510 -20 c 0,38,39
 1297 -20 1297 -20 1173 76 c 0,40,41
 1151 93 1151 93 1134 113 c 1,42,43
 1108 93 1108 93 1078 76 c 0,44,0
 910 -20 910 -20 700 -20 c 128,-1,1
EndSplineSet
Validated: 1
EndChar

StartChar: X
Encoding: 88 88 58
Width: 1164
GlyphClass: 2
Flags: W
HStem: -20 21G<155.622 220.705 953.73 1018.57> 1510 20G<467.143 532.257 1263.39 1328.13>
DStem2: 52 54 204 -20 0.639569 0.768733<40.3283 831.211 1129.67 1920.04> 524 1530 350 1460 0.382131 -0.924108<0 657.773 942.892 1599.74>
LayerCount: 2
Fore
SplineSet
204 -20 m 1,0,-1
 194 -20 l 1,1,-1
 52 54 l 1,2,-1
 640 759 l 1,3,-1
 350 1460 l 1,4,-1
 514 1530 l 1,5,-1
 524 1530 l 1,6,-1
 775 922 l 1,7,-1
 1280 1530 l 1,8,-1
 1290 1530 l 1,9,-1
 1433 1455 l 1,10,-1
 846 749 l 1,11,-1
 1135 50 l 1,12,-1
 972 -20 l 1,13,-1
 962 -20 l 1,14,-1
 711 587 l 1,15,-1
 204 -20 l 1,0,-1
EndSplineSet
Validated: 19457
EndChar

StartChar: Y
Encoding: 89 89 59
Width: 1230
GlyphClass: 2
Flags: W
HStem: -20 21G<511 567.444> 1510 20G<588.556 645 1378.56 1435>
VStem: 287 204<672.913 898.295>
DStem2: 116.052 -20 316.052 -20 0.207912 0.978148<857.389 1492.54> 511 -20 710.87 -20 0.207912 0.978148<133.566 468.159> 906.052 -20 1106.05 -20 0.207912 0.978148<722.996 1492.54>
LayerCount: 2
Fore
SplineSet
521 -20 m 1,0,-1
 511 -20 l 1,1,-1
 608 438 l 1,2,3
 488 454 488 454 389 528 c 0,4,5
 287 605 287 605 287 741 c 0,6,7
 287 785 287 785 298 836 c 2,8,-1
 426 1440 l 1,9,-1
 635 1530 l 1,10,-1
 645 1530 l 1,11,-1
 498 836 l 2,12,13
 491 803 491 803 491 776 c 0,14,15
 491 696 491 696 550 660 c 0,16,17
 628 612 628 612 744.5 612 c 128,-1,18
 861 612 861 612 961 660.5 c 128,-1,19
 1061 709 1061 709 1088 836 c 2,20,-1
 1216 1440 l 1,21,-1
 1425 1530 l 1,22,-1
 1435 1530 l 1,23,-1
 1288 836 l 2,24,25
 1241 613 1241 613 1094 528 c 0,26,27
 964 453 964 453 808 438 c 1,28,-1
 730 70 l 1,29,-1
 521 -20 l 1,0,-1
EndSplineSet
Validated: 1
EndChar

StartChar: Z
Encoding: 90 90 60
Width: 1040
GlyphClass: 2
Flags: W
HStem: 0 180<378 920> 1330 180<471 980>
DStem2: 42 10 378 180 0.580479 0.814275<333.468 1619.33>
LayerCount: 2
Fore
SplineSet
40 0 m 1,0,-1
 42 10 l 1,1,-1
 980 1330 l 1,2,-1
 353 1330 l 1,3,-1
 355 1340 l 1,4,-1
 471 1510 l 1,5,-1
 1321 1510 l 1,6,-1
 1319 1500 l 1,7,-1
 378 180 l 1,8,-1
 1038 180 l 1,9,-1
 1036 170 l 1,10,-1
 920 0 l 1,11,-1
 40 0 l 1,0,-1
EndSplineSet
Validated: 1
EndChar

StartChar: bracketleft
Encoding: 91 91 61
Width: 880
GlyphClass: 2
Flags: W
HStem: -240 180<387 699> 1570 180<762 1084>
DStem2: 149 -240 348.74 -240 0.207912 0.978148<225.55 1892.08>
LayerCount: 2
Fore
SplineSet
149 -240 m 1,0,-1
 553 1660 l 1,1,-1
 762 1750 l 1,2,-1
 1202 1750 l 1,3,-1
 1200 1740 l 1,4,-1
 1084 1570 l 1,5,-1
 734 1570 l 1,6,-1
 387 -60 l 1,7,-1
 817 -60 l 1,8,-1
 815 -70 l 1,9,-1
 699 -240 l 1,10,-1
 149 -240 l 1,0,-1
EndSplineSet
Validated: 1
EndChar

StartChar: backslash
Encoding: 92 92 62
Width: 1001
GlyphClass: 2
Flags: W
VStem: 361 600
DStem2: 502 1710 361 1652 0.240562 -0.970634<22.3775 1908.03>
LayerCount: 2
Fore
SplineSet
830 -200 m 1,0,-1
 820 -200 l 1,1,-1
 361 1652 l 1,2,-1
 492 1710 l 1,3,-1
 502 1710 l 1,4,-1
 961 -142 l 1,5,-1
 830 -200 l 1,0,-1
EndSplineSet
Validated: 1
EndChar

StartChar: bracketright
Encoding: 93 93 63
Width: 880
GlyphClass: 2
Flags: W
HStem: -240 180<117 439> 1570 180<502 814>
DStem2: 428.74 -240 628.87 -240 0.207912 0.978148<184.021 1850.55>
LayerCount: 2
Fore
SplineSet
439 -240 m 1,0,-1
 -1 -240 l 1,1,-1
 1 -230 l 1,2,-1
 117 -60 l 1,3,-1
 467 -60 l 1,4,-1
 814 1570 l 1,5,-1
 384 1570 l 1,6,-1
 386 1580 l 1,7,-1
 502 1750 l 1,8,-1
 1052 1750 l 1,9,-1
 648 -150 l 1,10,-1
 439 -240 l 1,0,-1
EndSplineSet
Validated: 1
EndChar

StartChar: asciicircum
Encoding: 94 94 64
Width: 868
GlyphClass: 2
Flags: W
HStem: 1160 410
DStem2: 816 1570 730 1393 0.61072 -0.791846<87.6349 381.454>
LayerCount: 2
Fore
SplineSet
806 1570 m 1,0,-1
 816 1570 l 1,1,-1
 1079 1229 l 1,2,-1
 919 1160 l 1,3,-1
 909 1160 l 1,4,-1
 730 1393 l 1,5,-1
 459 1160 l 1,6,-1
 449 1160 l 1,7,-1
 313 1237 l 1,8,-1
 615 1488 l 1,9,-1
 806 1570 l 1,0,-1
EndSplineSet
Validated: 1
EndChar

StartChar: underscore
Encoding: 95 95 65
Width: 1364
GlyphClass: 2
Flags: W
HStem: -410 120<140 1075>
LayerCount: 2
Fore
SplineSet
63 -410 m 1,0,-1
 65 -400 l 1,1,-1
 140 -290 l 1,2,-1
 1152 -290 l 1,3,-1
 1150 -300 l 1,4,-1
 1075 -410 l 1,5,-1
 63 -410 l 1,0,-1
EndSplineSet
Validated: 1
EndChar

StartChar: grave
Encoding: 96 96 66
Width: 377
GlyphClass: 2
Flags: W
HStem: 1160 367
VStem: 362 223
DStem2: 505 1527 362 1470 0.261536 -0.965194<17.6163 321.098>
LayerCount: 2
Fore
SplineSet
495 1527 m 1,0,-1
 505 1527 l 1,1,-1
 585 1216 l 1,2,-1
 456 1160 l 1,3,-1
 446 1160 l 1,4,-1
 362 1470 l 1,5,-1
 495 1527 l 1,0,-1
EndSplineSet
Validated: 1
EndChar

StartChar: a
Encoding: 97 97 67
Width: 1060
GlyphClass: 2
Flags: W
HStem: -20 160<368.033 671.222> 585 160<440.62 752.83> 940 160<545 820.116>
VStem: 139 184<182.542 463.544> 866 185<681.797 896.402>
DStem2: 76.1559 -20 255.306 -20 0.207912 0.978148<340.519 603.215> 700.306 -20 875.783 -20 0.207912 0.978148<214.629 478.982 711.645 841.726>
LayerCount: 2
Fore
SplineSet
706 -20 m 1,0,-1
 696 -20 l 1,1,-1
 710 48 l 1,2,3
 612 -20 612 -20 486 -20 c 0,4,5
 329 -20 329 -20 225 62 c 0,6,7
 139 129 139 129 139 242 c 0,8,9
 139 278 139 278 148 318 c 2,10,-1
 167 407 l 2,11,12
 206 595 206 595 322 663 c 0,13,14
 460 745 460 745 618 745 c 0,15,16
 773 745 773 745 844 677 c 1,17,-1
 861 758 l 2,18,19
 866 784 866 784 866 806 c 0,20,21
 866 868 866 868 822 898 c 0,22,23
 762 940 762 940 665 940 c 2,24,-1
 440 940 l 1,25,-1
 442 950 l 1,26,-1
 545 1100 l 1,27,-1
 679 1100 l 2,28,29
 851 1100 851 1100 965 1018 c 0,30,31
 1051 956 1051 956 1051 842 c 0,32,33
 1051 805 1051 805 1042 762 c 2,34,-1
 893 61 l 1,35,-1
 706 -20 l 1,0,-1
512.5 140 m 128,-1,37
 598 140 598 140 675 181.5 c 128,-1,38
 752 223 752 223 773 322 c 2,39,-1
 791 403 l 2,40,41
 796 429 796 429 796 450 c 0,42,43
 796 513 796 513 752 544 c 0,44,45
 693 585 693 585 607 585 c 128,-1,46
 521 585 521 585 444 543.5 c 128,-1,47
 367 502 367 502 346 403 c 2,48,-1
 328 322 l 2,49,50
 323 296 323 296 323 275 c 0,51,52
 323 214 323 214 367 182 c 0,53,36
 427 140 427 140 512.5 140 c 128,-1,37
EndSplineSet
Validated: 1
EndChar

StartChar: b
Encoding: 98 98 68
Width: 1170
GlyphClass: 2
Flags: W
HStem: -20 160<467.959 804.187> 960 160<623.748 955.069> 1510 20G<628.827 685>
VStem: 239 184<183.629 481.461> 1000 184<607.5 917.029>
DStem2: 176.156 -20 355.306 -20 0.207912 0.978148<340.519 988.17 1132.18 1501.73> 825.306 -20 1006.16 -20 0.207912 0.978148<216.827 863.16>
LayerCount: 2
Fore
SplineSet
611 -20 m 128,-1,1
 439 -20 439 -20 325 62 c 0,2,3
 239 124 239 124 239 238 c 0,4,5
 239 275 239 275 248 318 c 2,6,-1
 488 1449 l 1,7,-1
 675 1530 l 1,8,-1
 685 1530 l 1,9,-1
 583 1051 l 1,10,11
 679 1120 679 1120 823 1120 c 0,12,13
 995 1120 995 1120 1099 1038 c 0,14,15
 1184 970 1184 970 1184 857 c 0,16,17
 1184 822 1184 822 1176 782 c 2,18,-1
 1078 318 l 2,19,20
 1038 131 1038 131 922 62 c 0,21,0
 783 -20 783 -20 611 -20 c 128,-1,1
625 140 m 128,-1,23
 723 140 723 140 800 181.5 c 128,-1,24
 877 223 877 223 898 322 c 2,25,-1
 995 778 l 2,26,27
 1000 804 1000 804 1000 826 c 0,28,29
 1000 888 1000 888 956 918 c 0,30,31
 896 960 896 960 798.5 960 c 128,-1,32
 701 960 701 960 623.5 918.5 c 128,-1,33
 546 877 546 877 525 778 c 2,34,-1
 428 322 l 2,35,36
 423 296 423 296 423 275 c 0,37,38
 423 214 423 214 467 182 c 0,39,22
 527 140 527 140 625 140 c 128,-1,23
EndSplineSet
Validated: 1
EndChar

StartChar: c
Encoding: 99 99 69
Width: 1070
GlyphClass: 2
Flags: W
HStem: -20 160<447.959 784.473> 960 160<598.722 936.028>
VStem: 219 184<183.629 485.312> 980 175<802.588 916.965>
DStem2: 156.156 -20 335.306 -20 0.207912 0.978148<340.519 986.008>
LayerCount: 2
Fore
SplineSet
591 -20 m 128,-1,1
 419 -20 419 -20 305 62 c 0,2,3
 219 124 219 124 219 238 c 0,4,5
 219 275 219 275 228 318 c 2,6,-1
 326 782 l 2,7,8
 365 969 365 969 482 1038 c 0,9,10
 621 1120 621 1120 783 1120 c 0,11,12
 973 1120 973 1120 1079 1038 c 0,13,14
 1155 979 1155 979 1155 862 c 0,15,16
 1155 838 1155 838 1152 811 c 1,17,-1
 976 734 l 1,18,-1
 966 734 l 1,19,-1
 975 778 l 2,20,21
 980 803 980 803 980 825 c 0,22,23
 980 888 980 888 936 918 c 0,24,25
 876 960 876 960 778.5 960 c 128,-1,26
 681 960 681 960 603.5 918.5 c 128,-1,27
 526 877 526 877 505 778 c 2,28,-1
 408 322 l 2,29,30
 403 296 403 296 403 275 c 0,31,32
 403 214 403 214 447 182 c 0,33,34
 507 140 507 140 605 140 c 128,-1,35
 703 140 703 140 781 182 c 0,36,37
 851 219 851 219 875 307 c 1,38,-1
 1062 388 l 1,39,-1
 1072 388 l 1,40,-1
 1058 318 l 2,41,42
 1021 132 1021 132 902 62 c 0,43,0
 763 -20 763 -20 591 -20 c 128,-1,1
EndSplineSet
Validated: 1
EndChar

StartChar: d
Encoding: 100 100 70
Width: 1170
GlyphClass: 2
Flags: W
HStem: -20 160<447.782 784.187> 960 160<599.548 937.058> 1510 20G<1258.83 1315>
VStem: 220 183<183.002 492.5>
DStem2: 156.156 -20 335.306 -20 0.207912 0.978148<340.519 986.112> 805.306 -20 986.156 -20 0.207912 0.978148<216.827 863.16 1094.94 1501.91>
LayerCount: 2
Fore
SplineSet
591 -20 m 0,0,1
 409 -20 409 -20 305 62 c 0,2,3
 220 130 220 130 220 243 c 0,4,5
 220 278 220 278 228 318 c 2,6,-1
 326 782 l 2,7,8
 366 969 366 969 482 1038 c 0,9,10
 621 1120 621 1120 793 1120 c 0,11,12
 967 1120 967 1120 1033 1051 c 1,13,-1
 1118 1449 l 1,14,-1
 1305 1530 l 1,15,-1
 1315 1530 l 1,16,-1
 1058 318 l 2,17,18
 1018 131 1018 131 902 62 c 0,19,20
 763 -20 763 -20 591 -20 c 0,0,1
605 140 m 128,-1,22
 703 140 703 140 780 181.5 c 128,-1,23
 857 223 857 223 878 322 c 2,24,-1
 975 778 l 2,25,26
 980 804 980 804 980 826 c 0,27,28
 980 888 980 888 936 918 c 0,29,30
 876 960 876 960 778.5 960 c 128,-1,31
 681 960 681 960 603.5 918.5 c 128,-1,32
 526 877 526 877 505 778 c 2,33,-1
 408 322 l 2,34,35
 403 296 403 296 403 275 c 0,36,37
 403 214 403 214 447 182 c 0,38,21
 507 140 507 140 605 140 c 128,-1,22
EndSplineSet
Validated: 1
EndChar

StartChar: e
Encoding: 101 101 71
Width: 1150
GlyphClass: 2
Flags: W
HStem: -20 160<447.782 784.473> 960 160<599.548 935.541>
VStem: 220 181<183.002 339.914> 980 185<734 917.055>
DStem2: 156.156 -20 335.77 -20 0.207912 0.978148<577.14 986.112> 448 508 411 333 0.917213 0.398398<0 565.154>
LayerCount: 2
Fore
SplineSet
591 -20 m 0,0,1
 409 -20 409 -20 305 62 c 0,2,3
 220 130 220 130 220 243 c 0,4,5
 220 278 220 278 228 318 c 2,6,-1
 326 782 l 2,7,8
 366 969 366 969 482 1038 c 0,9,10
 621 1120 621 1120 793 1120 c 128,-1,11
 965 1120 965 1120 1079 1038 c 0,12,13
 1165 976 1165 976 1165 861 c 0,14,15
 1165 824 1165 824 1156 782 c 2,16,-1
 1127 644 l 1,17,-1
 411 333 l 1,18,-1
 408 322 l 2,19,20
 401 295 401 295 401 271 c 0,21,22
 401 214 401 214 447 182 c 0,23,24
 507 140 507 140 605 140 c 0,25,26
 704 140 704 140 781 182 c 0,27,28
 851 220 851 220 875 307 c 1,29,-1
 1062 388 l 1,30,-1
 1072 388 l 1,31,-1
 1058 318 l 2,32,33
 1021 132 1021 132 902 62 c 0,34,35
 763 -20 763 -20 591 -20 c 0,0,1
448 508 m 1,36,-1
 966 734 l 1,37,-1
 975 778 l 2,38,39
 980 804 980 804 980 826 c 0,40,41
 980 888 980 888 936 918 c 0,42,43
 876 960 876 960 778.5 960 c 128,-1,44
 681 960 681 960 603.5 918.5 c 128,-1,45
 526 877 526 877 505 778 c 2,46,-1
 448 508 l 1,36,-1
EndSplineSet
Validated: 1
EndChar

StartChar: f
Encoding: 102 102 72
Width: 780
GlyphClass: 2
Flags: W
HStem: -20 21G<176 232.173> 740 160<551 817> 1350 160<703.384 986>
DStem2: 176 -20 355.783 -20 0.207912 0.978148<120.189 814.29 977.863 1384.88>
LayerCount: 2
Fore
SplineSet
186 -20 m 1,0,-1
 176 -20 l 1,1,-1
 429 1172 l 2,2,3
 469 1359 469 1359 585 1428 c 0,4,5
 724 1510 724 1510 896 1510 c 2,6,-1
 1091 1510 l 1,7,-1
 1089 1500 l 1,8,-1
 986 1350 l 1,9,-1
 882 1350 l 2,10,11
 784 1350 784 1350 706 1308 c 0,12,13
 629 1267 629 1267 608 1168 c 2,14,-1
 551 900 l 1,15,-1
 922 900 l 1,16,-1
 920 890 l 1,17,-1
 817 740 l 1,18,-1
 517 740 l 1,19,-1
 373 61 l 1,20,-1
 186 -20 l 1,0,-1
EndSplineSet
Validated: 1
EndChar

StartChar: g
Encoding: 103 103 73
Width: 1170
GlyphClass: 2
Flags: W
HStem: -410 160<318 702.676> -20 160<446.2 777.03> 960 160<599.548 935.541>
VStem: 220 183<183.002 492.5> 980 185<618 916.402>
DStem2: 73.2588 -410 252.409 -410 0.207912 0.978148<739.232 1384.82> 723.306 -410 903.156 -410 0.207912 0.978148<215.015 469.074 613.156 1261.69>
LayerCount: 2
Fore
SplineSet
213 -410 m 1,0,-1
 215 -400 l 1,1,-1
 318 -250 l 1,2,-1
 522 -250 l 2,3,4
 620 -250 620 -250 698 -208 c 0,5,6
 776 -167 776 -167 796 -68 c 2,7,-1
 820 49 l 1,8,9
 716 -20 716 -20 581 -20 c 0,10,11
 409 -20 409 -20 305 62 c 0,12,13
 220 130 220 130 220 243 c 0,14,15
 220 278 220 278 228 318 c 2,16,-1
 326 782 l 2,17,18
 366 969 366 969 482 1038 c 0,19,20
 621 1120 621 1120 793 1120 c 128,-1,21
 965 1120 965 1120 1079 1038 c 0,22,23
 1165 976 1165 976 1165 862 c 0,24,25
 1165 825 1165 825 1156 782 c 2,26,-1
 975 -72 l 2,27,28
 936 -256 936 -256 818 -328 c 0,29,30
 685 -410 685 -410 508 -410 c 2,31,-1
 213 -410 l 1,0,-1
605 140 m 128,-1,33
 703 140 703 140 780 181.5 c 128,-1,34
 857 223 857 223 878 322 c 2,35,-1
 975 778 l 2,36,37
 980 804 980 804 980 826 c 0,38,39
 980 888 980 888 936 918 c 0,40,41
 876 960 876 960 778.5 960 c 128,-1,42
 681 960 681 960 603.5 918.5 c 128,-1,43
 526 877 526 877 505 778 c 2,44,-1
 408 322 l 2,45,46
 403 296 403 296 403 275 c 0,47,48
 403 214 403 214 447 182 c 0,49,32
 507 140 507 140 605 140 c 128,-1,33
EndSplineSet
Validated: 1
EndChar

StartChar: h
Encoding: 104 104 74
Width: 1210
GlyphClass: 2
Flags: W
HStem: -20 21G<196 252.173 846 902.173> 960 160<644.675 975.541> 1510 20G<648.827 705>
VStem: 1020 185<614.461 916.402>
DStem2: 196 -20 375.783 -20 0.207912 0.978148<120.189 988.203 1132.22 1501.77> 846 -20 1025.78 -20 0.207912 0.978148<120.189 863.016>
LayerCount: 2
Fore
SplineSet
206 -20 m 1,0,-1
 196 -20 l 1,1,-1
 508 1449 l 1,2,-1
 695 1530 l 1,3,-1
 705 1530 l 1,4,-1
 603 1051 l 1,5,6
 706 1120 706 1120 833 1120 c 0,7,8
 1005 1120 1005 1120 1119 1038 c 0,9,10
 1205 976 1205 976 1205 862 c 0,11,12
 1205 825 1205 825 1196 782 c 2,13,-1
 1043 61 l 1,14,-1
 856 -20 l 1,15,-1
 846 -20 l 1,16,-1
 1015 778 l 2,17,18
 1020 804 1020 804 1020 826 c 0,19,20
 1020 888 1020 888 976 918 c 0,21,22
 916 960 916 960 818.5 960 c 128,-1,23
 721 960 721 960 643.5 918.5 c 128,-1,24
 566 877 566 877 545 778 c 2,25,-1
 393 61 l 1,26,-1
 206 -20 l 1,0,-1
EndSplineSet
Validated: 1
EndChar

StartChar: i
Encoding: 105 105 75
Width: 580
GlyphClass: 2
Flags: W
HStem: -20 21G<196 252.173> 1100 20G<561.827 618> 1220 245<499.901 650.42>
VStem: 452 246<1267.59 1416.76>
DStem2: 196 -20 375.783 -20 0.207912 0.978148<120.189 1082.64>
LayerCount: 2
Fore
SplineSet
601 1465 m 128,-1,1
 651 1465 651 1465 679 1429 c 0,2,3
 698 1405 698 1405 698 1370 c 0,4,5
 698 1356 698 1356 695 1342 c 0,6,7
 684 1292 684 1292 641.5 1256 c 128,-1,8
 599 1220 599 1220 549 1220 c 0,9,10
 497 1220 497 1220 471 1256 c 0,11,12
 452 1282 452 1282 452 1315 c 0,13,14
 452 1328 452 1328 455 1342 c 0,15,16
 466 1392 466 1392 508.5 1428.5 c 128,-1,0
 551 1465 551 1465 601 1465 c 128,-1,1
196 -20 m 1,17,-1
 421 1039 l 1,18,-1
 608 1120 l 1,19,-1
 618 1120 l 1,20,-1
 393 61 l 1,21,-1
 206 -20 l 1,22,-1
 196 -20 l 1,17,-1
EndSplineSet
Validated: 1
EndChar

StartChar: j
Encoding: 106 106 76
Width: 580
GlyphClass: 2
Flags: W
HStem: -410 21G<-120 -26> 1100 20G<561.827 618> 1220 245<499.901 650.42>
VStem: 452 246<1267.59 1416.76>
DStem2: 113.306 -410 293.156 -410 0.207912 0.978148<216.619 1481.31>
LayerCount: 2
Fore
SplineSet
601 1465 m 128,-1,1
 651 1465 651 1465 679 1429 c 0,2,3
 698 1405 698 1405 698 1370 c 0,4,5
 698 1356 698 1356 695 1342 c 0,6,7
 684 1292 684 1292 641.5 1256 c 128,-1,8
 599 1220 599 1220 549 1220 c 0,9,10
 497 1220 497 1220 471 1256 c 0,11,12
 452 1282 452 1282 452 1315 c 0,13,14
 452 1328 452 1328 455 1342 c 0,15,16
 466 1392 466 1392 508.5 1428.5 c 128,-1,0
 551 1465 551 1465 601 1465 c 128,-1,1
-122 -410 m 1,17,-1
 -120 -400 l 1,18,-1
 -13 -243 l 1,19,20
 42 -233 42 -233 88 -208 c 0,21,22
 165 -167 165 -167 186 -68 c 2,23,-1
 421 1039 l 17,24,-1
 608 1120 l 1,25,-1
 618 1120 l 9,26,-1
 365 -72 l 2,27,28
 325 -259 325 -259 209 -328 c 0,29,30
 70 -410 70 -410 -122 -410 c 1,17,-1
EndSplineSet
Validated: 1
EndChar

StartChar: k
Encoding: 107 107 77
Width: 1170
GlyphClass: 2
Flags: W
HStem: -20 21G<196 252.173 826 882.173> 1100 20G<1028.61 1101.73> 1510 20G<648.827 705>
VStem: 928 184<380.629 577.003>
DStem2: 196 -20 375.783 -20 0.207912 0.978148<120.189 640.409 815.268 1501.77> 537 741 825 774 0.807591 0.589743<252.048 642.652> 826 -20 1005.78 -20 0.207912 0.978148<120.189 515.416>
LayerCount: 2
Fore
SplineSet
206 -20 m 1,0,-1
 196 -20 l 1,1,-1
 508 1449 l 1,2,-1
 695 1530 l 1,3,-1
 705 1530 l 1,4,-1
 537 741 l 1,5,-1
 1056 1120 l 1,6,-1
 1066 1120 l 1,7,-1
 1200 1045 l 1,8,-1
 825 774 l 1,9,10
 948 760 948 760 1026 698 c 0,11,12
 1112 630 1112 630 1112 517 c 0,13,14
 1112 480 1112 480 1104 442 c 2,15,-1
 1023 61 l 1,16,-1
 836 -20 l 1,17,-1
 826 -20 l 1,18,-1
 923 438 l 2,19,20
 928 462 928 462 928 486 c 0,21,22
 928 548 928 548 884 578 c 0,23,24
 824 620 824 620 736.5 620 c 128,-1,25
 649 620 649 620 572 578 c 0,26,27
 494 537 494 537 473 438 c 2,28,-1
 393 61 l 1,29,-1
 206 -20 l 1,0,-1
EndSplineSet
Validated: 1
EndChar

StartChar: l
Encoding: 108 108 78
Width: 580
GlyphClass: 2
Flags: W
HStem: -20 21G<196 252.173> 1510 20G<648.827 705>
VStem: 196 509
DStem2: 196 -20 375.783 -20 0.207912 0.978148<120.189 1501.77>
LayerCount: 2
Fore
SplineSet
196 -20 m 1,0,-1
 508 1449 l 1,1,-1
 695 1530 l 1,2,-1
 705 1530 l 1,3,-1
 393 61 l 1,4,-1
 206 -20 l 1,5,-1
 196 -20 l 1,0,-1
EndSplineSet
Validated: 1
EndChar

StartChar: m
Encoding: 109 109 79
Width: 1840
GlyphClass: 2
Flags: W
HStem: -20 21G<176 232.173 826 882.173 1476 1532.17> 960 160<619.548 956.895 1270.01 1605.62>
VStem: 1650 185<614.461 916.402>
DStem2: 176 -20 355.783 -20 0.207912 0.978148<120.189 986.144> 826 -20 1005.78 -20 0.207912 0.978148<120.189 863.016> 1476 -20 1655.78 -20 0.207912 0.978148<120.189 863.016>
LayerCount: 2
Fore
SplineSet
186 -20 m 1,0,-1
 176 -20 l 1,1,-1
 346 782 l 2,2,3
 386 969 386 969 502 1038 c 0,4,5
 641 1120 641 1120 813 1120 c 0,6,7
 977 1120 977 1120 1089 1038 c 0,8,9
 1104 1027 1104 1027 1115 1013 c 1,10,11
 1134 1026 1134 1026 1153 1038 c 0,12,13
 1292 1120 1292 1120 1463.5 1120 c 128,-1,14
 1635 1120 1635 1120 1749 1038 c 0,15,16
 1835 976 1835 976 1835 862 c 0,17,18
 1835 825 1835 825 1826 782 c 2,19,-1
 1673 61 l 1,20,-1
 1486 -20 l 1,21,-1
 1476 -20 l 1,22,-1
 1645 778 l 2,23,24
 1650 804 1650 804 1650 826 c 0,25,26
 1650 888 1650 888 1606 918 c 0,27,28
 1546 960 1546 960 1448.5 960 c 128,-1,29
 1351 960 1351 960 1273.5 918.5 c 128,-1,30
 1196 877 1196 877 1175 778 c 2,31,-1
 1023 61 l 1,32,-1
 836 -20 l 1,33,-1
 826 -20 l 1,34,-1
 995 778 l 2,35,36
 1000 804 1000 804 1000 826 c 0,37,38
 1000 888 1000 888 956 918 c 0,39,40
 896 960 896 960 798.5 960 c 128,-1,41
 701 960 701 960 623.5 918.5 c 128,-1,42
 546 877 546 877 525 778 c 2,43,-1
 373 61 l 1,44,-1
 186 -20 l 1,0,-1
EndSplineSet
Validated: 1
EndChar

StartChar: n
Encoding: 110 110 80
Width: 1190
GlyphClass: 2
Flags: W
HStem: -20 21G<176 232.173 826 882.173> 960 160<619.548 955.541>
VStem: 1000 185<614.461 916.402>
DStem2: 176 -20 355.783 -20 0.207912 0.978148<120.189 986.144> 826 -20 1005.78 -20 0.207912 0.978148<120.189 863.016>
LayerCount: 2
Fore
SplineSet
186 -20 m 1,0,-1
 176 -20 l 9,1,-1
 346 782 l 2,2,3
 386 969 386 969 502 1038 c 0,4,5
 641 1120 641 1120 813 1120 c 128,-1,6
 985 1120 985 1120 1099 1038 c 0,7,8
 1185 976 1185 976 1185 862 c 0,9,10
 1185 825 1185 825 1176 782 c 2,11,-1
 1023 61 l 17,12,-1
 836 -20 l 1,13,-1
 826 -20 l 9,14,-1
 995 778 l 2,15,16
 1000 804 1000 804 1000 826 c 0,17,18
 1000 888 1000 888 956 918 c 0,19,20
 896 960 896 960 798.5 960 c 128,-1,21
 701 960 701 960 623.5 918.5 c 128,-1,22
 546 877 546 877 525 778 c 2,23,-1
 373 61 l 17,24,-1
 186 -20 l 1,0,-1
EndSplineSet
Validated: 1
EndChar

StartChar: o
Encoding: 111 111 81
Width: 1150
GlyphClass: 2
Flags: W
HStem: -20 160<447.782 784.187> 960 160<599.548 935.541>
VStem: 220 183<183.002 492.5> 980 185<614.688 916.402>
DStem2: 156.156 -20 335.306 -20 0.207912 0.978148<340.519 986.112> 805.306 -20 986.156 -20 0.207912 0.978148<216.931 863.16>
LayerCount: 2
Fore
SplineSet
605 140 m 128,-1,1
 703 140 703 140 780 181.5 c 128,-1,2
 857 223 857 223 878 322 c 2,3,-1
 975 778 l 2,4,5
 980 804 980 804 980 826 c 0,6,7
 980 888 980 888 936 918 c 0,8,9
 876 960 876 960 778.5 960 c 128,-1,10
 681 960 681 960 603.5 918.5 c 128,-1,11
 526 877 526 877 505 778 c 2,12,-1
 408 322 l 2,13,14
 403 296 403 296 403 275 c 0,15,16
 403 214 403 214 447 182 c 0,17,0
 507 140 507 140 605 140 c 128,-1,1
591 -20 m 0,18,19
 409 -20 409 -20 305 62 c 0,20,21
 220 130 220 130 220 243 c 0,22,23
 220 278 220 278 228 318 c 2,24,-1
 326 782 l 2,25,26
 366 969 366 969 482 1038 c 0,27,28
 621 1120 621 1120 793 1120 c 128,-1,29
 965 1120 965 1120 1079 1038 c 0,30,31
 1165 976 1165 976 1165 862 c 0,32,33
 1165 825 1165 825 1156 782 c 2,34,-1
 1058 318 l 2,35,36
 1019 131 1019 131 902 62 c 0,37,38
 763 -20 763 -20 591 -20 c 0,18,19
EndSplineSet
Validated: 1
EndChar

StartChar: p
Encoding: 112 112 82
Width: 1170
GlyphClass: 2
Flags: W
HStem: -430 21G<89 145.173> -20 160<466.317 804.187> 960 160<619.548 955.541>
VStem: 1000 185<614.688 916.402>
DStem2: 89 -430 268.783 -430 0.207912 0.978148<120.189 526.956 759.68 1405.27> 738.157 -430 919.008 -430 0.207912 0.978148<635.987 1282.32>
LayerCount: 2
Fore
SplineSet
99 -430 m 1,0,-1
 89 -430 l 1,1,-1
 346 782 l 2,2,3
 386 969 386 969 502 1038 c 0,4,5
 641 1120 641 1120 813 1120 c 128,-1,6
 985 1120 985 1120 1099 1038 c 0,7,8
 1185 976 1185 976 1185 862 c 0,9,10
 1185 825 1185 825 1176 782 c 2,11,-1
 1078 318 l 2,12,13
 1038 131 1038 131 922 62 c 0,14,15
 783 -20 783 -20 611 -20 c 0,16,17
 437 -20 437 -20 370 49 c 1,18,-1
 286 -349 l 1,19,-1
 99 -430 l 1,0,-1
799 960 m 0,20,21
 701 960 701 960 623.5 918.5 c 128,-1,22
 546 877 546 877 525 778 c 2,23,-1
 428 322 l 2,24,25
 423 296 423 296 423 275 c 0,26,27
 423 214 423 214 467 182 c 0,28,29
 527 140 527 140 625 140 c 128,-1,30
 723 140 723 140 800 181.5 c 128,-1,31
 877 223 877 223 898 322 c 2,32,-1
 995 778 l 2,33,34
 1000 804 1000 804 1000 826 c 0,35,36
 1000 888 1000 888 956 918 c 0,37,38
 896 960 896 960 799 960 c 0,20,21
EndSplineSet
Validated: 1
EndChar

StartChar: q
Encoding: 113 113 83
Width: 1170
GlyphClass: 2
Flags: W
HStem: -430 21G<719 775.173> -20 160<446.2 779.523> 960 160<599.548 935.541>
VStem: 220 183<183.002 492.5> 980 185<618.539 916.402>
DStem2: 69.0077 -430 248.157 -430 0.207912 0.978148<759.678 1405.17> 719 -430 898.783 -430 0.207912 0.978148<120.189 489.532 633.614 1282.14>
LayerCount: 2
Fore
SplineSet
729 -430 m 1,0,-1
 719 -430 l 1,1,-1
 820 49 l 1,2,3
 724 -20 724 -20 581 -20 c 0,4,5
 409 -20 409 -20 305 62 c 0,6,7
 220 130 220 130 220 243 c 0,8,9
 220 278 220 278 228 318 c 2,10,-1
 326 782 l 2,11,12
 365 969 365 969 482 1038 c 0,13,14
 621 1120 621 1120 793 1120 c 128,-1,15
 965 1120 965 1120 1079 1038 c 0,16,17
 1165 976 1165 976 1165 862 c 0,18,19
 1165 825 1165 825 1156 782 c 2,20,-1
 916 -349 l 1,21,-1
 729 -430 l 1,0,-1
779 960 m 0,22,23
 681 960 681 960 603.5 918.5 c 128,-1,24
 526 877 526 877 505 778 c 2,25,-1
 408 322 l 2,26,27
 403 296 403 296 403 275 c 0,28,29
 403 214 403 214 447 182 c 0,30,31
 507 140 507 140 605 140 c 128,-1,32
 703 140 703 140 780 181.5 c 128,-1,33
 857 223 857 223 878 322 c 2,34,-1
 975 778 l 2,35,36
 980 804 980 804 980 826 c 0,37,38
 980 888 980 888 936 918 c 0,39,40
 876 960 876 960 779 960 c 0,22,23
EndSplineSet
Validated: 1
EndChar

StartChar: r
Encoding: 114 114 84
Width: 780
GlyphClass: 2
Flags: W
HStem: -20 21G<176 232.173> 940 160<616.384 899>
DStem2: 176 -20 355.783 -20 0.207912 0.978148<120.189 965.75>
LayerCount: 2
Fore
SplineSet
186 -20 m 1,0,-1
 176 -20 l 9,1,-1
 342 762 l 2,2,3
 382 949 382 949 498 1018 c 0,4,5
 637 1100 637 1100 809 1100 c 2,6,-1
 1004 1100 l 1,7,-1
 1002 1090 l 1,8,-1
 899 940 l 1,9,-1
 795 940 l 2,10,11
 697 940 697 940 620 898 c 0,12,13
 542 857 542 857 521 758 c 2,14,-1
 373 61 l 17,15,-1
 186 -20 l 1,0,-1
EndSplineSet
Validated: 1
EndChar

StartChar: t
Encoding: 116 116 85
Width: 780
GlyphClass: 2
Flags: W
HStem: -20 21G<296 352.173> 940 160<315 500 714 899> 1510 20G<748.827 805>
DStem2: 296 -20 475.783 -20 0.207912 0.978148<120.189 981.436 1182.43 1501.77>
LayerCount: 2
Fore
SplineSet
296 -20 m 1,0,-1
 500 940 l 1,1,-1
 210 940 l 1,2,-1
 212 950 l 1,3,-1
 315 1100 l 1,4,-1
 534 1100 l 1,5,-1
 608 1449 l 1,6,-1
 795 1530 l 1,7,-1
 805 1530 l 1,8,-1
 714 1100 l 1,9,-1
 1004 1100 l 1,10,-1
 1002 1090 l 1,11,-1
 899 940 l 1,12,-1
 680 940 l 1,13,-1
 493 61 l 1,14,-1
 306 -20 l 1,15,-1
 296 -20 l 1,0,-1
EndSplineSet
Validated: 1
EndChar

StartChar: u
Encoding: 117 117 86
Width: 1190
GlyphClass: 2
Flags: W
HStem: -20 160<467.959 804.187> 1100 20G<541.827 598 1191.83 1248>
VStem: 239 184<183.629 485.539>
DStem2: 176.156 -20 355.306 -20 0.207912 0.978148<340.519 1082.61> 825.306 -20 1006.16 -20 0.207912 0.978148<216.827 1082.78>
LayerCount: 2
Fore
SplineSet
611 -20 m 128,-1,1
 439 -20 439 -20 325 62 c 0,2,3
 239 124 239 124 239 238 c 0,4,5
 239 275 239 275 248 318 c 2,6,-1
 401 1039 l 17,7,-1
 588 1120 l 1,8,-1
 598 1120 l 9,9,-1
 428 322 l 2,10,11
 423 296 423 296 423 275 c 0,12,13
 423 214 423 214 467 182 c 0,14,15
 527 140 527 140 625 140 c 128,-1,16
 723 140 723 140 800 181.5 c 128,-1,17
 877 223 877 223 898 322 c 2,18,-1
 1051 1039 l 17,19,-1
 1238 1120 l 1,20,-1
 1248 1120 l 9,21,-1
 1078 318 l 2,22,23
 1038 131 1038 131 922 62 c 0,24,0
 783 -20 783 -20 611 -20 c 128,-1,1
EndSplineSet
Validated: 1
EndChar

StartChar: v
Encoding: 118 118 87
Width: 952
GlyphClass: 2
Flags: W
HStem: -20 21G<386.015 445.4> 1100 20G<339.824 398.87 1018.19 1077.14>
DStem2: 396 1120 229 1052 0.147619 -0.989044<42.6027 872.839> 520 256 573 55 0.514496 0.857493<0 1003.27>
LayerCount: 2
Fore
SplineSet
389 -20 m 1,0,-1
 229 1052 l 1,1,-1
 386 1120 l 1,2,-1
 396 1120 l 1,3,-1
 520 256 l 1,4,-1
 1030 1120 l 1,5,-1
 1040 1120 l 1,6,-1
 1170 1050 l 1,7,-1
 573 55 l 1,8,-1
 399 -20 l 1,9,-1
 389 -20 l 1,0,-1
EndSplineSet
Validated: 1
EndChar

StartChar: w
Encoding: 119 119 88
Width: 1840
GlyphClass: 2
Flags: W
HStem: -20 160<467.884 803.728 1116.6 1454.19> 1100 20G<541.827 598 1191.83 1248 1841.83 1898>
VStem: 239 184<183.629 485.539>
DStem2: 176.156 -20 355.306 -20 0.207912 0.978148<340.519 1082.61> 825.306 -20 1005.31 -20 0.207912 0.978148<340.695 1082.78> 1475.31 -20 1656.16 -20 0.207912 0.978148<216.827 1082.78>
LayerCount: 2
Fore
SplineSet
610.5 -20 m 128,-1,1
 439 -20 439 -20 325 62 c 0,2,3
 239 124 239 124 239 238 c 0,4,5
 239 275 239 275 248 318 c 2,6,-1
 401 1039 l 1,7,-1
 588 1120 l 1,8,-1
 598 1120 l 1,9,-1
 428 322 l 2,10,11
 423 296 423 296 423 275 c 0,12,13
 423 214 423 214 467 182 c 0,14,15
 527 140 527 140 625 140 c 128,-1,16
 723 140 723 140 800 181.5 c 128,-1,17
 877 223 877 223 898 322 c 2,18,-1
 1051 1039 l 1,19,-1
 1238 1120 l 1,20,-1
 1248 1120 l 1,21,-1
 1078 322 l 2,22,23
 1073 296 1073 296 1073 275 c 0,24,25
 1073 214 1073 214 1117 182 c 0,26,27
 1177 140 1177 140 1275 140 c 128,-1,28
 1373 140 1373 140 1450 181.5 c 128,-1,29
 1527 223 1527 223 1548 322 c 2,30,-1
 1701 1039 l 1,31,-1
 1888 1120 l 1,32,-1
 1898 1120 l 1,33,-1
 1728 318 l 2,34,35
 1688 131 1688 131 1572 62 c 0,36,37
 1433 -20 1433 -20 1261 -20 c 0,38,39
 1097 -20 1097 -20 985 62 c 0,40,41
 970 73 970 73 958 87 c 1,42,43
 940 73 940 73 921 62 c 0,44,0
 782 -20 782 -20 610.5 -20 c 128,-1,1
EndSplineSet
Validated: 1
EndChar

StartChar: x
Encoding: 120 120 89
Width: 893
GlyphClass: 2
Flags: W
HStem: -20 21G<135.412 197.682 697.801 762.349> 1100 20G<365.333 430.19 927.333 989.362>
DStem2: 50 48 181 -20 0.640466 0.767986<31.678 581.212 849.141 1395.86> 422 1120 265 1057 0.378934 -0.925424<0 453.855 706.516 1162.6>
LayerCount: 2
Fore
SplineSet
181 -20 m 1,0,-1
 171 -20 l 1,1,-1
 50 48 l 1,2,-1
 471 553 l 1,3,-1
 265 1057 l 1,4,-1
 412 1120 l 1,5,-1
 422 1120 l 1,6,-1
 594 700 l 1,7,-1
 944 1120 l 1,8,-1
 954 1120 l 1,9,-1
 1076 1051 l 1,10,-1
 656 548 l 1,11,-1
 862 43 l 1,12,-1
 716 -20 l 1,13,-1
 706 -20 l 1,14,-1
 533 402 l 1,15,-1
 181 -20 l 1,0,-1
EndSplineSet
Validated: 1
EndChar

StartChar: y
Encoding: 121 121 90
Width: 1210
GlyphClass: 2
Flags: W
HStem: -410 160<338 722.676> -20 160<466.2 799.037> 1100 20G<541.827 598 1191.83 1248>
VStem: 239 184<182.542 485.539>
DStem2: 93.2588 -410 272.409 -410 0.207912 0.978148<739.232 1481.32> 743.306 -410 923.156 -410 0.207912 0.978148<215.015 469.074 613.156 1481.31>
LayerCount: 2
Fore
SplineSet
233 -410 m 1,0,-1
 235 -400 l 1,1,-1
 338 -250 l 1,2,-1
 542 -250 l 2,3,4
 640 -250 640 -250 718 -208 c 0,5,6
 796 -167 796 -167 816 -68 c 2,7,-1
 840 49 l 1,8,9
 741 -20 741 -20 601 -20 c 0,10,11
 429 -20 429 -20 325 62 c 0,12,13
 239 129 239 129 239 242 c 0,14,15
 239 278 239 278 248 318 c 2,16,-1
 401 1039 l 1,17,-1
 588 1120 l 1,18,-1
 598 1120 l 1,19,-1
 428 322 l 2,20,21
 423 296 423 296 423 275 c 0,22,23
 423 214 423 214 467 182 c 0,24,25
 527 140 527 140 625 140 c 128,-1,26
 723 140 723 140 800 181.5 c 128,-1,27
 877 223 877 223 898 322 c 2,28,-1
 1051 1039 l 1,29,-1
 1238 1120 l 1,30,-1
 1248 1120 l 1,31,-1
 995 -72 l 2,32,33
 956 -256 956 -256 838 -328 c 0,34,35
 705 -410 705 -410 528 -410 c 2,36,-1
 233 -410 l 1,0,-1
EndSplineSet
Validated: 1
EndChar

StartChar: z
Encoding: 122 122 91
Width: 850
GlyphClass: 2
Flags: W
HStem: 0 160<353 739> 940 160<375 732>
DStem2: 42 10 353 160 0.595847 0.803098<305.773 1158.02>
LayerCount: 2
Fore
SplineSet
40 0 m 1,0,-1
 42 10 l 1,1,-1
 732 940 l 1,2,-1
 270 940 l 1,3,-1
 272 950 l 1,4,-1
 375 1100 l 1,5,-1
 1044 1100 l 1,6,-1
 1042 1090 l 1,7,-1
 353 160 l 1,8,-1
 844 160 l 1,9,-1
 842 150 l 1,10,-1
 739 0 l 1,11,-1
 40 0 l 1,0,-1
EndSplineSet
Validated: 1
EndChar

StartChar: braceleft
Encoding: 123 123 92
Width: 830
GlyphClass: 2
Flags: W
HStem: -240 180<568.465 729> 665 180<310 415> 1570 180<900.732 1114>
VStem: 298 204<1.84229 225.387>
DStem2: 223.127 -240 423.127 -240 0.207912 0.978148<395.321 925.116 1109.29 1815.14>
CounterMasks: 1 e0
LayerCount: 2
Fore
SplineSet
729 -240 m 1,0,1
 530 -240 530 -240 402 -144 c 0,2,3
 298 -66 298 -66 298 70 c 0,4,5
 298 114 298 114 309 164 c 2,6,-1
 415 665 l 1,7,-1
 191 665 l 1,8,-1
 193 675 l 1,9,-1
 310 845 l 1,10,-1
 454 845 l 1,11,-1
 560 1346 l 2,12,13
 608 1571 608 1571 754 1654 c 0,14,15
 922 1750 922 1750 1152 1750 c 1,16,-1
 1114 1570 l 1,17,18
 988 1570 988 1570 887.5 1521.5 c 128,-1,19
 787 1473 787 1473 760 1346 c 2,20,-1
 509 164 l 2,21,22
 502 132 502 132 502 104 c 0,23,24
 502 24 502 24 562 -12 c 0,25,26
 642 -60 642 -60 767 -60 c 1,27,-1
 729 -240 l 1,0,1
EndSplineSet
Validated: 1
EndChar

StartChar: bar
Encoding: 124 124 93
Width: 650
GlyphClass: 2
Flags: W
VStem: 207 556
DStem2: 207 -200 357.971 -200 0.207912 0.978148<98.8632 1885.21>
LayerCount: 2
Fore
SplineSet
207 -200 m 1,0,-1
 599 1644 l 1,1,-1
 753 1710 l 1,2,-1
 763 1710 l 1,3,-1
 372 -134 l 1,4,-1
 217 -200 l 1,5,-1
 207 -200 l 1,0,-1
EndSplineSet
Validated: 1
EndChar

StartChar: braceright
Encoding: 125 125 94
Width: 830
GlyphClass: 2
Flags: W
HStem: -240 180<37 257.137> 665 180<736 841> 1570 180<422 583.219>
VStem: 649 204<1193.84 1511.77>
DStem2: 305.127 -240 505.127 -240 0.207912 0.978148<260.248 966.699 1150.87 1679.72>
CounterMasks: 1 e0
LayerCount: 2
Fore
SplineSet
-1 -240 m 1,0,-1
 37 -60 l 1,1,2
 164 -60 164 -60 264 -12 c 128,-1,3
 364 36 364 36 391 164 c 2,4,-1
 642 1346 l 2,5,6
 649 1378 649 1378 649 1405 c 0,7,8
 649 1487 649 1487 590 1522 c 0,9,10
 510 1570 510 1570 384 1570 c 1,11,-1
 422 1750 l 1,12,13
 622 1750 622 1750 750 1654 c 0,14,15
 853 1577 853 1577 853 1440 c 0,16,17
 853 1396 853 1396 842 1346 c 2,18,-1
 736 845 l 1,19,-1
 960 845 l 1,20,-1
 957 835 l 1,21,-1
 841 665 l 1,22,-1
 697 665 l 1,23,-1
 591 164 l 2,24,25
 544 -61 544 -61 398 -144 c 0,26,27
 230 -240 230 -240 -1 -240 c 1,0,-1
EndSplineSet
Validated: 1
EndChar

StartChar: asciitilde
Encoding: 126 126 95
Width: 1138
GlyphClass: 2
Flags: W
HStem: 576 147<821.122 958.233> 790 147<501.267 637.917>
LayerCount: 2
Fore
SplineSet
1187 937 m 1,0,1
 1110 576 1110 576 864 576 c 0,2,3
 737 576 737 576 666 703 c 0,4,5
 617 790 617 790 573 790 c 0,6,7
 497 790 497 790 467 656 c 1,8,-1
 282 576 l 1,9,-1
 272 576 l 1,10,11
 349 937 349 937 595 937 c 0,12,13
 722 937 722 937 793 810 c 0,14,15
 842 723 842 723 887 723 c 0,16,17
 963 723 963 723 993 857 c 1,18,-1
 1177 937 l 1,19,-1
 1187 937 l 1,0,1
EndSplineSet
Validated: 1
EndChar

StartChar: exclamdown
Encoding: 161 161 97
Width: 600
GlyphClass: 2
Flags: W
HStem: -430 21G<109 165.444> 875 245<436.711 587.42>
VStem: 389 246<922.592 1071.76>
DStem2: 109 -430 308.87 -430 0.207912 0.978148<133.566 1063.22>
LayerCount: 2
Fore
SplineSet
538 1120 m 0,0,1
 590 1120 590 1120 616 1084 c 0,2,3
 635 1059 635 1059 635 1025 c 0,4,5
 635 1011 635 1011 632 997 c 0,6,7
 621 947 621 947 578.5 911 c 128,-1,8
 536 875 536 875 486 875 c 128,-1,9
 436 875 436 875 408 911 c 0,10,11
 389 936 389 936 389 970 c 0,12,13
 389 983 389 983 392 997 c 0,14,15
 403 1047 403 1047 445.5 1083.5 c 128,-1,16
 488 1120 488 1120 538 1120 c 0,0,1
119 -430 m 1,17,-1
 109 -430 l 1,18,-1
 330 610 l 1,19,-1
 539 700 l 1,20,-1
 549 700 l 1,21,-1
 328 -340 l 1,22,-1
 119 -430 l 1,17,-1
EndSplineSet
Validated: 1
EndChar

StartChar: cent
Encoding: 162 162 98
Width: 1070
GlyphClass: 2
Flags: W
HStem: -16 159<448.38 521> 957 159<862 934.62>
VStem: 219 184<183.629 485.312> 980 175<802.588 916.965>
DStem2: 134.9 -120 314.05 -120 0.207912 0.978148<442.753 1088.24> 499 -120 599.073 -120 0.207912 0.978148<63.7446 106.301 289.687 1101.08 1284.46 1327.02>
LayerCount: 2
Fore
SplineSet
608 -78 m 1,0,-1
 509 -120 l 1,1,-1
 499 -120 l 1,2,-1
 521 -16 l 1,3,4
 395 -2 395 -2 305 62 c 0,5,6
 219 124 219 124 219 238 c 0,7,8
 219 275 219 275 228 318 c 2,9,-1
 326 782 l 2,10,11
 365 969 365 969 482 1038 c 0,12,13
 612 1115 612 1115 763 1120 c 1,14,-1
 775 1178 l 1,15,-1
 874 1220 l 1,16,-1
 884 1220 l 1,17,-1
 862 1116 l 1,18,19
 996 1102 996 1102 1079 1038 c 0,20,21
 1155 979 1155 979 1155 862 c 0,22,23
 1155 838 1155 838 1152 811 c 1,24,-1
 976 734 l 1,25,-1
 966 734 l 1,26,-1
 975 778 l 2,27,28
 980 803 980 803 980 825 c 0,29,30
 980 888 980 888 936 918 c 0,31,32
 892 949 892 949 828 957 c 1,33,-1
 655 143 l 1,34,35
 723 151 723 151 781 182 c 0,36,37
 851 219 851 219 875 307 c 1,38,-1
 1062 388 l 1,39,-1
 1072 388 l 1,40,-1
 1058 318 l 2,41,42
 1021 132 1021 132 902 62 c 0,43,44
 775 -13 775 -13 620 -19 c 1,45,-1
 608 -78 l 1,0,-1
555 143 m 1,46,-1
 728 957 l 1,47,48
 660 948 660 948 604 918 c 0,49,50
 526 876 526 876 505 778 c 2,51,-1
 408 322 l 2,52,53
 403 296 403 296 403 275 c 0,54,55
 403 214 403 214 447 182 c 0,56,57
 491 151 491 151 555 143 c 1,46,-1
EndSplineSet
Validated: 1
EndChar

StartChar: sterling
Encoding: 163 163 99
Width: 1335
GlyphClass: 2
Flags: W
HStem: 0 180<268 338 538 1105> 600 180<397 428 666 963> 1350 180<841.728 1138.97>
VStem: 1183 200<1209.31 1306.76>
DStem2: 299.74 0 499.74 0 0.207912 0.978148<225.604 613.555 839.105 1370.75>
LayerCount: 2
Fore
SplineSet
150 0 m 1,0,-1
 152 10 l 1,1,-1
 268 180 l 1,2,-1
 338 180 l 1,3,-1
 428 600 l 1,4,-1
 279 600 l 1,5,-1
 281 610 l 1,6,-1
 397 780 l 1,7,-1
 466 780 l 1,8,-1
 553 1192 l 2,9,10
 592 1379 592 1379 709 1448 c 0,11,12
 848 1530 848 1530 1020 1530 c 0,13,14
 1200 1530 1200 1530 1306 1448 c 0,15,16
 1383 1389 1383 1389 1383 1271 c 0,17,18
 1383 1248 1383 1248 1380 1222 c 1,19,-1
 1182 1137 l 1,20,-1
 1172 1137 l 1,21,-1
 1178 1168 l 2,22,23
 1183 1193 1183 1193 1183 1214 c 0,24,25
 1183 1279 1183 1279 1140 1308 c 0,26,27
 1080 1350 1080 1350 1002 1350 c 128,-1,28
 924 1350 924 1350 846.5 1308.5 c 128,-1,29
 769 1267 769 1267 748 1168 c 2,30,-1
 666 780 l 1,31,-1
 1081 780 l 1,32,-1
 1079 770 l 1,33,-1
 963 600 l 1,34,-1
 628 600 l 1,35,-1
 538 180 l 1,36,-1
 1223 180 l 1,37,-1
 1221 170 l 1,38,-1
 1105 0 l 1,39,-1
 150 0 l 1,0,-1
EndSplineSet
Validated: 1
EndChar

StartChar: currency
Encoding: 164 164 100
Width: 1395
GlyphClass: 2
Flags: W
HStem: 241 180<587.978 1002.09> 1089 180<708.814 1122.84>
VStem: 318 202<481.024 813.438> 1191 202<696.562 1028.81>
DStem2: 241.127 241 441.127 241 0.207912 0.978148<395.321 831.648> 1051.13 241 1251.13 241 0.207912 0.978148<261.396 697.277>
LayerCount: 2
Fore
SplineSet
784 421 m 0,0,1
 911 421 911 421 1010.5 469.5 c 128,-1,2
 1110 518 1110 518 1137 645 c 2,3,-1
 1184 865 l 2,4,5
 1191 897 1191 897 1191 925 c 0,6,7
 1191 1004 1191 1004 1132 1040 c 0,8,9
 1051 1089 1051 1089 925.5 1089 c 128,-1,10
 800 1089 800 1089 700.5 1040.5 c 128,-1,11
 601 992 601 992 574 865 c 2,12,-1
 527 645 l 2,13,14
 520 613 520 613 520 585 c 0,15,16
 520 506 520 506 579 470 c 0,17,18
 658 422 658 422 784 421 c 0,0,1
946 1269 m 0,19,20
 1117 1269 1117 1269 1249 1193 c 1,21,-1
 1326 1255 l 1,22,-1
 1491 1191 l 1,23,-1
 1497 1184 l 1,24,-1
 1364 1075 l 1,25,26
 1393 1015 1393 1015 1393 945 c 0,27,28
 1393 906 1393 906 1384 865 c 2,29,-1
 1337 645 l 2,30,31
 1309 515 1309 515 1236 430 c 1,32,-1
 1315 330 l 1,33,-1
 1307 323 l 1,34,-1
 1114 259 l 1,35,-1
 1073 310 l 1,36,37
 925 241 925 241 767 241 c 0,38,39
 589 241 589 241 452 322 c 1,40,-1
 394 275 l 1,41,-1
 229 339 l 1,42,-1
 224 346 l 1,43,-1
 344 445 l 1,44,45
 318 498 318 498 318 563 c 0,46,47
 318 602 318 602 327 645 c 2,48,-1
 374 865 l 2,49,50
 402 997 402 997 479 1085 c 1,51,-1
 402 1184 l 1,52,-1
 410 1191 l 1,53,-1
 602 1255 l 1,54,-1
 643 1202 l 1,55,56
 790 1269 790 1269 946 1269 c 0,19,20
EndSplineSet
Validated: 1
EndChar

StartChar: yen
Encoding: 165 165 101
Width: 1310
GlyphClass: 2
Flags: W
HStem: -20 21G<551 607.444> 114 120<392 579 805 992> 314 120<434 622 847 1035> 1510 20G<628.556 685 1418.56 1475>
VStem: 327 204<672.913 898.295>
DStem2: 156.052 -20 356.052 -20 0.207912 0.978148<857.389 1492.54> 946.052 -20 1146.05 -20 0.207912 0.978148<722.996 1492.54>
LayerCount: 2
Fore
SplineSet
561 -20 m 1,0,-1
 551 -20 l 1,1,-1
 579 114 l 1,2,-1
 314 114 l 1,3,-1
 316 124 l 1,4,-1
 392 234 l 1,5,-1
 605 234 l 1,6,-1
 622 314 l 1,7,-1
 357 314 l 1,8,-1
 359 324 l 1,9,-1
 434 434 l 1,10,-1
 647 434 l 1,11,-1
 648 438 l 1,12,13
 528 454 528 454 429 528 c 0,14,15
 327 605 327 605 327 741 c 0,16,17
 327 785 327 785 338 836 c 2,18,-1
 466 1440 l 1,19,-1
 675 1530 l 1,20,-1
 685 1530 l 1,21,-1
 538 836 l 2,22,23
 531 803 531 803 531 776 c 0,24,25
 531 696 531 696 590 660 c 0,26,27
 668 612 668 612 784.5 612 c 128,-1,28
 901 612 901 612 1001 660.5 c 128,-1,29
 1101 709 1101 709 1128 836 c 2,30,-1
 1256 1440 l 1,31,-1
 1465 1530 l 1,32,-1
 1475 1530 l 1,33,-1
 1328 836 l 2,34,35
 1280 611 1280 611 1134 528 c 0,36,37
 1016 460 1016 460 848 438 c 1,38,-1
 847 434 l 1,39,-1
 1112 434 l 1,40,-1
 1110 424 l 1,41,-1
 1035 314 l 1,42,-1
 822 314 l 1,43,-1
 805 234 l 1,44,-1
 1070 234 l 1,45,-1
 1068 224 l 1,46,-1
 992 114 l 1,47,-1
 779 114 l 1,48,-1
 770 70 l 1,49,-1
 561 -20 l 1,0,-1
EndSplineSet
Validated: 1
EndChar

StartChar: brokenbar
Encoding: 166 166 102
Width: 650
GlyphClass: 2
Flags: W
VStem: 207 556
DStem2: 207 -200 357.971 -200 0.207912 0.978148<98.8632 804.731 1171.1 1885.21>
LayerCount: 2
Fore
SplineSet
207 -200 m 1,0,-1
 375 587 l 1,1,-1
 529 653 l 1,2,-1
 539 653 l 1,3,-1
 372 -134 l 1,4,-1
 217 -200 l 1,5,-1
 207 -200 l 1,0,-1
753 1710 m 1,6,-1
 763 1710 l 1,7,-1
 594 915 l 1,8,-1
 440 849 l 1,9,-1
 430 849 l 1,10,-1
 599 1644 l 1,11,-1
 753 1710 l 1,6,-1
EndSplineSet
Validated: 1
EndChar

StartChar: section
Encoding: 167 167 103
Width: 1078
GlyphClass: 2
Flags: W
HStem: -20 159<452.411 703.926> 425 161<518.417 737.015> 924 161<660.985 879.583> 1371 159<694.074 945.589>
VStem: 255 169<166.099 244.681> 301 183<628.943 863.152> 457 181<1111.81 1314.68> 760 181<195.317 398.186> 914 183<646.848 881.057> 974 169<1265.32 1343.9>
LayerCount: 2
Fore
SplineSet
549 -20 m 0,0,1
 409 -20 409 -20 326 52 c 0,2,3
 255 114 255 114 255 204 c 0,4,5
 255 219 255 219 257 235 c 1,6,-1
 427 308 l 1,7,-1
 437 308 l 1,8,-1
 427 261 l 2,9,10
 424 247 424 247 424 236 c 0,11,12
 424 195 424 195 459 168 c 0,13,14
 496 139 496 139 565 139 c 0,15,16
 630 139 630 139 679 167 c 0,17,18
 737 199 737 199 750 261 c 2,19,-1
 757 295 l 2,20,21
 760 310 760 310 760 327 c 0,22,23
 760 366 760 366 738 390 c 0,24,25
 707 425 707 425 611 425 c 0,26,27
 458 425 458 425 371 507 c 0,28,29
 301 573 301 573 301 676 c 0,30,31
 301 710 301 710 308 746 c 2,32,-1
 315 782 l 2,33,34
 342 922 342 922 413 997 c 1,35,-1
 556 898 l 1,36,37
 512 857 512 857 495 778 c 2,38,-1
 489 750 l 2,39,40
 484 727 484 727 484 709 c 0,41,42
 484 658 484 658 517 628 c 0,43,44
 562 586 562 586 651 586 c 0,45,46
 793 586 793 586 873 516 c 0,47,48
 941 456 941 456 941 367 c 0,49,50
 941 336 941 336 932 298 c 2,51,-1
 917 235 l 2,52,53
 885 102 885 102 803 50 c 0,54,55
 693 -20 693 -20 549 -20 c 0,0,1
849 1530 m 0,56,57
 989 1530 989 1530 1072 1458 c 0,58,59
 1143 1396 1143 1396 1143 1306 c 0,60,61
 1143 1291 1143 1291 1141 1275 c 1,62,-1
 971 1202 l 1,63,-1
 961 1202 l 1,64,-1
 971 1249 l 2,65,66
 974 1263 974 1263 974 1274 c 0,67,68
 974 1315 974 1315 939 1342 c 0,69,70
 902 1371 902 1371 833 1371 c 0,71,72
 768 1371 768 1371 719 1343 c 0,73,74
 661 1311 661 1311 648 1249 c 2,75,-1
 641 1215 l 2,76,77
 638 1200 638 1200 638 1183 c 0,78,79
 638 1144 638 1144 660 1120 c 0,80,81
 691 1085 691 1085 787 1085 c 0,82,83
 940 1085 940 1085 1027 1003 c 0,84,85
 1097 937 1097 937 1097 834 c 0,86,87
 1097 800 1097 800 1090 764 c 2,88,-1
 1083 728 l 2,89,90
 1056 588 1056 588 985 513 c 1,91,-1
 842 612 l 1,92,93
 886 653 886 653 903 732 c 2,94,-1
 909 760 l 2,95,96
 914 783 914 783 914 801 c 0,97,98
 914 852 914 852 881 882 c 0,99,100
 836 924 836 924 747 924 c 0,101,102
 605 924 605 924 525 994 c 0,103,104
 457 1054 457 1054 457 1143 c 0,105,106
 457 1174 457 1174 466 1212 c 2,107,-1
 481 1275 l 2,108,109
 513 1408 513 1408 595 1460 c 0,110,111
 705 1530 705 1530 849 1530 c 0,56,57
EndSplineSet
Validated: 1
EndChar

StartChar: dieresis
Encoding: 168 168 104
Width: 600
GlyphClass: 2
Flags: W
HStem: 1230 227<374.232 520.636 650.141 796.574>
VStem: 333 229<1271.58 1415.8> 610 229<1272.58 1416.8>
LayerCount: 2
Fore
SplineSet
749 1458 m 128,-1,1
 795 1458 795 1458 821 1425 c 0,2,3
 839 1402 839 1402 839 1369 c 0,4,5
 839 1357 839 1357 837 1345 c 0,6,7
 827 1299 827 1299 786.5 1265 c 128,-1,8
 746 1231 746 1231 700 1231 c 0,9,10
 655 1231 655 1231 629 1265 c 0,11,12
 610 1289 610 1289 610 1320 c 0,13,14
 611 1333 611 1333 613 1345 c 0,15,16
 623 1391 623 1391 663 1424.5 c 128,-1,0
 703 1458 703 1458 749 1458 c 128,-1,1
472 1457 m 128,-1,18
 518 1457 518 1457 544 1424 c 0,19,20
 562 1401 562 1401 562 1368 c 0,21,22
 562 1356 562 1356 560 1344 c 0,23,24
 550 1298 550 1298 509.5 1264 c 128,-1,25
 469 1230 469 1230 423 1230 c 0,26,27
 378 1230 378 1230 352 1264 c 0,28,29
 333 1288 333 1288 333 1319 c 0,30,31
 334 1332 334 1332 336 1344 c 0,32,33
 346 1390 346 1390 386 1423.5 c 128,-1,17
 426 1457 426 1457 472 1457 c 128,-1,18
EndSplineSet
Validated: 1
EndChar

StartChar: copyright
Encoding: 169 169 105
Width: 1401
GlyphClass: 2
Flags: W
HStem: 386 52<634.584 955.646> 546 131<751.179 980.659> 1230 130<842.133 1069.14> 1478 52<854.632 1173.39>
VStem: 332 59<686.575 1015.56> 593 143<693.254 947.719> 1085 138<1130.67 1214.39> 1416 59<900.437 1234>
DStem2: 517.803 386 657.591 386 0.207912 0.978148<396.857 884.476>
LayerCount: 2
Fore
SplineSet
784 386 m 0,0,1
 558 386 558 386 428 549 c 0,2,3
 332 669 332 669 332 841 c 0,4,5
 332 890 332 890 340 943 c 0,6,7
 375 1183 375 1183 585 1362 c 0,8,9
 782 1530 782 1530 1023 1530 c 0,10,11
 1249 1530 1249 1530 1379 1367 c 0,12,13
 1475 1247 1475 1247 1475 1075 c 0,14,15
 1475 1026 1475 1026 1467 973 c 0,16,17
 1432 733 1432 733 1222 554 c 0,18,19
 1024 386 1024 386 784 386 c 0,0,1
1013 1478 m 0,20,21
 813 1478 813 1478 633 1330 c 0,22,23
 451 1181 451 1181 403 953 c 0,24,25
 391 897 391 897 391 843 c 0,26,27
 391 704 391 704 472 587 c 0,28,29
 575 438 575 438 794 438 c 0,30,31
 994 438 994 438 1174 586 c 0,32,33
 1356 735 1356 735 1404 963 c 0,34,35
 1416 1022 1416 1022 1416 1077 c 0,36,37
 1416 1216 1416 1216 1338 1329 c 0,38,39
 1235 1478 1235 1478 1013 1478 c 0,20,21
987 1360 m 0,40,41
 1103 1360 1103 1360 1171 1310 c 0,42,43
 1223 1273 1223 1273 1223 1186 c 0,44,45
 1223 1163 1223 1163 1219 1138 c 1,46,-1
 1083 1086 l 1,47,-1
 1073 1086 l 1,48,-1
 1083 1138 l 2,49,50
 1085 1150 1085 1150 1085 1160 c 0,51,52
 1085 1194 1085 1194 1060 1210 c 0,53,54
 1027 1230 1027 1230 969 1230 c 0,55,56
 838 1230 838 1230 818 1138 c 2,57,-1
 739 769 l 2,58,59
 736 756 736 756 736 745 c 0,60,61
 736 712 736 712 761 697 c 0,62,63
 794 677 794 677 852 677 c 0,64,65
 984 677 984 677 1005 769 c 2,66,-1
 1008 782 l 1,67,-1
 1149 833 l 1,68,-1
 1159 833 l 1,69,-1
 1145 769 l 2,70,71
 1118 646 1118 646 1037 599 c 0,72,73
 944 546 944 546 834 546 c 0,74,75
 716 546 716 546 648 599 c 0,76,77
 593 641 593 641 593 716 c 0,78,79
 593 740 593 740 599 768 c 2,80,-1
 678 1139 l 2,81,82
 704 1262 704 1262 784 1308 c 0,83,84
 875 1360 875 1360 987 1360 c 0,40,41
EndSplineSet
Validated: 1
EndChar

StartChar: ordfeminine
Encoding: 170 170 106
Width: 554
GlyphClass: 2
Flags: W
HStem: 790 120<295 620> 969 122<425.967 582.906> 1270 122<444.616 618.471> 1449 121<507 652.687>
VStem: 292 133<1094.44 1252.31> 655 133<1374 1444.37>
LayerCount: 2
Fore
SplineSet
507 1570 m 1,0,-1
 586 1570 l 2,1,2
 678 1570 678 1570 736 1524 c 0,3,4
 788 1484 788 1484 788 1419 c 0,5,6
 788 1401 788 1401 784 1381 c 2,7,-1
 706 1017 l 1,8,-1
 576 969 l 1,9,-1
 566 969 l 1,10,-1
 570 987 l 1,11,12
 528 970 528 970 470 970 c 0,13,14
 402 970 402 970 344 1016 c 0,15,16
 292 1058 292 1058 292 1121 c 0,17,18
 292 1139 292 1139 296 1158 c 2,19,-1
 306 1204 l 2,20,21
 329 1309 329 1309 395 1347 c 0,22,23
 473 1392 473 1392 540 1392 c 0,24,25
 617 1392 617 1392 652 1374 c 1,26,-1
 653 1379 l 2,27,28
 655 1388 655 1388 655 1396 c 0,29,30
 655 1449 655 1449 570 1449 c 2,31,-1
 438 1449 l 1,32,-1
 440 1459 l 1,33,-1
 507 1570 l 1,0,-1
427 1161 m 2,34,35
 425 1151 425 1151 425 1143 c 0,36,37
 425 1091 425 1091 504 1091 c 0,38,39
 594 1091 594 1091 609 1161 c 2,40,-1
 617 1201 l 2,41,42
 619 1211 619 1211 619 1219 c 0,43,44
 619 1270 619 1270 541 1270 c 0,45,46
 450 1270 450 1270 435 1201 c 2,47,-1
 427 1161 l 2,34,35
218 790 m 1,48,-1
 220 800 l 1,49,-1
 295 910 l 1,50,-1
 697 910 l 1,51,-1
 695 900 l 1,52,-1
 620 790 l 1,53,-1
 218 790 l 1,48,-1
EndSplineSet
Validated: 1
EndChar

StartChar: guillemotleft
Encoding: 171 171 107
Width: 1100
GlyphClass: 2
Flags: W
DStem2: 486 743 310 755 0.353442 -0.935457<0 395.019> 310 755 486 743 0.625126 0.780524<100.656 566.286> 839 744 662 755 0.353442 -0.935457<0 395.601> 662 755 839 744 0.625126 0.780524<102.061 566.286>
LayerCount: 2
Fore
SplineSet
662 755 m 1,0,-1
 1016 1197 l 1,1,-1
 1026 1197 l 1,2,-1
 1151 1131 l 1,3,-1
 839 744 l 1,4,-1
 979 374 l 1,5,-1
 839 313 l 1,6,-1
 829 313 l 1,7,-1
 662 755 l 1,0,-1
310 755 m 1,8,-1
 664 1197 l 1,9,-1
 674 1197 l 1,10,-1
 799 1131 l 1,11,-1
 486 743 l 1,12,-1
 627 374 l 1,13,-1
 487 313 l 1,14,-1
 477 313 l 1,15,-1
 310 755 l 1,8,-1
EndSplineSet
Validated: 1
EndChar

StartChar: logicalnot
Encoding: 172 172 108
Width: 1200
GlyphClass: 2
Flags: W
HStem: 680 150<392 1009>
VStem: 827 120<418 538>
DStem2: 827 418 947 418 0.567398 0.823444<68.0877 319.009>
LayerCount: 2
Fore
SplineSet
392 830 m 1,0,-1
 1226 830 l 1,1,-1
 1224 820 l 1,2,-1
 947 418 l 1,3,-1
 827 418 l 1,4,-1
 1009 680 l 1,5,-1
 295 680 l 1,6,-1
 297 690 l 1,7,-1
 392 830 l 1,0,-1
EndSplineSet
Validated: 1
EndChar

StartChar: uni00AD
Encoding: 173 173 109
Width: 1200
GlyphClass: 2
Flags: W
HStem: 680 150<392 1129>
LayerCount: 2
Fore
SplineSet
392 830 m 5,0,-1
 1226 830 l 5,1,-1
 1224 820 l 5,2,-1
 1129 680 l 5,3,-1
 295 680 l 5,4,-1
 297 690 l 5,5,-1
 392 830 l 5,0,-1
EndSplineSet
Validated: 1
EndChar

StartChar: registered
Encoding: 174 174 110
Width: 1401
GlyphClass: 2
Flags: W
HStem: 386 52<634.584 955.646> 803 131<803 869> 1219 131<863 1059.93> 1478 52<854.632 1173.39>
VStem: 332 59<686.575 1015.56> 1087 142<982.293 1203.47> 1416 59<900.437 1234>
DStem2: 545.629 386 686.363 386 0.207912 0.978148<243.952 455.577 589.535 880.782> 1017 825 869 803 0.481919 -0.876216<0 244.683> 925.964 386 1065.96 386 0.207912 0.978148<567.835 781.427>
LayerCount: 2
Fore
SplineSet
784 386 m 0,0,1
 558 386 558 386 428 549 c 0,2,3
 332 669 332 669 332 841 c 0,4,5
 332 890 332 890 340 943 c 0,6,7
 375 1183 375 1183 585 1362 c 0,8,9
 782 1530 782 1530 1023 1530 c 0,10,11
 1249 1530 1249 1530 1379 1367 c 0,12,13
 1475 1247 1475 1247 1475 1075 c 0,14,15
 1475 1026 1475 1026 1467 973 c 0,16,17
 1432 733 1432 733 1222 554 c 0,18,19
 1024 386 1024 386 784 386 c 0,0,1
1013 1478 m 0,20,21
 813 1478 813 1478 633 1330 c 0,22,23
 451 1181 451 1181 403 953 c 0,24,25
 391 897 391 897 391 843 c 0,26,27
 391 704 391 704 472 587 c 0,28,29
 575 438 575 438 794 438 c 0,30,31
 994 438 994 438 1174 586 c 0,32,33
 1356 735 1356 735 1404 963 c 0,34,35
 1416 1022 1416 1022 1416 1077 c 0,36,37
 1416 1216 1416 1216 1338 1329 c 0,38,39
 1235 1478 1235 1478 1013 1478 c 0,20,21
910 934 m 2,40,41
 1043 934 1043 934 1062 1026 c 2,42,-1
 1084 1127 l 2,43,44
 1087 1140 1087 1140 1087 1151 c 0,45,46
 1087 1186 1087 1186 1061 1200 c 0,47,48
 1027 1219 1027 1219 970 1219 c 2,49,-1
 863 1219 l 1,50,-1
 803 934 l 1,51,-1
 910 934 l 2,40,41
840 1350 m 1,52,-1
 988 1350 l 2,53,54
 1095 1350 1095 1350 1168 1296 c 0,55,56
 1229 1251 1229 1251 1229 1176 c 0,57,58
 1229 1151 1229 1151 1224 1128 c 2,59,-1
 1202 1026 l 2,60,61
 1173 893 1173 893 1093 854 c 0,62,63
 1064 840 1064 840 1017 825 c 1,64,-1
 1147 592 l 1,65,-1
 1021 543 l 1,66,-1
 1012 543 l 1,67,-1
 869 803 l 1,68,-1
 775 803 l 1,69,-1
 731 596 l 1,70,-1
 589 543 l 1,71,-1
 579 543 l 1,72,-1
 742 1306 l 1,73,-1
 840 1350 l 1,52,-1
EndSplineSet
Validated: 1
EndChar

StartChar: macron
Encoding: 175 175 111
Width: 600
GlyphClass: 2
Flags: W
HStem: 1299 130<411 769>
VStem: 326 528
LayerCount: 2
Fore
SplineSet
411 1429 m 1,0,-1
 854 1429 l 1,1,-1
 852 1419 l 1,2,-1
 769 1299 l 1,3,-1
 326 1299 l 1,4,-1
 328 1309 l 1,5,-1
 411 1429 l 1,0,-1
EndSplineSet
Validated: 1
EndChar

StartChar: degree
Encoding: 176 176 112
Width: 650
GlyphClass: 2
Flags: W
HStem: 1012 117<457.793 686.966> 1457 113<512.534 741.461>
VStem: 307 131<1151.01 1392.4> 761 131<1192.58 1435.71>
DStem2: 265.175 1012 391.687 1012 0.207912 0.978148<233.947 462.543> 687.687 1012 815.219 1012 0.207912 0.978148<138.559 367.925>
LayerCount: 2
Fore
SplineSet
635 1457 m 128,-1,1
 572 1457 572 1457 524 1431 c 128,-1,2
 476 1405 476 1405 462 1342 c 2,3,-1
 441 1244 l 2,4,5
 438 1228 438 1228 438 1214 c 0,6,7
 438 1174 438 1174 465 1155 c 0,8,9
 502 1129 502 1129 565 1129 c 128,-1,10
 628 1129 628 1129 676 1155 c 128,-1,11
 724 1181 724 1181 737 1244 c 2,12,-1
 758 1342 l 2,13,14
 761 1359 761 1359 761 1373 c 0,15,16
 761 1411 761 1411 734 1431 c 0,17,0
 698 1457 698 1457 635 1457 c 128,-1,1
649 1570 m 128,-1,19
 763 1570 763 1570 837 1516 c 0,20,21
 892 1475 892 1475 892 1399 c 0,22,23
 892 1374 892 1374 886 1345 c 2,24,-1
 863 1237 l 2,25,26
 837 1114 837 1114 756 1066 c 0,27,28
 664 1012 664 1012 550 1012 c 0,29,30
 431 1012 431 1012 362 1066 c 0,31,32
 307 1109 307 1109 307 1184 c 0,33,34
 307 1209 307 1209 313 1237 c 2,35,-1
 336 1345 l 2,36,37
 362 1468 362 1468 443 1516 c 0,38,18
 535 1570 535 1570 649 1570 c 128,-1,19
EndSplineSet
Validated: 1
EndChar

StartChar: plusminus
Encoding: 177 177 113
Width: 1200
GlyphClass: 2
Flags: W
HStem: 275 150<306 1042> 858 150<430 707 889 1166>
DStem2: 583.788 275 733.76 275 0.207912 0.978148<311.302 595.877 780.439 1065.22>
LayerCount: 2
Fore
SplineSet
306 425 m 1,0,-1
 1140 425 l 1,1,-1
 1138 415 l 1,2,-1
 1042 275 l 1,3,-1
 208 275 l 1,4,-1
 211 285 l 1,5,-1
 306 425 l 1,0,-1
805 1317 m 1,6,-1
 959 1383 l 1,7,-1
 969 1383 l 1,8,-1
 889 1008 l 1,9,-1
 1264 1008 l 1,10,-1
 1262 998 l 1,11,-1
 1166 858 l 1,12,-1
 857 858 l 1,13,-1
 792 549 l 1,14,-1
 638 483 l 1,15,-1
 628 483 l 1,16,-1
 707 858 l 1,17,-1
 332 858 l 1,18,-1
 334 868 l 1,19,-1
 430 1008 l 1,20,-1
 739 1008 l 1,21,-1
 805 1317 l 1,6,-1
EndSplineSet
Validated: 1
EndChar

StartChar: uni00B2
Encoding: 178 178 114
Width: 651
VWidth: 1406
GlyphClass: 2
Flags: W
HStem: 763 131<482 716> 1438 132<498.151 732.728>
VStem: 748 144<1309.95 1417.56>
DStem2: 282 886 482 894 0.80033 0.59956<164.862 588.873> 621.219 763 763.155 763 0.207912 0.978148<422.941 620.736>
LayerCount: 2
Fore
SplineSet
642 1570 m 0,0,1
 766 1570 766 1570 837 1518 c 0,2,3
 892 1478 892 1478 892 1403 c 0,4,5
 892 1379 892 1379 886 1352 c 2,6,-1
 877 1308 l 2,7,8
 845 1152 845 1152 683 1037 c 2,9,-1
 482 894 l 1,10,-1
 791 894 l 1,11,-1
 789 884 l 1,12,-1
 716 763 l 1,13,-1
 212 763 l 1,14,-1
 214 773 l 1,15,-1
 282 886 l 1,16,-1
 573 1104 l 2,17,18
 717 1212 717 1212 736 1303 c 2,19,-1
 745 1347 l 2,20,21
 748 1360 748 1360 748 1371 c 0,22,23
 748 1404 748 1404 723 1418 c 0,24,25
 690 1438 690 1438 632 1438 c 0,26,27
 491 1438 491 1438 480 1347 c 2,28,-1
 479 1339 l 1,29,-1
 336 1281 l 1,30,-1
 326 1281 l 1,31,-1
 340 1347 l 2,32,33
 366 1476 366 1476 438 1517 c 0,34,35
 532 1570 532 1570 642 1570 c 0,0,1
EndSplineSet
Validated: 1
EndChar

StartChar: uni00B3
Encoding: 179 179 115
Width: 635
VWidth: 1396
GlyphClass: 2
Flags: W
HStem: 753 131<399.474 629.645> 1430 130<486 642>
VStem: 260 135<893.682 986.938> 673 143<1008.02 1129.53>
DStem2: 604.6 753 744.812 753 0.207912 0.978148<140.624 335.695>
LayerCount: 2
Fore
SplineSet
486 1560 m 1,0,-1
 896 1560 l 1,1,-1
 672 1255 l 1,2,3
 816 1220 816 1220 816 1105 c 0,4,5
 816 1082 816 1082 810 1057 c 2,6,-1
 792 975 l 2,7,8
 766 852 766 852 686 806 c 0,9,10
 594 754 594 754 488 753 c 0,11,12
 373 753 373 753 309 805 c 0,13,14
 260 845 260 845 260 932 c 0,15,16
 260 954 260 954 263 980 c 1,17,-1
 400 1028 l 1,18,-1
 410 1028 l 1,19,-1
 398 976 l 2,20,21
 395 963 395 963 395 952 c 0,22,23
 395 884 395 884 506 884 c 0,24,25
 632 884 632 884 652 976 c 2,26,-1
 670 1058 l 2,27,28
 673 1071 673 1071 673 1082 c 0,29,30
 673 1115 673 1115 647 1130 c 0,31,32
 614 1150 614 1150 567 1150 c 0,33,34
 528 1150 528 1150 479 1136 c 1,35,-1
 457 1178 l 1,36,-1
 642 1430 l 1,37,-1
 411 1430 l 1,38,-1
 413 1440 l 1,39,-1
 486 1560 l 1,0,-1
EndSplineSet
Validated: 1
EndChar

StartChar: acute
Encoding: 180 180 116
Width: 372
GlyphClass: 2
Flags: W
HStem: 1160 367
VStem: 310 323
DStem2: 310 1224 433 1160 0.550881 0.834584<14.3449 363.055>
LayerCount: 2
Fore
SplineSet
520 1527 m 1,0,-1
 633 1463 l 1,1,-1
 433 1160 l 1,2,-1
 423 1160 l 1,3,-1
 310 1224 l 1,4,-1
 510 1527 l 1,5,-1
 520 1527 l 1,0,-1
EndSplineSet
Validated: 1
EndChar

StartChar: uni00B5
Encoding: 181 181 117
Width: 1190
GlyphClass: 2
Flags: W
HStem: -430 21G<89 145.173> -20 160<466.196 804.187> 1100 20G<541.827 598 1191.83 1248>
DStem2: 89 -430 268.783 -430 0.207912 0.978148<120.189 526.956 759.68 1501.77> 738.157 -430 919.008 -430 0.207912 0.978148<635.987 1501.94>
LayerCount: 2
Fore
SplineSet
99 -430 m 1,0,-1
 89 -430 l 1,1,-1
 401 1039 l 1,2,-1
 588 1120 l 1,3,-1
 598 1120 l 1,4,-1
 428 322 l 2,5,6
 423 296 423 296 423 275 c 0,7,8
 423 214 423 214 467 182 c 0,9,10
 527 140 527 140 625 140 c 128,-1,11
 723 140 723 140 800 181.5 c 128,-1,12
 877 223 877 223 898 322 c 2,13,-1
 1051 1039 l 1,14,-1
 1238 1120 l 1,15,-1
 1248 1120 l 1,16,-1
 1078 318 l 2,17,18
 1038 131 1038 131 922 62 c 0,19,20
 783 -20 783 -20 611 -20 c 0,21,22
 444 -20 444 -20 370 49 c 1,23,-1
 286 -349 l 1,24,-1
 99 -430 l 1,0,-1
EndSplineSet
Validated: 1
EndChar

StartChar: paragraph
Encoding: 182 182 118
Width: 1180
GlyphClass: 2
Flags: W
HStem: -20 21G<776 833.143> 548 982<635.172 885.998>
DStem2: 776 -20 846.048 -20 0.207912 0.978148<43.1894 637.808> 909.459 -20 975.87 -20 0.207912 0.978148<105.818 1185.91>
LayerCount: 2
Fore
SplineSet
786 -20 m 1,0,-1
 776 -20 l 1,1,-1
 908 604 l 1,2,3
 813 548 813 548 691 548 c 0,4,5
 519 548 519 548 415 630 c 0,6,7
 329 697 329 697 329 810 c 0,8,9
 329 846 329 846 338 886 c 2,10,-1
 403 1192 l 2,11,12
 443 1379 443 1379 559 1448 c 0,13,14
 698 1530 698 1530 870 1530 c 128,-1,15
 1042 1530 1042 1530 1156 1448 c 0,16,17
 1242 1386 1242 1386 1242 1272 c 0,18,19
 1242 1235 1242 1235 1233 1192 c 2,20,-1
 995 70 l 1,21,-1
 922 39 l 1,22,-1
 1156 1140 l 1,23,-1
 1086 1110 l 1,24,-1
 852 8 l 1,25,-1
 786 -20 l 1,0,-1
EndSplineSet
Validated: 1
EndChar

StartChar: periodcentered
Encoding: 183 183 119
Width: 340
GlyphClass: 2
Flags: W
HStem: 632 245<254.711 405.42>
VStem: 207 246<679.592 828.764>
LayerCount: 2
Fore
SplineSet
356 877 m 0,0,1
 408 877 408 877 434 841 c 0,2,3
 453 816 453 816 453 782 c 0,4,5
 453 768 453 768 450 754 c 0,6,7
 439 704 439 704 396.5 668 c 128,-1,8
 354 632 354 632 304 632 c 128,-1,9
 254 632 254 632 226 668 c 0,10,11
 207 693 207 693 207 727 c 0,12,13
 207 740 207 740 210 754 c 0,14,15
 221 804 221 804 263.5 840.5 c 128,-1,16
 306 877 306 877 356 877 c 0,0,1
EndSplineSet
Validated: 1
EndChar

StartChar: cedilla
Encoding: 184 184 120
Width: 420
GlyphClass: 2
Flags: W
HStem: -410 410 -20 20G<156 254.5>
VStem: 188 143<-239.266 -78.4795>
LayerCount: 2
Fore
SplineSet
-37 -410 m 1,0,-1
 -35 -400 l 1,1,-1
 47 -280 l 1,2,3
 165 -264 165 -264 185 -173 c 0,4,5
 188 -158 188 -158 188 -145 c 0,6,7
 188 -95 188 -95 140 -76 c 1,8,-1
 156 0 l 1,9,-1
 259 0 l 1,10,-1
 250 -40 l 1,11,12
 331 -77 331 -77 331 -165 c 0,13,14
 331 -176 331 -176 330 -187 c 0,15,16
 304 -410 304 -410 -37 -410 c 1,0,-1
EndSplineSet
Validated: 1
EndChar

StartChar: uni00B9
Encoding: 185 185 121
Width: 412
VWidth: 1401
GlyphClass: 2
Flags: W
VStem: 328 318
DStem2: 328 736 468.16 736 0.207912 0.978148<81.2802 658.411>
LayerCount: 2
Fore
SplineSet
636 1570 m 1,0,-1
 646 1570 l 1,1,-1
 479 787 l 1,2,-1
 338 736 l 1,3,-1
 328 736 l 1,4,-1
 465 1380 l 1,5,-1
 331 1322 l 1,6,-1
 360 1460 l 1,7,-1
 636 1570 l 1,0,-1
EndSplineSet
Validated: 1
EndChar

StartChar: ordmasculine
Encoding: 186 186 122
Width: 554
GlyphClass: 2
Flags: W
HStem: 790 120<295 620> 961 120<423.627 608.208> 1449 121<483.291 667.751>
VStem: 289 134<1085.65 1333.78> 669 134<1197.22 1444.23>
DStem2: 217.692 790 348.055 790 0.207912 0.978148<379.444 702.907> 542.055 790 671.692 790 0.207912 0.978148<295.8 618.906>
LayerCount: 2
Fore
SplineSet
584 1449 m 0,0,1
 488 1449 488 1449 473 1379 c 2,2,-1
 425 1152 l 2,3,4
 423 1143 423 1143 423 1134 c 0,5,6
 423 1081 423 1081 508 1081 c 0,7,8
 604 1081 604 1081 619 1152 c 2,9,-1
 667 1379 l 2,10,11
 669 1388 669 1388 669 1396 c 0,12,13
 669 1449 669 1449 584 1449 c 0,0,1
601 1570 m 0,14,15
 690 1570 690 1570 756 1524 c 0,16,17
 803 1491 803 1491 803 1426 c 0,18,19
 803 1405 803 1405 798 1382 c 2,20,-1
 748 1149 l 2,21,22
 725 1044 725 1044 660 1006 c 0,23,24
 583 961 583 961 491 961 c 0,25,26
 394 961 394 961 336 1007 c 0,27,28
 289 1044 289 1044 289 1107 c 0,29,30
 289 1127 289 1127 294 1149 c 2,31,-1
 344 1382 l 2,32,33
 366 1486 366 1486 432 1525 c 0,34,35
 509 1570 509 1570 601 1570 c 0,14,15
218 790 m 1,36,-1
 220 800 l 1,37,-1
 295 910 l 1,38,-1
 697 910 l 1,39,-1
 695 900 l 1,40,-1
 620 790 l 1,41,-1
 218 790 l 1,36,-1
EndSplineSet
Validated: 1
EndChar

StartChar: guillemotright
Encoding: 187 187 123
Width: 1100
GlyphClass: 2
Flags: W
DStem2: 270 379 405 313 0.625126 0.780524<32.8774 497.102> 592 1197 442 1136 0.353442 -0.935457<4.04659 399.647> 622 379 757 313 0.625126 0.780524<32.8774 498.508> 944 1197 794 1136 0.353442 -0.935457<4.04659 399.065>
LayerCount: 2
Fore
SplineSet
759 755 m 1,0,-1
 405 313 l 1,1,-1
 395 313 l 1,2,-1
 270 379 l 1,3,-1
 582 766 l 1,4,-1
 442 1136 l 1,5,-1
 582 1197 l 1,6,-1
 592 1197 l 1,7,-1
 759 755 l 1,0,-1
1111 755 m 1,8,-1
 757 313 l 1,9,-1
 747 313 l 1,10,-1
 622 379 l 1,11,-1
 935 767 l 1,12,-1
 794 1136 l 1,13,-1
 934 1197 l 1,14,-1
 944 1197 l 1,15,-1
 1111 755 l 1,8,-1
EndSplineSet
Validated: 1
EndChar

StartChar: onequarter
Encoding: 188 188 124
Width: 1572
VWidth: 1401
GlyphClass: 2
Flags: W
HStem: -20 21G<413.284 473.756 1202 1267.29> 180 131<1109 1244 1412 1413> 1510 20G<677 737 1332.26 1393.01>
DStem2: 267.81 -20 407.969 -20 0.207912 0.978148<813.276 1390.41> 327 47 460 -20 0.566694 0.823928<20.1671 1799.35> 860 190 1109 311 0.666606 0.74541<256.18 576.986> 1202 -20 1342.16 -20 0.207912 0.978148<81.2802 204.362 367.428 582.701>
LayerCount: 2
Fore
SplineSet
450 -20 m 1,0,-1
 327 47 l 1,1,-1
 1346 1530 l 1,2,-1
 1356 1530 l 1,3,-1
 1480 1463 l 1,4,-1
 460 -20 l 1,5,-1
 450 -20 l 1,0,-1
727 1530 m 1,6,-1
 737 1530 l 1,7,-1
 571 747 l 1,8,-1
 430 696 l 1,9,-1
 420 696 l 1,10,-1
 557 1340 l 1,11,-1
 422 1282 l 1,12,-1
 452 1420 l 1,13,-1
 727 1530 l 1,6,-1
1109 311 m 1,14,-1
 1272 311 l 1,15,-1
 1323 550 l 1,16,-1
 1109 311 l 1,14,-1
1212 -20 m 1,17,-1
 1202 -20 l 1,18,-1
 1244 180 l 1,19,-1
 858 180 l 1,20,-1
 860 190 l 1,21,-1
 1376 767 l 1,22,-1
 1509 815 l 1,23,-1
 1519 815 l 1,24,-1
 1412 311 l 1,25,-1
 1488 311 l 1,26,-1
 1486 301 l 1,27,-1
 1413 180 l 1,28,-1
 1384 180 l 1,29,-1
 1353 31 l 1,30,-1
 1212 -20 l 1,17,-1
EndSplineSet
Validated: 1
EndChar

StartChar: onehalf
Encoding: 189 189 125
Width: 1718
VWidth: 1401
GlyphClass: 2
Flags: W
HStem: -20 21G<413.284 473.756> 0 131<1287 1521> 675 132<1303.15 1537.73> 1510 20G<677 737 1332.26 1393.01>
VStem: 1553 144<546.948 654.558>
DStem2: 267.81 -20 407.969 -20 0.207912 0.978148<813.276 1390.41> 327 47 460 -20 0.566694 0.823928<20.1671 1799.35> 1087 123 1287 131 0.80033 0.59956<164.862 588.873> 1421.97 -20 1563.9 -20 0.207912 0.978148<443.388 641.183>
LayerCount: 2
Fore
SplineSet
450 -20 m 1,0,-1
 327 47 l 1,1,-1
 1346 1530 l 1,2,-1
 1356 1530 l 1,3,-1
 1480 1463 l 1,4,-1
 460 -20 l 1,5,-1
 450 -20 l 1,0,-1
1447 807 m 0,6,7
 1571 807 1571 807 1642 755 c 0,8,9
 1697 715 1697 715 1697 640 c 0,10,11
 1697 616 1697 616 1691 589 c 2,12,-1
 1682 545 l 2,13,14
 1650 389 1650 389 1488 274 c 2,15,-1
 1287 131 l 1,16,-1
 1596 131 l 1,17,-1
 1594 121 l 1,18,-1
 1521 0 l 1,19,-1
 1017 0 l 1,20,-1
 1019 10 l 1,21,-1
 1087 123 l 1,22,-1
 1378 341 l 2,23,24
 1522 449 1522 449 1541 540 c 2,25,-1
 1550 584 l 2,26,27
 1553 597 1553 597 1553 608 c 0,28,29
 1553 641 1553 641 1528 655 c 0,30,31
 1495 675 1495 675 1437 675 c 0,32,33
 1296 675 1296 675 1285 584 c 2,34,-1
 1284 576 l 1,35,-1
 1141 518 l 1,36,-1
 1131 518 l 1,37,-1
 1145 584 l 2,38,39
 1171 713 1171 713 1243 754 c 0,40,41
 1337 807 1337 807 1447 807 c 0,6,7
727 1530 m 1,42,-1
 737 1530 l 1,43,-1
 571 747 l 1,44,-1
 430 696 l 1,45,-1
 420 696 l 1,46,-1
 557 1340 l 1,47,-1
 422 1282 l 1,48,-1
 452 1420 l 1,49,-1
 727 1530 l 1,42,-1
EndSplineSet
Validated: 1
EndChar

StartChar: threequarters
Encoding: 190 190 126
Width: 1796
VWidth: 1401
GlyphClass: 2
Flags: W
HStem: -20 21G<637.284 697.756 1426 1491.29> 180 131<1333 1468 1636 1637> 723 131<492.474 722.645> 1400 130<579 735>
VStem: 353 135<863.682 956.938> 766 143<978.019 1099.53>
DStem2: 539.67 -20 679.883 -20 0.207912 0.978148<900.223 1095.29> 551 47 684 -20 0.566694 0.823928<20.1671 1799.35> 1084 190 1333 311 0.666606 0.74541<256.18 576.986> 1426 -20 1566.16 -20 0.207912 0.978148<81.2802 204.362 367.428 582.701>
LayerCount: 2
Fore
SplineSet
674 -20 m 1,0,-1
 551 47 l 1,1,-1
 1570 1530 l 1,2,-1
 1580 1530 l 1,3,-1
 1704 1463 l 1,4,-1
 684 -20 l 1,5,-1
 674 -20 l 1,0,-1
579 1530 m 1,6,-1
 989 1530 l 1,7,-1
 765 1225 l 1,8,9
 909 1190 909 1190 909 1075 c 0,10,11
 909 1052 909 1052 903 1027 c 2,12,-1
 885 945 l 2,13,14
 859 822 859 822 779 776 c 0,15,16
 687 724 687 724 581 723 c 0,17,18
 466 723 466 723 402 775 c 0,19,20
 353 815 353 815 353 902 c 0,21,22
 353 924 353 924 356 950 c 1,23,-1
 493 998 l 1,24,-1
 503 998 l 1,25,-1
 491 946 l 2,26,27
 488 933 488 933 488 922 c 0,28,29
 488 854 488 854 599 854 c 0,30,31
 725 854 725 854 745 946 c 2,32,-1
 763 1028 l 2,33,34
 766 1041 766 1041 766 1052 c 0,35,36
 766 1085 766 1085 740 1100 c 0,37,38
 707 1120 707 1120 660 1120 c 0,39,40
 621 1120 621 1120 572 1106 c 1,41,-1
 550 1148 l 1,42,-1
 735 1400 l 1,43,-1
 504 1400 l 1,44,-1
 506 1410 l 1,45,-1
 579 1530 l 1,6,-1
1333 311 m 1,46,-1
 1496 311 l 1,47,-1
 1547 550 l 1,48,-1
 1333 311 l 1,46,-1
1436 -20 m 1,49,-1
 1426 -20 l 1,50,-1
 1468 180 l 1,51,-1
 1082 180 l 1,52,-1
 1084 190 l 1,53,-1
 1600 767 l 1,54,-1
 1733 815 l 1,55,-1
 1743 815 l 1,56,-1
 1636 311 l 1,57,-1
 1712 311 l 1,58,-1
 1710 301 l 1,59,-1
 1637 180 l 1,60,-1
 1608 180 l 1,61,-1
 1577 31 l 1,62,-1
 1436 -20 l 1,49,-1
EndSplineSet
Validated: 1
EndChar

StartChar: questiondown
Encoding: 191 191 127
Width: 1310
GlyphClass: 2
Flags: W
HStem: -430 180<402.574 818.84> 875 245<811.58 962.099>
VStem: 134 204<-188.875 8.90504> 764 246<923.236 1072.41>
DStem2: 59.1271 -430 259.127 -430 0.207912 0.978148<396.269 698.101>
LayerCount: 2
Fore
SplineSet
913 1120 m 0,0,1
 965 1120 965 1120 991 1084 c 0,2,3
 1010 1058 1010 1058 1010 1025 c 0,4,5
 1010 1012 1010 1012 1007 998 c 0,6,7
 996 948 996 948 953.5 911.5 c 128,-1,8
 911 875 911 875 861 875 c 128,-1,9
 811 875 811 875 783 911 c 0,10,11
 764 935 764 935 764 970 c 0,12,13
 764 984 764 984 767 998 c 0,14,15
 778 1048 778 1048 820.5 1084 c 128,-1,16
 863 1120 863 1120 913 1120 c 0,0,1
584 -430 m 128,-1,18
 374 -430 374 -430 237 -334 c 0,19,20
 134 -262 134 -262 134 -124 c 0,21,22
 134 -79 134 -79 145 -26 c 2,23,-1
 157 30 l 2,24,25
 227 357 227 357 587 523 c 0,26,27
 687 569 687 569 706 646 c 1,28,-1
 919 739 l 1,29,-1
 929 739 l 1,30,31
 870 462 870 462 638 357 c 0,32,33
 401 249 401 249 356 28 c 2,34,-1
 345 -26 l 2,35,36
 338 -58 338 -58 338 -85 c 0,37,38
 338 -166 338 -166 397 -202 c 0,39,40
 476 -250 476 -250 602.5 -250 c 128,-1,41
 729 -250 729 -250 828.5 -201.5 c 128,-1,42
 928 -153 928 -153 955 -26 c 1,43,-1
 1164 64 l 1,44,-1
 1174 64 l 1,45,-1
 1155 -26 l 2,46,47
 1108 -251 1108 -251 962 -334 c 0,48,17
 794 -430 794 -430 584 -430 c 128,-1,18
EndSplineSet
Validated: 1
EndChar

StartChar: endash
Encoding: 8211 8211 128
Width: 1200
GlyphClass: 2
Flags: W
HStem: 680 150<392 1129>
LayerCount: 2
Fore
SplineSet
392 830 m 5,0,-1
 1226 830 l 5,1,-1
 1224 820 l 5,2,-1
 1129 680 l 5,3,-1
 295 680 l 5,4,-1
 297 690 l 5,5,-1
 392 830 l 5,0,-1
EndSplineSet
Validated: 1
EndChar

StartChar: emdash
Encoding: 8212 8212 129
Width: 1500
GlyphClass: 2
Flags: W
HStem: 680 150<392 1429>
LayerCount: 2
Fore
SplineSet
392 830 m 1,0,-1
 1526 830 l 1,1,-1
 1524 820 l 1,2,-1
 1429 680 l 1,3,-1
 295 680 l 1,4,-1
 297 690 l 1,5,-1
 392 830 l 1,0,-1
EndSplineSet
Validated: 1
EndChar

StartChar: afii00208
Encoding: 8213 8213 130
Width: 1500
GlyphClass: 2
Flags: W
HStem: 680 150<392 1429>
LayerCount: 2
Fore
SplineSet
392 830 m 1,0,-1
 1526 830 l 1,1,-1
 1524 820 l 1,2,-1
 1429 680 l 1,3,-1
 295 680 l 1,4,-1
 297 690 l 1,5,-1
 392 830 l 1,0,-1
EndSplineSet
Validated: 1
EndChar

StartChar: quoteleft
Encoding: 8216 8216 131
Width: 389
GlyphClass: 2
Flags: W
HStem: 1046 554
VStem: 317 166<1169.5 1389.61>
LayerCount: 2
Fore
SplineSet
615 1600 m 1,0,-1
 621 1593 l 1,1,2
 516 1463 516 1463 488 1334 c 0,3,4
 483 1309 483 1309 483 1287 c 0,5,6
 483 1190 483 1190 578 1126 c 1,7,-1
 391 1046 l 1,8,-1
 381 1046 l 1,9,10
 317 1126 317 1126 317 1223 c 0,11,12
 317 1256 317 1256 324 1290 c 0,13,14
 366 1487 366 1487 615 1600 c 1,0,-1
EndSplineSet
Validated: 1
EndChar

StartChar: quoteright
Encoding: 8217 8217 132
Width: 389
GlyphClass: 2
Flags: W
HStem: 1046 554
VStem: 468 166<1257.27 1476.22>
LayerCount: 2
Fore
SplineSet
560 1600 m 1,0,-1
 570 1600 l 1,1,2
 634 1520 634 1520 634 1423 c 0,3,4
 634 1390 634 1390 627 1356 c 0,5,6
 585 1159 585 1159 336 1046 c 1,7,-1
 331 1053 l 1,8,9
 436 1183 436 1183 463 1312 c 0,10,11
 468 1336 468 1336 468 1359 c 0,12,13
 468 1456 468 1456 373 1520 c 1,14,-1
 560 1600 l 1,0,-1
EndSplineSet
Validated: 1
EndChar

StartChar: quotesinglbase
Encoding: 8218 8218 133
Width: 389
GlyphClass: 2
Flags: W
HStem: -276 554
VStem: 187 166<-64.7295 154.218>
LayerCount: 2
Fore
SplineSet
279 278 m 1,0,-1
 289 278 l 1,1,2
 353 198 353 198 353 101 c 0,3,4
 353 68 353 68 346 34 c 0,5,6
 304 -163 304 -163 55 -276 c 1,7,-1
 50 -269 l 1,8,9
 155 -139 155 -139 182 -10 c 0,10,11
 187 14 187 14 187 37 c 0,12,13
 187 134 187 134 92 198 c 1,14,-1
 279 278 l 1,0,-1
EndSplineSet
Validated: 1
EndChar

StartChar: quotereversed
Encoding: 8219 8219 134
Width: 389
GlyphClass: 2
Flags: W
HStem: 1053 547
VStem: 331 143<1149.75 1394.36>
LayerCount: 2
Fore
SplineSet
509 1600 m 1,0,-1
 662 1520 l 1,1,2
 512 1441 512 1441 484 1312 c 0,3,4
 474 1266 474 1266 474 1220 c 0,5,6
 474 1137 474 1137 506 1053 c 1,7,-1
 497 1046 l 1,8,9
 331 1139 331 1139 331 1290 c 0,10,11
 331 1322 331 1322 338 1356 c 0,12,13
 367 1493 367 1493 499 1600 c 1,14,-1
 509 1600 l 1,0,-1
EndSplineSet
Validated: 1
EndChar

StartChar: quotedblleft
Encoding: 8220 8220 135
Width: 688
GlyphClass: 2
Flags: W
HStem: 1046 554
VStem: 317 166<1169.5 1389.61> 616 166<1169.5 1389.61>
LayerCount: 2
Fore
SplineSet
615 1600 m 1,0,-1
 621 1593 l 1,1,2
 516 1463 516 1463 488 1334 c 0,3,4
 483 1309 483 1309 483 1287 c 0,5,6
 483 1190 483 1190 578 1126 c 1,7,-1
 391 1046 l 1,8,-1
 381 1046 l 1,9,10
 317 1126 317 1126 317 1223 c 0,11,12
 317 1256 317 1256 324 1290 c 0,13,14
 366 1487 366 1487 615 1600 c 1,0,-1
914 1600 m 1,15,-1
 920 1593 l 1,16,17
 816 1463 816 1463 788 1334 c 0,18,19
 783 1309 783 1309 782 1287 c 0,20,21
 782 1190 782 1190 877 1126 c 1,22,-1
 690 1046 l 1,23,-1
 680 1046 l 1,24,25
 616 1126 616 1126 616 1223 c 0,26,27
 616 1256 616 1256 623 1290 c 0,28,29
 665 1487 665 1487 914 1600 c 1,15,-1
EndSplineSet
Validated: 1
EndChar

StartChar: quotedblright
Encoding: 8221 8221 136
Width: 688
GlyphClass: 2
Flags: W
HStem: 1046 554
VStem: 468 166<1257.27 1476.22> 767 166<1257.27 1476.22>
LayerCount: 2
Fore
SplineSet
859 1600 m 1,0,-1
 869 1600 l 1,1,2
 933 1520 933 1520 933 1423 c 0,3,4
 933 1390 933 1390 926 1356 c 0,5,6
 884 1159 884 1159 635 1046 c 1,7,-1
 630 1053 l 1,8,9
 735 1183 735 1183 762 1312 c 0,10,11
 767 1336 767 1336 767 1359 c 0,12,13
 767 1456 767 1456 672 1520 c 1,14,-1
 859 1600 l 1,0,-1
560 1600 m 1,15,-1
 570 1600 l 1,16,17
 634 1520 634 1520 634 1423 c 0,18,19
 634 1390 634 1390 627 1356 c 0,20,21
 585 1159 585 1159 336 1046 c 1,22,-1
 331 1053 l 1,23,24
 436 1183 436 1183 463 1312 c 0,25,26
 468 1336 468 1336 468 1359 c 0,27,28
 468 1456 468 1456 373 1520 c 1,29,-1
 560 1600 l 1,15,-1
EndSplineSet
Validated: 1
EndChar

StartChar: quotedblbase
Encoding: 8222 8222 137
Width: 688
GlyphClass: 2
Flags: W
HStem: -276 554
VStem: 187 166<-64.7295 154.218> 486 166<-64.7295 154.218>
LayerCount: 2
Fore
SplineSet
578 278 m 1,0,-1
 588 278 l 1,1,2
 652 198 652 198 652 101 c 0,3,4
 652 68 652 68 645 34 c 0,5,6
 603 -163 603 -163 354 -276 c 1,7,-1
 349 -269 l 1,8,9
 454 -139 454 -139 481 -10 c 0,10,11
 486 14 486 14 486 37 c 0,12,13
 486 134 486 134 391 198 c 1,14,-1
 578 278 l 1,0,-1
279 278 m 1,15,-1
 289 278 l 1,16,17
 353 198 353 198 353 101 c 0,18,19
 353 68 353 68 346 34 c 0,20,21
 304 -163 304 -163 55 -276 c 1,22,-1
 50 -269 l 1,23,24
 155 -139 155 -139 182 -10 c 0,25,26
 187 14 187 14 187 37 c 0,27,28
 187 134 187 134 92 198 c 1,29,-1
 279 278 l 1,15,-1
EndSplineSet
Validated: 1
EndChar

StartChar: dagger
Encoding: 8224 8224 138
Width: 1214
GlyphClass: 2
Flags: W
HStem: -20 21G<503 559.444> 998 180<480 719 957 1196> 1510 20G<975.556 1032>
DStem2: 503 -20 702.87 -20 0.207912 0.978148<133.566 1040.66 1266.21 1492.55>
LayerCount: 2
Fore
SplineSet
513 -20 m 1,0,-1
 503 -20 l 1,1,-1
 719 998 l 1,2,-1
 362 998 l 1,3,-1
 364 1008 l 1,4,-1
 480 1178 l 1,5,-1
 757 1178 l 1,6,-1
 813 1440 l 1,7,-1
 1022 1530 l 1,8,-1
 1032 1530 l 1,9,-1
 957 1178 l 1,10,-1
 1314 1178 l 1,11,-1
 1312 1168 l 1,12,-1
 1196 998 l 1,13,-1
 919 998 l 1,14,-1
 722 70 l 1,15,-1
 513 -20 l 1,0,-1
EndSplineSet
Validated: 1
EndChar

StartChar: daggerdbl
Encoding: 8225 8225 139
Width: 1214
GlyphClass: 2
Flags: W
HStem: -20 21G<503 559.444> 332 180<339 578 816 1055> 998 180<480 719 957 1196> 1510 20G<975.556 1032>
DStem2: 503 -20 702.87 -20 0.207912 0.978148<133.566 359.901 585.451 1040.66 1266.21 1492.55>
LayerCount: 2
Fore
SplineSet
513 -20 m 1,0,-1
 503 -20 l 1,1,-1
 578 332 l 1,2,-1
 221 332 l 1,3,-1
 223 342 l 1,4,-1
 339 512 l 1,5,-1
 616 512 l 1,6,-1
 719 998 l 1,7,-1
 362 998 l 1,8,-1
 364 1008 l 1,9,-1
 480 1178 l 1,10,-1
 757 1178 l 1,11,-1
 813 1440 l 1,12,-1
 1022 1530 l 1,13,-1
 1032 1530 l 1,14,-1
 957 1178 l 1,15,-1
 1314 1178 l 1,16,-1
 1312 1168 l 1,17,-1
 1196 998 l 1,18,-1
 919 998 l 1,19,-1
 816 512 l 1,20,-1
 1173 512 l 1,21,-1
 1171 502 l 1,22,-1
 1055 332 l 1,23,-1
 778 332 l 1,24,-1
 722 70 l 1,25,-1
 513 -20 l 1,0,-1
EndSplineSet
Validated: 1
EndChar

StartChar: bullet
Encoding: 8226 8226 140
Width: 904
GlyphClass: 2
Flags: W
HStem: 448 614<470.438 755.119>
VStem: 291 643<648.258 861.742>
LayerCount: 2
Fore
SplineSet
668 1062 m 128,-1,1
 793 1062 793 1062 874 1002 c 0,2,3
 934 958 934 958 934 875 c 0,4,5
 934 847 934 847 927 814 c 2,6,-1
 902 696 l 2,7,8
 873 561 873 561 784 508 c 0,9,10
 683 448 683 448 558 448 c 128,-1,11
 433 448 433 448 352 508 c 0,12,13
 291 553 291 553 291 636 c 0,14,15
 291 664 291 664 298 696 c 2,16,-1
 323 814 l 2,17,18
 351 949 351 949 441 1002 c 0,19,0
 543 1062 543 1062 668 1062 c 128,-1,1
EndSplineSet
Validated: 1
EndChar

StartChar: ellipsis
Encoding: 8230 8230 141
Width: 1012
GlyphClass: 2
Flags: W
HStem: -20 245<116.901 267.42 452.901 603.42 788.901 939.42>
VStem: 69 246<27.5918 176.764> 405 246<27.5918 176.764> 741 246<27.5918 176.764>
CounterMasks: 1 70
LayerCount: 2
Fore
SplineSet
838 -20 m 0,0,1
 786 -20 786 -20 760 16 c 0,2,3
 741 42 741 42 741 75 c 0,4,5
 741 88 741 88 744 102 c 0,6,7
 755 152 755 152 797.5 188.5 c 128,-1,8
 840 225 840 225 890 225 c 128,-1,9
 940 225 940 225 968 189 c 0,10,11
 987 165 987 165 987 130 c 0,12,13
 987 116 987 116 984 102 c 0,14,15
 973 52 973 52 930.5 16 c 128,-1,16
 888 -20 888 -20 838 -20 c 0,0,1
502 -20 m 0,17,18
 450 -20 450 -20 424 16 c 0,19,20
 405 42 405 42 405 75 c 0,21,22
 405 88 405 88 408 102 c 0,23,24
 419 152 419 152 461.5 188.5 c 128,-1,25
 504 225 504 225 554 225 c 128,-1,26
 604 225 604 225 632 189 c 0,27,28
 651 165 651 165 651 130 c 0,29,30
 651 116 651 116 648 102 c 0,31,32
 637 52 637 52 594.5 16 c 128,-1,33
 552 -20 552 -20 502 -20 c 0,17,18
166 -20 m 0,34,35
 114 -20 114 -20 88 16 c 0,36,37
 69 42 69 42 69 75 c 0,38,39
 69 88 69 88 72 102 c 0,40,41
 83 152 83 152 125.5 188.5 c 128,-1,42
 168 225 168 225 218 225 c 128,-1,43
 268 225 268 225 296 189 c 0,44,45
 315 165 315 165 315 130 c 0,46,47
 315 116 315 116 312 102 c 0,48,49
 301 52 301 52 258.5 16 c 128,-1,50
 216 -20 216 -20 166 -20 c 0,34,35
EndSplineSet
Validated: 1
EndChar

StartChar: perthousand
Encoding: 8240 8240 142
Width: 2220
GlyphClass: 2
Flags: W
HStem: -20 129<1001.78 1249.94 1674.78 1922.94> 470 124<1050.36 1311.12 1723.36 1984.12> 916 129<557.369 805.936> 1406 124<606.12 867.116>
VStem: 390 144<1069.77 1326.39> 834 144<134.878 389.697> 891 142<1123.54 1380.34> 1335 143<187.412 445.01> 1507 144<134.878 389.697> 2008 143<187.412 445.01>
DStem2: 145.333 -20 284.845 -20 0.207912 0.978148<1213.01 1464.88> 358 47 491 -20 0.566694 0.823928<20.1671 1799.35> 610.889 -20 749.333 -20 0.207912 0.978148<1111.64 1361.62> 788.286 -20 927.798 -20 0.207912 0.978148<256.104 508.859> 1253.84 -20 1392.29 -20 0.207912 0.978148<154.141 404.709> 1461.29 -20 1600.8 -20 0.207912 0.978148<256.104 508.859> 1926.84 -20 2065.29 -20 0.207912 0.978148<154.141 404.709>
LayerCount: 2
Fore
SplineSet
1791 109 m 0,0,1
 1860 109 1860 109 1913 137.5 c 128,-1,2
 1966 166 1966 166 1981 235 c 2,3,-1
 2004 343 l 2,4,5
 2008 361 2008 361 2008 377 c 0,6,7
 2008 420 2008 420 1978 441 c 0,8,9
 1937 470 1937 470 1868 470 c 128,-1,10
 1799 470 1799 470 1746 441 c 128,-1,11
 1693 412 1693 412 1678 343 c 2,12,-1
 1655 235 l 2,13,14
 1651 217 1651 217 1651 201 c 0,15,16
 1651 158 1651 158 1681 138 c 0,17,18
 1722 110 1722 110 1791 109 c 0,0,1
1774 -20 m 0,19,20
 1644 -20 1644 -20 1568 40 c 0,21,22
 1507 88 1507 88 1507 170 c 0,23,24
 1507 197 1507 197 1514 228 c 2,25,-1
 1540 346 l 2,26,27
 1570 482 1570 482 1658 534 c 0,28,29
 1759 594 1759 594 1884 594 c 128,-1,30
 2009 594 2009 594 2090 534 c 0,31,32
 2151 489 2151 489 2151 406 c 0,33,34
 2151 378 2151 378 2144 346 c 2,35,-1
 2118 228 l 2,36,37
 2088 92 2088 92 2000 40 c 0,38,39
 1899 -20 1899 -20 1774 -20 c 0,19,20
481 -20 m 1,40,-1
 358 47 l 1,41,-1
 1377 1530 l 1,42,-1
 1387 1530 l 1,43,-1
 1511 1463 l 1,44,-1
 491 -20 l 1,45,-1
 481 -20 l 1,40,-1
1118 109 m 0,46,47
 1187 109 1187 109 1240 137.5 c 128,-1,48
 1293 166 1293 166 1308 235 c 2,49,-1
 1331 343 l 2,50,51
 1335 361 1335 361 1335 377 c 0,52,53
 1335 420 1335 420 1305 441 c 0,54,55
 1264 470 1264 470 1195 470 c 128,-1,56
 1126 470 1126 470 1073 441 c 128,-1,57
 1020 412 1020 412 1005 343 c 2,58,-1
 982 235 l 2,59,60
 978 217 978 217 978 201 c 0,61,62
 978 158 978 158 1008 138 c 0,63,64
 1049 110 1049 110 1118 109 c 0,46,47
1101 -20 m 0,65,66
 971 -20 971 -20 895 40 c 0,67,68
 834 88 834 88 834 170 c 0,69,70
 834 197 834 197 841 228 c 2,71,-1
 867 346 l 2,72,73
 897 482 897 482 985 534 c 0,74,75
 1086 594 1086 594 1211 594 c 128,-1,76
 1336 594 1336 594 1417 534 c 0,77,78
 1478 489 1478 489 1478 406 c 0,79,80
 1478 378 1478 378 1471 346 c 2,81,-1
 1445 228 l 2,82,83
 1415 92 1415 92 1327 40 c 0,84,85
 1226 -20 1226 -20 1101 -20 c 0,65,66
751 1406 m 128,-1,87
 682 1406 682 1406 629 1377 c 128,-1,88
 576 1348 576 1348 561 1279 c 2,89,-1
 538 1171 l 2,90,91
 534 1153 534 1153 534 1137 c 0,92,93
 535 1095 535 1095 564 1074 c 0,94,95
 604 1045 604 1045 674 1045 c 0,96,97
 743 1045 743 1045 796 1073.5 c 128,-1,98
 849 1102 849 1102 864 1171 c 2,99,-1
 887 1279 l 2,100,101
 891 1297 891 1297 891 1313 c 0,102,103
 891 1356 891 1356 861 1377 c 0,104,86
 820 1406 820 1406 751 1406 c 128,-1,87
767 1530 m 128,-1,106
 892 1530 892 1530 973 1470 c 0,107,108
 1033 1426 1033 1426 1033 1343 c 0,109,110
 1033 1315 1033 1315 1026 1282 c 2,111,-1
 1001 1164 l 2,112,113
 972 1029 972 1029 883 976 c 0,114,115
 782 916 782 916 657 916 c 128,-1,116
 532 916 532 916 451 976 c 0,117,118
 390 1021 390 1021 390 1104 c 0,119,120
 390 1132 390 1132 397 1164 c 2,121,-1
 422 1282 l 2,122,123
 450 1417 450 1417 540 1470 c 0,124,105
 642 1530 642 1530 767 1530 c 128,-1,106
EndSplineSet
Validated: 1
EndChar

StartChar: minute
Encoding: 8242 8242 143
Width: 414
GlyphClass: 2
Flags: W
HStem: 1201 399
VStem: 315 374
LayerCount: 2
Fore
SplineSet
541 1600 m 1,0,-1
 551 1600 l 1,1,-1
 689 1527 l 1,2,-1
 409 1201 l 1,3,-1
 399 1201 l 1,4,-1
 315 1245 l 1,5,-1
 541 1600 l 1,0,-1
EndSplineSet
Validated: 1
EndChar

StartChar: second
Encoding: 8243 8243 144
Width: 667
GlyphClass: 2
Flags: W
HStem: 1201 399
VStem: 315 627
LayerCount: 2
Fore
SplineSet
794 1600 m 1,0,-1
 804 1600 l 1,1,-1
 942 1527 l 1,2,-1
 662 1201 l 1,3,-1
 652 1201 l 1,4,-1
 568 1245 l 1,5,-1
 794 1600 l 1,0,-1
541 1600 m 1,6,-1
 551 1600 l 1,7,-1
 689 1527 l 1,8,-1
 409 1201 l 1,9,-1
 399 1201 l 1,10,-1
 315 1245 l 1,11,-1
 541 1600 l 1,6,-1
EndSplineSet
Validated: 1
EndChar

StartChar: guilsinglleft
Encoding: 8249 8249 145
Width: 748
GlyphClass: 2
Flags: W
VStem: 310 489
DStem2: 486 743 310 755 0.353442 -0.935457<0 395.019> 310 755 486 743 0.625126 0.780524<100.656 566.286>
LayerCount: 2
Fore
SplineSet
310 755 m 1,0,-1
 664 1197 l 1,1,-1
 674 1197 l 1,2,-1
 799 1131 l 1,3,-1
 486 743 l 1,4,-1
 627 374 l 1,5,-1
 487 313 l 1,6,-1
 477 313 l 1,7,-1
 310 755 l 1,0,-1
EndSplineSet
Validated: 1
EndChar

StartChar: guilsinglright
Encoding: 8250 8250 146
Width: 798
GlyphClass: 2
Flags: W
VStem: 270 489
DStem2: 270 379 405 313 0.625126 0.780524<32.8774 498.508> 592 1197 442 1136 0.353442 -0.935457<4.04659 399.065>
LayerCount: 2
Fore
SplineSet
759 755 m 1,0,-1
 405 313 l 1,1,-1
 395 313 l 1,2,-1
 270 379 l 1,3,-1
 583 767 l 1,4,-1
 442 1136 l 1,5,-1
 582 1197 l 1,6,-1
 592 1197 l 1,7,-1
 759 755 l 1,0,-1
EndSplineSet
Validated: 1
EndChar

StartChar: fraction
Encoding: 8260 8260 147
Width: 872
GlyphClass: 2
Flags: W
HStem: -20 21G<106.284 166.756> 1510 20G<1025.26 1086.01>
DStem2: 20 47 153 -20 0.566694 0.823928<20.1671 1799.35>
LayerCount: 2
Fore
SplineSet
143 -20 m 1,0,-1
 20 47 l 1,1,-1
 1039 1530 l 1,2,-1
 1049 1530 l 1,3,-1
 1173 1463 l 1,4,-1
 153 -20 l 1,5,-1
 143 -20 l 1,0,-1
EndSplineSet
Validated: 1
EndChar

StartChar: Euro
Encoding: 8364 8364 148
Width: 1400
GlyphClass: 2
Flags: W
HStem: -20 180<579.645 996.299> 595 120<284 366 592 1044> 795 120<326 409 634 1087> 1350 180<815.433 1230.79>
VStem: 311 204<218.995 438.998> 1296 195<1141.1 1291.43>
DStem2: 236.127 -20 436.127 -20 0.207912 0.978148<395.321 628.563 792.929 833.133 997.29 1366.47>
LayerCount: 2
Fore
SplineSet
761.5 -20 m 128,-1,1
 551 -20 551 -20 414 76 c 0,2,3
 311 149 311 149 311 287 c 0,4,5
 311 332 311 332 322 384 c 2,6,-1
 366 595 l 1,7,-1
 206 595 l 1,8,-1
 209 605 l 1,9,-1
 284 715 l 1,10,-1
 392 715 l 1,11,-1
 409 795 l 1,12,-1
 249 795 l 1,13,-1
 251 805 l 1,14,-1
 326 915 l 1,15,-1
 434 915 l 1,16,-1
 479 1126 l 2,17,18
 527 1351 527 1351 672 1434 c 0,19,20
 840 1530 840 1530 1050 1530 c 0,21,22
 1266 1530 1266 1530 1398 1434 c 0,23,24
 1491 1365 1491 1365 1491 1225 c 0,25,26
 1491 1189 1491 1189 1485 1149 c 1,27,-1
 1286 1062 l 1,28,-1
 1276 1062 l 1,29,-1
 1289 1126 l 2,30,31
 1296 1158 1296 1158 1296 1185 c 0,32,33
 1296 1266 1296 1266 1238 1302 c 0,34,35
 1160 1350 1160 1350 1033 1350 c 128,-1,36
 906 1350 906 1350 806 1301.5 c 128,-1,37
 706 1253 706 1253 679 1126 c 2,38,-1
 634 915 l 1,39,-1
 1164 915 l 1,40,-1
 1162 905 l 1,41,-1
 1087 795 l 1,42,-1
 609 795 l 1,43,-1
 592 715 l 1,44,-1
 1122 715 l 1,45,-1
 1120 705 l 1,46,-1
 1044 595 l 1,47,-1
 566 595 l 1,48,-1
 522 384 l 2,49,50
 515 352 515 352 515 324 c 0,51,52
 515 244 515 244 574 208 c 0,53,54
 653 160 653 160 779.5 160 c 128,-1,55
 906 160 906 160 1005.5 208.5 c 128,-1,56
 1105 257 1105 257 1132 384 c 1,57,-1
 1341 474 l 1,58,-1
 1351 474 l 1,59,-1
 1332 384 l 2,60,61
 1284 159 1284 159 1140 76 c 0,62,0
 972 -20 972 -20 761.5 -20 c 128,-1,1
EndSplineSet
Validated: 1
EndChar

StartChar: afii61248
Encoding: 8453 8453 149
Width: 1625
GlyphClass: 2
Flags: W
HStem: -20 130<1114.57 1354.63> 663 131<1213.21 1443.31> 716 131<501.179 730.659> 1400 130<592.133 819.138>
VStem: 343 143<863.254 1117.72> 835 138<1300.67 1384.39> 966 143<121.358 380.719> 1459 144<392.281 646.638>
DStem2: 145.371 -20 285.158 -20 0.207912 0.978148<985.726 1473.34> 397 47 530 -20 0.566694 0.823928<20.1671 1799.35> 925.025 -20 1064.81 -20 0.207912 0.978148<234.186 719.81> 1330.81 -20 1471.02 -20 0.207912 0.978148<140.395 627.876>
LayerCount: 2
Fore
SplineSet
737 1530 m 0,0,1
 853 1530 853 1530 921 1480 c 0,2,3
 973 1443 973 1443 973 1356 c 0,4,5
 973 1333 973 1333 969 1308 c 1,6,-1
 833 1256 l 1,7,-1
 823 1256 l 1,8,-1
 833 1308 l 2,9,10
 835 1320 835 1320 835 1330 c 0,11,12
 835 1364 835 1364 810 1380 c 0,13,14
 777 1400 777 1400 719 1400 c 0,15,16
 588 1400 588 1400 568 1308 c 2,17,-1
 489 939 l 2,18,19
 486 926 486 926 486 915 c 0,20,21
 486 882 486 882 511 867 c 0,22,23
 544 847 544 847 602 847 c 0,24,25
 734 847 734 847 755 939 c 2,26,-1
 758 952 l 1,27,-1
 899 1003 l 1,28,-1
 909 1003 l 1,29,-1
 895 939 l 2,30,31
 868 816 868 816 787 769 c 0,32,33
 694 716 694 716 584 716 c 0,34,35
 466 716 466 716 398 769 c 0,36,37
 343 811 343 811 343 886 c 0,38,39
 343 910 343 910 349 938 c 2,40,-1
 428 1309 l 2,41,42
 454 1432 454 1432 534 1478 c 0,43,44
 625 1530 625 1530 737 1530 c 0,0,1
520 -20 m 1,45,-1
 397 47 l 1,46,-1
 1416 1530 l 1,47,-1
 1426 1530 l 1,48,-1
 1550 1463 l 1,49,-1
 530 -20 l 1,50,-1
 520 -20 l 1,45,-1
1226 110 m 0,51,52
 1358 110 1358 110 1378 202 c 2,53,-1
 1456 571 l 2,54,55
 1459 584 1459 584 1459 595 c 0,56,57
 1459 629 1459 629 1434 643 c 0,58,59
 1400 663 1400 663 1343 663 c 0,60,61
 1210 663 1210 663 1190 571 c 2,62,-1
 1112 202 l 2,63,64
 1109 190 1109 190 1109 180 c 0,65,66
 1109 110 1109 110 1226 110 c 0,51,52
1208 -20 m 0,67,68
 1092 -20 1092 -20 1022 32 c 0,69,70
 966 74 966 74 966 149 c 0,71,72
 966 173 966 173 972 201 c 2,73,-1
 1051 572 l 2,74,75
 1077 694 1077 694 1157 740 c 0,76,77
 1248 794 1248 794 1360 794 c 0,78,79
 1472 792 1472 792 1546 740 c 0,80,81
 1603 701 1603 701 1603 626 c 0,82,83
 1603 601 1603 601 1597 572 c 2,84,-1
 1518 201 l 2,85,86
 1492 78 1492 78 1411 32 c 0,87,88
 1319 -20 1319 -20 1208 -20 c 0,67,68
EndSplineSet
Validated: 1
EndChar

StartChar: afii61289
Encoding: 8467 8467 150
Width: 958
GlyphClass: 2
Flags: W
HStem: -20 136<493.285 609.793> 0 21G<50 267.222> 1510 20G<957 1028>
LayerCount: 2
Fore
SplineSet
486 466 m 1,0,1
 648 708 648 708 737 860 c 0,2,3
 896 1134 896 1134 944 1359 c 1,4,5
 826 1238 826 1238 730 1067 c 0,6,7
 544 740 544 740 486 466 c 1,0,1
50 0 m 1,8,9
 205 158 205 158 304 282 c 1,10,11
 310 366 310 366 326 443 c 0,12,13
 366 629 366 629 459 848 c 0,14,15
 633 1251 633 1251 822 1434 c 0,16,17
 920 1530 920 1530 994 1530 c 0,18,19
 1062 1530 1062 1530 1086 1479 c 0,20,21
 1099 1453 1099 1453 1099 1410 c 0,22,23
 1099 1371 1099 1371 1088 1318 c 0,24,25
 1068 1226 1068 1226 1006 1072 c 0,26,27
 862 722 862 722 480 271 c 1,28,29
 480 116 480 116 536 116 c 0,30,31
 560 116 560 116 593.5 145 c 128,-1,32
 627 174 627 174 664 228 c 1,33,-1
 840 228 l 1,34,35
 736 100 736 100 659 40 c 128,-1,36
 582 -20 582 -20 498 -20 c 0,37,38
 378 -20 378 -20 324 90 c 1,39,-1
 251 0 l 1,40,-1
 50 0 l 1,8,9
EndSplineSet
Validated: 1
EndChar

StartChar: trademark
Encoding: 8482 8482 151
Width: 1778
GlyphClass: 2
Flags: W
HStem: 1400 130<472 611 751 917 1114.4 1352.87 1519.7 1756.62>
VStem: 1771 143<1254.9 1389.56>
DStem2: 465 716 605.16 716 0.207912 0.978148<81.2802 699.408> 830 716 969.735 716 0.207912 0.978148<83.2365 729.098> 1235 716 1374.73 716 0.207912 0.978148<83.2365 639.22> 1640 716 1779.73 716 0.207912 0.978148<83.2365 639.22>
LayerCount: 2
Fore
SplineSet
1268 1540 m 0,0,1
 1372 1540 1372 1540 1447 1490 c 0,2,3
 1453 1486 1453 1486 1458 1480 c 1,4,5
 1556 1540 1556 1540 1670 1540 c 0,6,7
 1790 1540 1790 1540 1859 1487 c 0,8,9
 1914 1446 1914 1446 1914 1371 c 0,10,11
 1914 1347 1914 1347 1908 1319 c 2,12,-1
 1791 769 l 1,13,-1
 1650 716 l 1,14,-1
 1640 716 l 1,15,-1
 1768 1318 l 2,16,17
 1771 1331 1771 1331 1771 1342 c 0,18,19
 1771 1376 1771 1376 1746 1390 c 0,20,21
 1713 1410 1713 1410 1656 1410 c 0,22,23
 1523 1410 1523 1410 1503 1318 c 2,24,-1
 1386 769 l 1,25,-1
 1245 716 l 1,26,-1
 1235 716 l 1,27,-1
 1363 1318 l 2,28,29
 1366 1331 1366 1331 1366 1342 c 0,30,31
 1366 1374 1366 1374 1342 1390 c 0,32,33
 1310 1410 1310 1410 1251 1410 c 0,34,35
 1118 1410 1118 1410 1098 1318 c 2,36,-1
 981 769 l 1,37,-1
 840 716 l 1,38,-1
 830 716 l 1,39,-1
 958 1319 l 2,40,41
 984 1442 984 1442 1065 1488 c 0,42,43
 1157 1540 1157 1540 1268 1540 c 0,0,1
472 1530 m 1,44,-1
 991 1530 l 1,45,-1
 989 1520 l 1,46,-1
 917 1400 l 1,47,-1
 751 1400 l 1,48,-1
 616 767 l 1,49,-1
 475 716 l 1,50,-1
 465 716 l 1,51,-1
 611 1400 l 1,52,-1
 398 1400 l 1,53,-1
 400 1410 l 1,54,-1
 472 1530 l 1,44,-1
EndSplineSet
Validated: 1
EndChar

StartChar: uni2126
Encoding: 8486 8486 152
Width: 1410
GlyphClass: 2
Flags: W
HStem: 0 180<318 484 1002 1130> 1350 180<775.433 1192.56>
VStem: 317 205<445.234 667.987> 1256 204<1064.51 1292.31>
DStem2: 199.978 0 399.978 0 0.207912 0.978148<603.804 1346.11> 1009.98 0 1209.98 0 0.207912 0.978148<467.663 1210.41>
LayerCount: 2
Fore
SplineSet
608 0 m 1,0,-1
 200 0 l 1,1,-1
 202 10 l 1,2,-1
 318 180 l 1,3,-1
 484 180 l 1,4,-1
 499 248 l 1,5,6
 451 269 451 269 412 299 c 0,7,8
 317 370 317 370 317 505 c 0,9,10
 317 552 317 552 329 607 c 2,11,-1
 439 1126 l 2,12,13
 487 1351 487 1351 632 1434 c 0,14,15
 800 1530 800 1530 1010 1530 c 0,16,17
 1222 1530 1222 1530 1358 1434 c 0,18,19
 1460 1362 1460 1362 1460 1224 c 0,20,21
 1460 1179 1460 1179 1449 1126 c 2,22,-1
 1339 607 l 2,23,24
 1291 383 1291 383 1147 299 c 0,25,26
 1085 263 1085 263 1017 247 c 1,27,-1
 1002 180 l 1,28,-1
 1248 180 l 1,29,-1
 1246 170 l 1,30,-1
 1130 0 l 1,31,-1
 802 0 l 1,32,-1
 885 391 l 1,33,34
 954 403 954 403 1013 432 c 0,35,36
 1112 479 1112 479 1139 607 c 2,37,-1
 1249 1126 l 2,38,39
 1256 1159 1256 1159 1256 1186 c 0,40,41
 1256 1266 1256 1266 1198 1302 c 0,42,43
 1120 1350 1120 1350 993 1350 c 128,-1,44
 866 1350 866 1350 766 1301.5 c 128,-1,45
 666 1253 666 1253 639 1126 c 2,46,-1
 529 607 l 2,47,48
 522 575 522 575 522 548 c 0,49,50
 522 468 522 468 582 432 c 0,51,52
 629 403 629 403 691 391 c 1,53,-1
 608 0 l 1,0,-1
EndSplineSet
Validated: 1
EndChar

StartChar: estimated
Encoding: 8494 8494 153
Width: 1330
GlyphClass: 2
Flags: W
HStem: -20 92<474.816 877.904> 525 80<477 1112> 1036 84<679.003 1065.2>
LayerCount: 2
Fore
SplineSet
1147 204 m 1,0,1
 1056 113 1056 113 961 61 c 0,2,3
 813 -20 813 -20 661 -20 c 0,4,5
 405 -20 405 -20 286 139 c 0,6,7
 201 252 201 252 201 407 c 0,8,9
 201 474 201 474 217 550 c 0,10,11
 268 788 268 788 451 952 c 24,12,13
 640 1120 640 1120 904 1120 c 0,14,15
 1153 1120 1153 1120 1269 964 c 272,16,17
 1359 843 1359 843 1359 677 c 0,18,19
 1359 605 1359 605 1342 525 c 1,20,-1
 460 525 l 1,21,-1
 389 192 l 1,22,23
 474 72 474 72 681 72 c 256,24,25
 804 72 804 72 908 132 c 0,26,27
 1001 186 1001 186 1068 266 c 1,28,-1
 1147 204 l 1,0,1
477 605 m 1,29,-1
 1112 605 l 1,30,-1
 1175 903 l 1,31,32
 1072 1036 1072 1036 886 1036 c 0,33,34
 695 1036 695 1036 542 914 c 1,35,-1
 477 605 l 1,29,-1
EndSplineSet
Validated: 1
EndChar

StartChar: partialdiff
Encoding: 8706 8706 154
Width: 1285
GlyphClass: 2
Flags: W
HStem: -20 153<436.608 700.456> 870 170<722.652 999.863> 1378 152<776.721 1116.12>
VStem: 215 190<165.92 478.052> 1176 187<906.621 1315.43>
LayerCount: 2
Fore
SplineSet
528 -20 m 0,0,1
 215 -20 215 -20 215 245 c 0,2,3
 215 303 215 303 230 375 c 0,4,5
 284 631 284 631 459 815 c 0,6,7
 675 1040 675 1040 893 1040 c 0,8,9
 1064 1040 1064 1040 1142 898 c 1,10,11
 1176 1073 1176 1073 1176 1170 c 0,12,13
 1176 1212 1176 1212 1170 1239 c 0,14,15
 1139 1378 1139 1378 971 1378 c 0,16,17
 840 1378 840 1378 695 1294 c 1,18,-1
 732 1468 l 1,19,20
 879 1530 879 1530 1028 1530 c 0,21,22
 1363 1530 1363 1530 1363 1174 c 0,23,24
 1363 1069 1363 1069 1334 934 c 0,25,26
 1251 545 1251 545 1032.5 262.5 c 128,-1,27
 814 -20 814 -20 528 -20 c 0,0,1
553 133 m 0,28,29
 691 133 691 133 833 286 c 128,-1,30
 975 439 975 439 1065 680 c 1,31,32
 1061 765 1061 765 1008.5 817.5 c 128,-1,33
 956 870 956 870 880 870 c 0,34,35
 720 870 720 870 587.5 710 c 128,-1,36
 455 550 455 550 416 369 c 0,37,38
 405 319 405 319 405 280 c 0,39,40
 405 133 405 133 553 133 c 0,28,29
EndSplineSet
Validated: 1
EndChar

StartChar: uni2206
Encoding: 8710 8710 155
Width: 1331
GlyphClass: 2
Flags: W
HStem: 0 180<314 1095>
DStem2: 5 0 314 180 0.509835 0.860272<312.388 1517.37> 1075 1550 926 1218 0.159853 -0.987141<303.913 1355.58>
LayerCount: 2
Fore
SplineSet
5 0 m 1,0,-1
 875 1468 l 1,1,-1
 1065 1550 l 1,2,-1
 1075 1550 l 1,3,-1
 1326 0 l 1,4,-1
 5 0 l 1,0,-1
314 180 m 1,5,-1
 1095 180 l 1,6,-1
 926 1218 l 1,7,-1
 314 180 l 1,5,-1
EndSplineSet
Validated: 1
EndChar

StartChar: product
Encoding: 8719 8719 156
Width: 1400
GlyphClass: 2
Flags: W
HStem: -430 21G<109 165.444 909 965.444> 1330 180<683 1283>
DStem2: 109 -430 308.87 -430 0.207912 0.978148<133.566 1840.88> 909 -430 1108.87 -430 0.207912 0.978148<133.566 1799.3>
LayerCount: 2
Fore
SplineSet
119 -430 m 1,0,-1
 109 -430 l 1,1,-1
 510 1460 l 1,2,-1
 627 1510 l 1,3,-1
 1521 1510 l 1,4,-1
 1128 -340 l 1,5,-1
 919 -430 l 1,6,-1
 909 -430 l 1,7,-1
 1283 1330 l 1,8,-1
 683 1330 l 1,9,-1
 328 -340 l 1,10,-1
 119 -430 l 1,0,-1
EndSplineSet
Validated: 1
EndChar

StartChar: summation
Encoding: 8721 8721 157
Width: 1203
GlyphClass: 2
Flags: W
HStem: -410 180<366 886> 1330 180<669 1236>
DStem2: 13 -410 366 -230 0.567925 0.82308<348.632 1214.95> 669 1330 411 1460 0.318189 -0.948027<0 712.359>
LayerCount: 2
Fore
SplineSet
13 -410 m 1,0,-1
 703 590 l 1,1,-1
 411 1460 l 1,2,-1
 528 1510 l 1,3,-1
 1354 1510 l 1,4,-1
 1352 1500 l 1,5,-1
 1236 1330 l 1,6,-1
 669 1330 l 1,7,-1
 927 559 l 1,8,-1
 366 -230 l 1,9,-1
 1004 -230 l 1,10,-1
 1002 -240 l 1,11,-1
 886 -410 l 1,12,-1
 13 -410 l 1,0,-1
EndSplineSet
Validated: 1
EndChar

StartChar: minus
Encoding: 8722 8722 158
Width: 1200
GlyphClass: 2
Flags: W
HStem: 680 150<392 1129>
LayerCount: 2
Fore
SplineSet
392 830 m 5,0,-1
 1226 830 l 5,1,-1
 1224 820 l 5,2,-1
 1129 680 l 5,3,-1
 295 680 l 5,4,-1
 297 690 l 5,5,-1
 392 830 l 5,0,-1
EndSplineSet
Validated: 1
EndChar

StartChar: uni2215
Encoding: 8725 8725 159
Width: 872
GlyphClass: 2
Flags: W
HStem: -20 21G<106.284 166.756> 1510 20G<1025.26 1086.01>
DStem2: 20 47 153 -20 0.566694 0.823928<20.1671 1799.35>
LayerCount: 2
Fore
SplineSet
143 -20 m 1,0,-1
 20 47 l 1,1,-1
 1039 1530 l 1,2,-1
 1049 1530 l 1,3,-1
 1173 1463 l 1,4,-1
 153 -20 l 1,5,-1
 143 -20 l 1,0,-1
EndSplineSet
Validated: 1
EndChar

StartChar: uni2219
Encoding: 8729 8729 160
Width: 340
GlyphClass: 2
Flags: W
HStem: 632 245<254.711 405.42>
VStem: 207 246<679.592 828.764>
LayerCount: 2
Fore
SplineSet
356 877 m 0,0,1
 408 877 408 877 434 841 c 0,2,3
 453 816 453 816 453 782 c 0,4,5
 453 768 453 768 450 754 c 0,6,7
 439 704 439 704 396.5 668 c 128,-1,8
 354 632 354 632 304 632 c 128,-1,9
 254 632 254 632 226 668 c 0,10,11
 207 693 207 693 207 727 c 0,12,13
 207 740 207 740 210 754 c 0,14,15
 221 804 221 804 263.5 840.5 c 128,-1,16
 306 877 306 877 356 877 c 0,0,1
EndSplineSet
Validated: 1
EndChar

StartChar: radical
Encoding: 8730 8730 161
Width: 1065
GlyphClass: 2
Flags: W
HStem: -20 21G<315.075 374.4> 1510 20G<1160.44 1217.7>
DStem2: 371 806 207 739 0.144706 -0.989475<42.5631 540.922> 444 270 502 55 0.506939 0.861982<0 1455.15>
LayerCount: 2
Fore
SplineSet
318 -20 m 1,0,-1
 207 739 l 1,1,-1
 361 806 l 1,2,-1
 371 806 l 1,3,-1
 444 270 l 1,4,-1
 1172 1530 l 1,5,-1
 1182 1530 l 1,6,-1
 1323 1451 l 1,7,-1
 502 55 l 1,8,-1
 328 -20 l 1,9,-1
 318 -20 l 1,0,-1
EndSplineSet
Validated: 1
EndChar

StartChar: infinity
Encoding: 8734 8734 162
Width: 1369
GlyphClass: 2
Flags: W
HStem: 448 129<457.4 706.457 923.159 1172.92> 938 124<507.071 768.405 972.286 1232.51>
VStem: 291 143<602.906 858.393> 791 108<653.684 858.803> 1256 143<654.718 912.808>
DStem2: 245.286 448 383.798 448 0.207912 0.978148<255.896 508.133> 1174.84 448 1314.29 448 0.207912 0.978148<152.611 404.709>
CounterMasks: 1 38
LayerCount: 2
Fore
SplineSet
1040 577 m 0,0,1
 1109 577 1109 577 1162 605.5 c 128,-1,2
 1215 634 1215 634 1229 703 c 2,3,-1
 1252 811 l 2,4,5
 1256 829 1256 829 1256 845 c 0,6,7
 1256 888 1256 888 1226 909 c 0,8,9
 1185 938 1185 938 1116 938 c 128,-1,10
 1047 938 1047 938 994 909 c 128,-1,11
 941 880 941 880 926 811 c 2,12,-1
 903 703 l 2,13,14
 899 685 899 685 899 669 c 0,15,16
 899 626 899 626 930 606 c 0,17,18
 972 578 972 578 1040 577 c 0,0,1
575 577 m 0,19,20
 644 577 644 577 697 605.5 c 128,-1,21
 750 634 750 634 764 703 c 2,22,-1
 787 811 l 2,23,24
 791 829 791 829 791 845 c 0,25,26
 791 888 791 888 761 909 c 0,27,28
 720 938 720 938 651 938 c 128,-1,29
 582 938 582 938 529 909 c 128,-1,30
 476 880 476 880 461 811 c 2,31,-1
 438 703 l 2,32,33
 434 685 434 685 434 669 c 0,34,35
 434 626 434 626 464 606 c 0,36,37
 506 578 506 578 575 577 c 0,19,20
668 1062 m 128,-1,39
 792 1062 792 1062 869 1002 c 0,40,41
 878 995 878 995 884 987 c 1,42,43
 895 995 895 995 907 1002 c 0,44,45
 1010 1062 1010 1062 1133 1062 c 0,46,47
 1258 1062 1258 1062 1338 1002 c 0,48,49
 1399 956 1399 956 1399 874 c 0,50,51
 1399 846 1399 846 1392 814 c 2,52,-1
 1367 696 l 2,53,54
 1338 561 1338 561 1248 508 c 0,55,56
 1146 448 1146 448 1022 448 c 0,57,58
 908 448 908 448 822 508 c 0,59,60
 812 515 812 515 805 523 c 1,61,62
 795 515 795 515 784 508 c 0,63,64
 681 448 681 448 557 448 c 0,65,66
 432 448 432 448 351 508 c 0,67,68
 291 553 291 553 291 636 c 0,69,70
 291 664 291 664 298 696 c 2,71,-1
 323 814 l 2,72,73
 352 949 352 949 442 1002 c 0,74,38
 544 1062 544 1062 668 1062 c 128,-1,39
EndSplineSet
Validated: 1
EndChar

StartChar: approxequal
Encoding: 8776 8776 163
Width: 1138
GlyphClass: 2
Flags: W
HStem: 376 147<779.122 916.233> 590 147<459.267 595.917> 776 147<864.122 1001.23> 990 147<544.267 680.917>
LayerCount: 2
Fore
SplineSet
1145 737 m 1,0,1
 1068 376 1068 376 822 376 c 0,2,3
 695 376 695 376 624 503 c 0,4,5
 575 590 575 590 531 590 c 0,6,7
 455 590 455 590 425 456 c 1,8,-1
 240 376 l 1,9,-1
 230 376 l 1,10,11
 307 737 307 737 553 737 c 0,12,13
 680 737 680 737 751 610 c 0,14,15
 800 523 800 523 845 523 c 0,16,17
 921 523 921 523 951 657 c 1,18,-1
 1135 737 l 1,19,-1
 1145 737 l 1,0,1
1230 1137 m 1,20,21
 1153 776 1153 776 907 776 c 0,22,23
 780 776 780 776 709 903 c 0,24,25
 660 990 660 990 616 990 c 0,26,27
 540 990 540 990 510 856 c 1,28,-1
 325 776 l 1,29,-1
 315 776 l 1,30,31
 392 1137 392 1137 638 1137 c 0,32,33
 765 1137 765 1137 836 1010 c 0,34,35
 885 923 885 923 930 923 c 0,36,37
 1006 923 1006 923 1036 1057 c 1,38,-1
 1220 1137 l 1,39,-1
 1230 1137 l 1,20,21
EndSplineSet
Validated: 1
EndChar

StartChar: notequal
Encoding: 8800 8800 164
Width: 1200
GlyphClass: 2
Flags: W
HStem: 480 150<350 519 730 1086> 880 150<435 790 1002 1171>
DStem2: 308 170 415 166 0.561828 0.827254<56.8066 374.994 617.628 858.151 1101.35 1420.36>
LayerCount: 2
Fore
SplineSet
435 1030 m 1,0,-1
 892 1030 l 1,1,-1
 1106 1345 l 1,2,-1
 1205 1345 l 1,3,-1
 1213 1341 l 1,4,-1
 1002 1030 l 1,5,-1
 1269 1030 l 1,6,-1
 1267 1020 l 1,7,-1
 1171 880 l 1,8,-1
 900 880 l 1,9,-1
 730 630 l 1,10,-1
 1184 630 l 1,11,-1
 1182 620 l 1,12,-1
 1086 480 l 1,13,-1
 628 480 l 1,14,-1
 415 166 l 1,15,-1
 316 166 l 1,16,-1
 308 170 l 1,17,-1
 519 480 l 1,18,-1
 252 480 l 1,19,-1
 254 490 l 1,20,-1
 350 630 l 1,21,-1
 621 630 l 1,22,-1
 790 880 l 1,23,-1
 337 880 l 1,24,-1
 339 890 l 1,25,-1
 435 1030 l 1,0,-1
EndSplineSet
Validated: 1
EndChar

StartChar: lessequal
Encoding: 8804 8804 165
Width: 1315
GlyphClass: 2
Flags: W
HStem: 275 150<306 1107>
DStem2: 618 874 324 818 0.933865 -0.357626<0 637.463> 421 968 618 874 0.945717 0.324992<155.757 940.972>
LayerCount: 2
Fore
SplineSet
324 818 m 1,0,-1
 326 828 l 1,1,-1
 421 968 l 1,2,-1
 1326 1279 l 1,3,-1
 1364 1138 l 1,4,-1
 1361 1128 l 1,5,-1
 618 874 l 1,6,-1
 1251 643 l 1,7,-1
 1249 633 l 1,8,-1
 1157 499 l 1,9,-1
 324 818 l 1,0,-1
306 425 m 1,10,-1
 1205 425 l 1,11,-1
 1203 415 l 1,12,-1
 1107 275 l 1,13,-1
 208 275 l 1,14,-1
 211 285 l 1,15,-1
 306 425 l 1,10,-1
EndSplineSet
Validated: 1
EndChar

StartChar: greaterequal
Encoding: 8805 8805 166
Width: 1315
GlyphClass: 2
Flags: W
HStem: 275 150<356 1157>
DStem2: 332 650 367 499 0.945717 0.324992<0 785.216> 536 1279 442 1135 0.933865 -0.357626<0 637.463>
LayerCount: 2
Fore
SplineSet
1369 960 m 1,0,-1
 1367 950 l 1,1,-1
 1272 810 l 1,2,-1
 367 499 l 1,3,-1
 329 640 l 1,4,-1
 332 650 l 1,5,-1
 1075 904 l 1,6,-1
 442 1135 l 1,7,-1
 444 1145 l 1,8,-1
 536 1279 l 1,9,-1
 1369 960 l 1,0,-1
356 425 m 1,10,-1
 1255 425 l 1,11,-1
 1253 415 l 1,12,-1
 1157 275 l 1,13,-1
 258 275 l 1,14,-1
 261 285 l 1,15,-1
 356 425 l 1,10,-1
EndSplineSet
Validated: 1
EndChar

StartChar: lozenge
Encoding: 9674 9674 167
Width: 1134
GlyphClass: 2
Flags: W
HStem: -20 21G<554.926 579.531> 1510 20G<875.965 899.605>
DStem2: 257 738 453 745 0.625536 0.780196<128.066 705.753> 453 745 257 738 0.374342 -0.927291<0 491.528> 634 288 563 -20 0.637091 0.770789<0 569.538> 892 1530 814 1196 0.355404 -0.934713<284.473 782.376>
LayerCount: 2
Fore
SplineSet
634 288 m 1,0,-1
 992 731 l 1,1,-1
 814 1196 l 1,2,-1
 453 745 l 1,3,-1
 634 288 l 1,0,-1
563 -20 m 1,4,-1
 257 738 l 1,5,-1
 892 1530 l 1,6,-1
 1192 741 l 1,7,-1
 563 -20 l 1,4,-1
EndSplineSet
Validated: 1
EndChar

StartChar: Oslash
Encoding: 216 216 168
Width: 1330
Flags: W
HStem: -40 21G<233 353.5> -20 180<505.364 916.341> 1350 180<735.433 1144.6>
VStem: 231 204<274.217 447.317> 1216 204<1062.68 1235.87>
DStem2: 151.876 -40 351.876 -40 0.207912 0.978148<415.768 1386.92> 233 -36 340 -40 0.562139 0.827043<56.8407 158.251 373.605 1602.3 1817.19 1917.11> 961.876 -40 1161.88 -40 0.207912 0.978148<281.396 1251.22>
LayerCount: 2
Fore
SplineSet
340 -40 m 1,0,-1
 241 -40 l 1,1,-1
 233 -36 l 1,2,-1
 318 88 l 1,3,4
 231 159 231 159 231 286 c 0,5,6
 231 331 231 331 242 384 c 2,7,-1
 399 1126 l 2,8,9
 447 1351 447 1351 592 1434 c 0,10,11
 760 1530 760 1530 970 1530 c 0,12,13
 1134 1530 1134 1530 1256 1470 c 1,14,-1
 1310 1550 l 1,15,-1
 1409 1550 l 1,16,-1
 1418 1546 l 1,17,-1
 1334 1422 l 1,18,19
 1420 1352 1420 1352 1420 1224 c 0,20,21
 1420 1179 1420 1179 1409 1126 c 2,22,-1
 1252 384 l 2,23,24
 1204 159 1204 159 1060 76 c 0,25,26
 892 -20 892 -20 682 -20 c 0,27,28
 515 -20 515 -20 394 40 c 1,29,-1
 340 -40 l 1,0,-1
700 160 m 0,30,31
 826 160 826 160 925.5 208.5 c 128,-1,32
 1025 257 1025 257 1052 384 c 2,33,-1
 1209 1126 l 2,34,35
 1216 1159 1216 1159 1216 1186 c 0,36,37
 1216 1215 1216 1215 1209 1238 c 1,38,-1
 504 202 l 1,39,40
 582 160 582 160 700 160 c 0,30,31
443 273 m 1,41,-1
 1146 1309 l 1,42,43
 1070 1350 1070 1350 953 1350 c 0,44,45
 826 1350 826 1350 726 1301.5 c 128,-1,46
 626 1253 626 1253 599 1126 c 2,47,-1
 442 384 l 2,48,49
 435 352 435 352 435 324 c 128,-1,50
 435 296 435 296 443 273 c 1,41,-1
EndSplineSet
Validated: 1
EndChar

StartChar: oslash
Encoding: 248 248 169
Width: 1150
Flags: W
HStem: -40 21G<239 359.571> -20 160<484.677 784.187> 960 160<599.23 898.323>
VStem: 220 183<222.549 492.5> 980 185<614.688 877.046>
DStem2: 151.905 -40 331.055 -40 0.207912 0.978148<360.965 1006.45> 239 -36 346 -40 0.561501 0.827476<56.7707 125.395 311.751 1167.6 1354.49 1421.19> 801.055 -40 981.905 -40 0.207912 0.978148<237.274 883.607>
LayerCount: 2
Fore
SplineSet
346 -40 m 1,0,-1
 247 -40 l 1,1,-1
 239 -36 l 1,2,-1
 305 62 l 1,3,4
 220 131 220 131 220 243 c 0,5,6
 220 280 220 280 228 318 c 2,7,-1
 326 782 l 2,8,9
 365 969 365 969 482 1038 c 0,10,11
 621 1120 621 1120 792 1120 c 0,12,13
 908 1120 908 1120 998 1083 c 1,14,-1
 1037 1140 l 1,15,-1
 1136 1140 l 1,16,-1
 1144 1136 l 1,17,-1
 1078 1038 l 1,18,19
 1165 974 1165 974 1165 862 c 0,20,21
 1165 825 1165 825 1156 782 c 2,22,-1
 1058 318 l 2,23,24
 1018 131 1018 131 902 62 c 0,25,26
 763 -20 763 -20 591 -20 c 0,27,28
 469 -20 469 -20 384 16 c 1,29,-1
 346 -40 l 1,0,-1
605 140 m 0,30,31
 703 140 703 140 780 181.5 c 128,-1,32
 857 223 857 223 878 322 c 2,33,-1
 975 778 l 2,34,35
 980 804 980 804 980 826 c 0,36,37
 980 856 980 856 970 879 c 1,38,-1
 483 162 l 1,39,40
 534 140 534 140 605 140 c 0,30,31
414 222 m 1,41,-1
 900 938 l 1,42,43
 848 960 848 960 778 960 c 0,44,45
 680 960 680 960 603 918.5 c 128,-1,46
 526 877 526 877 505 778 c 2,47,-1
 408 322 l 2,48,49
 403 296 403 296 403 275 c 0,50,51
 403 245 403 245 414 222 c 1,41,-1
EndSplineSet
Validated: 1
EndChar

StartChar: multiply
Encoding: 215 215 170
Width: 1142
Flags: W
HStem: 430 650
DStem2: 304 490 444 430 0.771307 0.636463<69.7952 413.577 583.216 926.998> 583 1080 417 1020 0.61735 -0.786688<0 277.852 416.849 694.7>
LayerCount: 2
Fore
SplineSet
1019 1080 m 1,0,-1
 1153 1027 l 1,1,-1
 1159 1020 l 1,2,-1
 837 755 l 1,3,-1
 1046 490 l 1,4,-1
 1038 483 l 1,5,-1
 880 430 l 1,6,-1
 709 649 l 1,7,-1
 444 430 l 1,8,-1
 310 483 l 1,9,-1
 304 490 l 1,10,-1
 625 755 l 1,11,-1
 417 1020 l 1,12,-1
 425 1027 l 1,13,-1
 583 1080 l 1,14,-1
 754 861 l 1,15,-1
 1019 1080 l 1,0,-1
EndSplineSet
Validated: 1
EndChar

StartChar: divide
Encoding: 247 247 171
Width: 1200
Flags: W
HStem: 306 245<615.58 766.42> 680 150<392 1129> 959 245<754.58 905.42>
VStem: 568 246<353.592 502.764> 707 246<1006.59 1155.76>
CounterMasks: 1 e0
LayerCount: 2
Fore
SplineSet
856 1204 m 0,0,1
 905 1204 905 1204 933 1168 c 0,2,3
 953 1142 953 1142 953 1109 c 0,4,5
 953 1095 953 1095 950 1081 c 0,6,7
 939 1031 939 1031 896.5 995 c 128,-1,8
 854 959 854 959 804 959 c 0,9,10
 755 959 755 959 727 995 c 0,11,12
 707 1021 707 1021 707 1054 c 0,13,14
 707 1067 707 1067 710 1081 c 0,15,16
 721 1131 721 1131 763.5 1167.5 c 128,-1,17
 806 1204 806 1204 856 1204 c 0,0,1
392 830 m 1,18,-1
 1226 830 l 1,19,-1
 1224 820 l 1,20,-1
 1129 680 l 1,21,-1
 295 680 l 1,22,-1
 297 690 l 1,23,-1
 392 830 l 1,18,-1
665 306 m 0,24,25
 616 306 616 306 588 342 c 0,26,27
 568 368 568 368 568 401 c 0,28,29
 568 414 568 414 571 428 c 0,30,31
 582 478 582 478 624.5 514.5 c 128,-1,32
 667 551 667 551 717 551 c 0,33,34
 766 551 766 551 794 515 c 0,35,36
 814 489 814 489 814 456 c 0,37,38
 814 442 814 442 811 428 c 0,39,40
 800 378 800 378 757.5 342 c 128,-1,41
 715 306 715 306 665 306 c 0,24,25
EndSplineSet
Validated: 1
EndChar

StartChar: uni1E02
Encoding: 7682 7682 172
Width: 1250
Flags: W
HStem: 0 180<438 909.216> 746 180<597 1012.17> 1330 180<683 1084.12> 1630 245<902.711 1053.42>
VStem: 855 246<1677.59 1826.76> 1078 203<364.592 685.559> 1129 198<1125.28 1287.09>
DStem2: 200 0 399.74 0 0.207912 0.978148<225.55 804.338 988.306 1401.36> 960.127 0 1160.13 0 0.207912 0.978148<260.058 591.984>
LayerCount: 2
Fore
SplineSet
1004 1875 m 0,0,1
 1056 1875 1056 1875 1082 1839 c 0,2,3
 1101 1814 1101 1814 1101 1780 c 0,4,5
 1101 1766 1101 1766 1098 1752 c 0,6,7
 1087 1702 1087 1702 1044.5 1666 c 128,-1,8
 1002 1630 1002 1630 952 1630 c 128,-1,9
 902 1630 902 1630 874 1666 c 0,10,11
 855 1691 855 1691 855 1725 c 0,12,13
 855 1738 855 1738 858 1752 c 0,14,15
 869 1802 869 1802 911.5 1838.5 c 128,-1,16
 954 1875 954 1875 1004 1875 c 0,0,1
438 180 m 1,17,-1
 693 180 l 2,18,19
 817 180 817 180 918 228 c 0,20,21
 1018 276 1018 276 1046 404 c 2,22,-1
 1071 522 l 2,23,24
 1078 554 1078 554 1078 581 c 0,25,26
 1078 661 1078 661 1018 698 c 0,27,28
 940 746 940 746 814 746 c 2,29,-1
 559 746 l 1,30,-1
 438 180 l 1,17,-1
200 0 m 1,31,-1
 506 1440 l 1,32,-1
 669 1510 l 1,33,-1
 956 1510 l 2,34,35
 1128 1510 1128 1510 1232 1428 c 0,36,37
 1327 1354 1327 1354 1327 1240 c 0,38,39
 1327 1208 1327 1208 1319 1172 c 2,40,-1
 1300 1084 l 2,41,42
 1259 896 1259 896 1117 831 c 1,43,44
 1281 773 1281 773 1281 609 c 0,45,46
 1281 569 1281 569 1271 522 c 2,47,-1
 1246 404 l 2,48,49
 1198 180 1198 180 1052 96 c 0,50,51
 885 0 885 0 675 0 c 2,52,-1
 200 0 l 1,31,-1
597 926 m 1,53,-1
 842 926 l 2,54,55
 940 926 940 926 1017 967.5 c 128,-1,56
 1094 1009 1094 1009 1116 1108 c 2,57,-1
 1124 1148 l 2,58,59
 1129 1174 1129 1174 1129 1196 c 0,60,61
 1129 1259 1129 1259 1086 1288 c 0,62,63
 1026 1330 1026 1330 928 1330 c 2,64,-1
 683 1330 l 1,65,-1
 597 926 l 1,53,-1
EndSplineSet
Validated: 1
EndChar

StartChar: uni1E03
Encoding: 7683 7683 173
Width: 1170
Flags: W
HStem: -20 160<467.959 804.187> 960 160<623.748 955.069> 1220 245<805.711 956.42> 1510 20G<628.827 685>
VStem: 239 184<183.629 481.461> 758 246<1267.59 1416.76> 1000 184<607.5 917.029>
DStem2: 176.156 -20 355.306 -20 0.207912 0.978148<340.519 988.17 1132.18 1501.73> 825.306 -20 1006.16 -20 0.207912 0.978148<216.827 863.16>
LayerCount: 2
Fore
SplineSet
907 1465 m 0,0,1
 959 1465 959 1465 985 1429 c 0,2,3
 1004 1404 1004 1404 1004 1370 c 0,4,5
 1004 1356 1004 1356 1001 1342 c 0,6,7
 990 1292 990 1292 947.5 1256 c 128,-1,8
 905 1220 905 1220 855 1220 c 128,-1,9
 805 1220 805 1220 777 1256 c 0,10,11
 758 1281 758 1281 758 1315 c 0,12,13
 758 1328 758 1328 761 1342 c 0,14,15
 772 1392 772 1392 814.5 1428.5 c 128,-1,16
 857 1465 857 1465 907 1465 c 0,0,1
611 -20 m 128,-1,18
 439 -20 439 -20 325 62 c 0,19,20
 239 124 239 124 239 238 c 0,21,22
 239 275 239 275 248 318 c 2,23,-1
 488 1449 l 1,24,-1
 675 1530 l 1,25,-1
 685 1530 l 1,26,-1
 583 1051 l 1,27,28
 679 1120 679 1120 823 1120 c 0,29,30
 995 1120 995 1120 1099 1038 c 0,31,32
 1184 970 1184 970 1184 857 c 0,33,34
 1184 822 1184 822 1176 782 c 2,35,-1
 1078 318 l 2,36,37
 1038 131 1038 131 922 62 c 0,38,17
 783 -20 783 -20 611 -20 c 128,-1,18
625 140 m 128,-1,40
 723 140 723 140 800 181.5 c 128,-1,41
 877 223 877 223 898 322 c 2,42,-1
 995 778 l 2,43,44
 1000 804 1000 804 1000 826 c 0,45,46
 1000 888 1000 888 956 918 c 0,47,48
 896 960 896 960 798.5 960 c 128,-1,49
 701 960 701 960 623.5 918.5 c 128,-1,50
 546 877 546 877 525 778 c 2,51,-1
 428 322 l 2,52,53
 423 296 423 296 423 275 c 0,54,55
 423 214 423 214 467 182 c 0,56,39
 527 140 527 140 625 140 c 128,-1,40
EndSplineSet
Validated: 1
EndChar

StartChar: uni1E0A
Encoding: 7690 7690 174
Width: 1350
Flags: W
HStem: 0 180<438 939.216> 1330 180<683 1163.42> 1630 245<932.711 1083.42>
VStem: 885 246<1677.59 1826.76> 1232 203<941.469 1269.76>
DStem2: 200 0 399.74 0 0.207912 0.978148<225.55 1401.36> 990.127 0 1190.13 0 0.207912 0.978148<260.134 1189.95>
LayerCount: 2
Fore
SplineSet
1034 1875 m 0,0,1
 1086 1875 1086 1875 1112 1839 c 0,2,3
 1131 1814 1131 1814 1131 1780 c 0,4,5
 1131 1766 1131 1766 1128 1752 c 0,6,7
 1117 1702 1117 1702 1074.5 1666 c 128,-1,8
 1032 1630 1032 1630 982 1630 c 128,-1,9
 932 1630 932 1630 904 1666 c 0,10,11
 885 1691 885 1691 885 1725 c 0,12,13
 885 1738 885 1738 888 1752 c 0,14,15
 899 1802 899 1802 941.5 1838.5 c 128,-1,16
 984 1875 984 1875 1034 1875 c 0,0,1
438 180 m 1,17,-1
 723 180 l 2,18,19
 850 180 850 180 948 228 c 0,20,21
 1048 276 1048 276 1076 404 c 2,22,-1
 1225 1106 l 2,23,24
 1232 1138 1232 1138 1232 1166 c 0,25,26
 1232 1247 1232 1247 1172 1282 c 0,27,28
 1094 1330 1094 1330 968 1330 c 2,29,-1
 683 1330 l 1,30,-1
 438 180 l 1,17,-1
200 0 m 1,31,-1
 506 1440 l 1,32,-1
 669 1510 l 1,33,-1
 986 1510 l 2,34,35
 1194 1510 1194 1510 1322 1414 c 0,36,37
 1435 1329 1435 1329 1435 1191 c 0,38,39
 1435 1151 1435 1151 1425 1106 c 2,40,-1
 1276 404 l 2,41,42
 1229 180 1229 180 1082 96 c 0,43,44
 915 0 915 0 705 0 c 2,45,-1
 200 0 l 1,31,-1
EndSplineSet
Validated: 1
EndChar

StartChar: uni1E0B
Encoding: 7691 7691 175
Width: 1170
Flags: W
HStem: -20 160<447.782 784.187> 960 160<599.548 937.058> 1220 245<783.711 934.42> 1510 20G<1258.83 1315>
VStem: 220 183<183.002 492.5> 736 246<1267.59 1416.76>
DStem2: 156.156 -20 335.306 -20 0.207912 0.978148<340.519 986.112> 805.306 -20 986.156 -20 0.207912 0.978148<216.827 863.16 1094.94 1501.91>
LayerCount: 2
Fore
SplineSet
885 1465 m 0,0,1
 937 1465 937 1465 963 1429 c 0,2,3
 982 1404 982 1404 982 1370 c 0,4,5
 982 1356 982 1356 979 1342 c 0,6,7
 968 1292 968 1292 925.5 1256 c 128,-1,8
 883 1220 883 1220 833 1220 c 128,-1,9
 783 1220 783 1220 755 1256 c 0,10,11
 736 1281 736 1281 736 1315 c 0,12,13
 736 1328 736 1328 739 1342 c 0,14,15
 750 1392 750 1392 792.5 1428.5 c 128,-1,16
 835 1465 835 1465 885 1465 c 0,0,1
591 -20 m 0,17,18
 409 -20 409 -20 305 62 c 0,19,20
 220 130 220 130 220 243 c 0,21,22
 220 278 220 278 228 318 c 2,23,-1
 326 782 l 2,24,25
 366 969 366 969 482 1038 c 0,26,27
 621 1120 621 1120 793 1120 c 0,28,29
 967 1120 967 1120 1033 1051 c 1,30,-1
 1118 1449 l 1,31,-1
 1305 1530 l 1,32,-1
 1315 1530 l 1,33,-1
 1058 318 l 2,34,35
 1018 131 1018 131 902 62 c 0,36,37
 763 -20 763 -20 591 -20 c 0,17,18
605 140 m 128,-1,39
 703 140 703 140 780 181.5 c 128,-1,40
 857 223 857 223 878 322 c 2,41,-1
 975 778 l 2,42,43
 980 804 980 804 980 826 c 0,44,45
 980 888 980 888 936 918 c 0,46,47
 876 960 876 960 778.5 960 c 128,-1,48
 681 960 681 960 603.5 918.5 c 128,-1,49
 526 877 526 877 505 778 c 2,50,-1
 408 322 l 2,51,52
 403 296 403 296 403 275 c 0,53,54
 403 214 403 214 447 182 c 0,55,38
 507 140 507 140 605 140 c 128,-1,39
EndSplineSet
Validated: 1
EndChar

StartChar: uni1E1E
Encoding: 7710 7710 176
Width: 1010
Flags: W
HStem: -20 21G<196 252.444> 665 180<580 1021> 1330 180<683 1163> 1630 245<892.027 1043.61>
VStem: 845 245<1676.4 1827.97>
DStem2: 196 -20 395.87 -20 0.207912 0.978148<133.566 741.761 925.936 1421.75>
LayerCount: 2
Fore
SplineSet
993 1875 m 0,0,1
 1042 1875 1042 1875 1070 1839 c 0,2,3
 1090 1813 1090 1813 1090 1779 c 0,4,5
 1090 1763 1090 1763 1088 1752 c 0,6,7
 1078 1702 1078 1702 1034.5 1666 c 128,-1,8
 991 1630 991 1630 941 1630 c 128,-1,9
 891 1630 891 1630 864 1666 c 0,10,11
 845 1692 845 1692 845 1725 c 0,12,13
 845 1739 845 1739 848 1752 c 0,14,15
 858 1802 858 1802 900.5 1838.5 c 128,-1,16
 943 1875 943 1875 993 1875 c 0,0,1
196 -20 m 1,17,-1
 506 1440 l 1,18,-1
 669 1510 l 1,19,-1
 1281 1510 l 1,20,-1
 1279 1500 l 1,21,-1
 1163 1330 l 1,22,-1
 683 1330 l 1,23,-1
 580 845 l 1,24,-1
 1140 845 l 1,25,-1
 1137 835 l 1,26,-1
 1021 665 l 1,27,-1
 541 665 l 1,28,-1
 415 70 l 1,29,-1
 206 -20 l 1,30,-1
 196 -20 l 1,17,-1
EndSplineSet
Validated: 1
EndChar

StartChar: uni1E1F
Encoding: 7711 7711 177
Width: 780
Flags: W
HStem: -20 21G<176 232.173> 740 160<551 817> 1350 160<703.384 986> 1630 245<737.711 888.42>
VStem: 690 246<1677.59 1826.76>
DStem2: 176 -20 355.783 -20 0.207912 0.978148<120.189 814.29 977.863 1384.88>
LayerCount: 2
Fore
SplineSet
839 1875 m 0,0,1
 891 1875 891 1875 917 1839 c 0,2,3
 936 1814 936 1814 936 1780 c 0,4,5
 936 1766 936 1766 933 1752 c 0,6,7
 922 1702 922 1702 879.5 1666 c 128,-1,8
 837 1630 837 1630 787 1630 c 128,-1,9
 737 1630 737 1630 709 1666 c 0,10,11
 690 1691 690 1691 690 1725 c 0,12,13
 690 1738 690 1738 693 1752 c 0,14,15
 704 1802 704 1802 746.5 1838.5 c 128,-1,16
 789 1875 789 1875 839 1875 c 0,0,1
186 -20 m 1,17,-1
 176 -20 l 1,18,-1
 429 1172 l 2,19,20
 469 1359 469 1359 585 1428 c 0,21,22
 724 1510 724 1510 896 1510 c 2,23,-1
 1091 1510 l 1,24,-1
 1089 1500 l 1,25,-1
 986 1350 l 1,26,-1
 882 1350 l 2,27,28
 784 1350 784 1350 706 1308 c 0,29,30
 629 1267 629 1267 608 1168 c 2,31,-1
 551 900 l 1,32,-1
 922 900 l 1,33,-1
 920 890 l 1,34,-1
 817 740 l 1,35,-1
 517 740 l 1,36,-1
 373 61 l 1,37,-1
 186 -20 l 1,17,-1
EndSplineSet
Validated: 1
EndChar

StartChar: uni1E40
Encoding: 7744 7744 178
Width: 2180
Flags: W
HStem: -20 21G<176 232.444 986 1042.44 1796 1852.44> 1350 180<755.433 1171.71 1565.93 1982.71> 1630 245<1384.71 1535.42>
VStem: 1337 246<1677.59 1826.76> 2046 204<1061.58 1289.25>
DStem2: 176 -20 375.87 -20 0.207912 0.978148<133.566 1366.5> 986 -20 1185.87 -20 0.207912 0.978148<133.566 1230.8> 1796 -20 1995.87 -20 0.207912 0.978148<133.566 1230.8>
LayerCount: 2
Fore
SplineSet
1486 1875 m 0,0,1
 1538 1875 1538 1875 1564 1839 c 0,2,3
 1583 1814 1583 1814 1583 1780 c 0,4,5
 1583 1766 1583 1766 1580 1752 c 0,6,7
 1569 1702 1569 1702 1526.5 1666 c 128,-1,8
 1484 1630 1484 1630 1434 1630 c 128,-1,9
 1384 1630 1384 1630 1356 1666 c 0,10,11
 1337 1691 1337 1691 1337 1725 c 0,12,13
 1337 1738 1337 1738 1340 1752 c 0,14,15
 1351 1802 1351 1802 1393.5 1838.5 c 128,-1,16
 1436 1875 1436 1875 1486 1875 c 0,0,1
186 -20 m 1,17,-1
 176 -20 l 1,18,-1
 419 1126 l 2,19,20
 467 1351 467 1351 612 1434 c 0,21,22
 780 1530 780 1530 990 1530 c 0,23,24
 1203 1530 1203 1530 1328 1434 c 0,25,26
 1350 1417 1350 1417 1367 1397 c 1,27,28
 1393 1417 1393 1417 1423 1434 c 0,29,30
 1591 1530 1591 1530 1801 1530 c 0,31,32
 2012 1530 2012 1530 2148 1434 c 0,33,34
 2250 1363 2250 1363 2250 1224 c 0,35,36
 2250 1179 2250 1179 2239 1126 c 2,37,-1
 2015 70 l 1,38,-1
 1806 -20 l 1,39,-1
 1796 -20 l 1,40,-1
 2039 1126 l 2,41,42
 2046 1159 2046 1159 2046 1186 c 0,43,44
 2046 1266 2046 1266 1988 1302 c 0,45,46
 1910 1350 1910 1350 1783 1350 c 128,-1,47
 1656 1350 1656 1350 1556 1301.5 c 128,-1,48
 1456 1253 1456 1253 1429 1126 c 2,49,-1
 1205 70 l 1,50,-1
 996 -20 l 1,51,-1
 986 -20 l 1,52,-1
 1229 1126 l 2,53,54
 1236 1159 1236 1159 1236 1186 c 0,55,56
 1236 1266 1236 1266 1178 1302 c 0,57,58
 1100 1350 1100 1350 973 1350 c 128,-1,59
 846 1350 846 1350 746 1301.5 c 128,-1,60
 646 1253 646 1253 619 1126 c 2,61,-1
 395 70 l 1,62,-1
 186 -20 l 1,17,-1
EndSplineSet
Validated: 1
EndChar

StartChar: uni1E41
Encoding: 7745 7745 179
Width: 1840
Flags: W
HStem: -20 21G<176 232.173 826 882.173 1476 1532.17> 960 160<619.548 956.895 1270.01 1605.62> 1220 245<1125.71 1276.42>
VStem: 1078 246<1267.59 1416.76> 1650 185<614.461 916.402>
DStem2: 176 -20 355.783 -20 0.207912 0.978148<120.189 986.144> 826 -20 1005.78 -20 0.207912 0.978148<120.189 863.016> 1476 -20 1655.78 -20 0.207912 0.978148<120.189 863.016>
LayerCount: 2
Fore
SplineSet
1227 1465 m 0,0,1
 1279 1465 1279 1465 1305 1429 c 0,2,3
 1324 1404 1324 1404 1324 1370 c 0,4,5
 1324 1356 1324 1356 1321 1342 c 0,6,7
 1310 1292 1310 1292 1267.5 1256 c 128,-1,8
 1225 1220 1225 1220 1175 1220 c 128,-1,9
 1125 1220 1125 1220 1097 1256 c 0,10,11
 1078 1281 1078 1281 1078 1315 c 0,12,13
 1078 1328 1078 1328 1081 1342 c 0,14,15
 1092 1392 1092 1392 1134.5 1428.5 c 128,-1,16
 1177 1465 1177 1465 1227 1465 c 0,0,1
186 -20 m 1,17,-1
 176 -20 l 1,18,-1
 346 782 l 2,19,20
 386 969 386 969 502 1038 c 0,21,22
 641 1120 641 1120 813 1120 c 0,23,24
 977 1120 977 1120 1089 1038 c 0,25,26
 1104 1027 1104 1027 1115 1013 c 1,27,28
 1134 1026 1134 1026 1153 1038 c 0,29,30
 1292 1120 1292 1120 1463.5 1120 c 128,-1,31
 1635 1120 1635 1120 1749 1038 c 0,32,33
 1835 976 1835 976 1835 862 c 0,34,35
 1835 825 1835 825 1826 782 c 2,36,-1
 1673 61 l 1,37,-1
 1486 -20 l 1,38,-1
 1476 -20 l 1,39,-1
 1645 778 l 2,40,41
 1650 804 1650 804 1650 826 c 0,42,43
 1650 888 1650 888 1606 918 c 0,44,45
 1546 960 1546 960 1448.5 960 c 128,-1,46
 1351 960 1351 960 1273.5 918.5 c 128,-1,47
 1196 877 1196 877 1175 778 c 2,48,-1
 1023 61 l 1,49,-1
 836 -20 l 1,50,-1
 826 -20 l 1,51,-1
 995 778 l 2,52,53
 1000 804 1000 804 1000 826 c 0,54,55
 1000 888 1000 888 956 918 c 0,56,57
 896 960 896 960 798.5 960 c 128,-1,58
 701 960 701 960 623.5 918.5 c 128,-1,59
 546 877 546 877 525 778 c 2,60,-1
 373 61 l 1,61,-1
 186 -20 l 1,17,-1
EndSplineSet
Validated: 1
EndChar

StartChar: uni1E56
Encoding: 7766 7766 180
Width: 1210
Flags: W
HStem: -20 21G<196 252.444> 500 180<545 1016.05> 1330 180<683 1133.42> 1630 245<885.711 1036.42>
VStem: 838 246<1677.59 1826.76> 1202 203<1051.36 1268.27>
DStem2: 196 -20 395.87 -20 0.207912 0.978148<133.566 573.089 757.265 1421.75> 955.598 -20 1155.6 -20 0.207912 0.978148<791.865 1210.46>
LayerCount: 2
Fore
SplineSet
987 1875 m 0,0,1
 1039 1875 1039 1875 1065 1839 c 0,2,3
 1084 1814 1084 1814 1084 1780 c 0,4,5
 1084 1766 1084 1766 1081 1752 c 0,6,7
 1070 1702 1070 1702 1027.5 1666 c 128,-1,8
 985 1630 985 1630 935 1630 c 128,-1,9
 885 1630 885 1630 857 1666 c 0,10,11
 838 1691 838 1691 838 1725 c 0,12,13
 838 1738 838 1738 841 1752 c 0,14,15
 852 1802 852 1802 894.5 1838.5 c 128,-1,16
 937 1875 937 1875 987 1875 c 0,0,1
206 -20 m 1,17,-1
 196 -20 l 1,18,-1
 506 1440 l 1,19,-1
 669 1510 l 1,20,-1
 956 1510 l 2,21,22
 1164 1510 1164 1510 1292 1414 c 0,23,24
 1404 1329 1404 1329 1405 1191 c 0,25,26
 1405 1151 1405 1151 1395 1106 c 2,27,-1
 1352 904 l 2,28,29
 1304 680 1304 680 1159 596 c 0,30,31
 992 500 992 500 781 500 c 2,32,-1
 506 500 l 1,33,-1
 415 70 l 1,34,-1
 206 -20 l 1,17,-1
545 680 m 1,35,-1
 800 680 l 2,36,37
 927 680 927 680 1025 728 c 0,38,39
 1125 776 1125 776 1152 904 c 2,40,-1
 1195 1106 l 2,41,42
 1202 1138 1202 1138 1202 1166 c 0,43,44
 1202 1247 1202 1247 1142 1282 c 0,45,46
 1064 1330 1064 1330 938 1330 c 2,47,-1
 683 1330 l 1,48,-1
 545 680 l 1,35,-1
EndSplineSet
Validated: 1
EndChar

StartChar: uni1E57
Encoding: 7767 7767 181
Width: 1170
Flags: W
HStem: -430 21G<89 145.173> -20 160<466.317 804.187> 960 160<619.548 955.541> 1220 245<807.711 958.42>
VStem: 760 246<1267.59 1416.76> 1000 185<614.688 916.402>
DStem2: 89 -430 268.783 -430 0.207912 0.978148<120.189 526.956 759.68 1405.27> 738.157 -430 919.008 -430 0.207912 0.978148<635.987 1282.32>
LayerCount: 2
Fore
SplineSet
909 1465 m 0,0,1
 961 1465 961 1465 987 1429 c 0,2,3
 1006 1404 1006 1404 1006 1370 c 0,4,5
 1006 1356 1006 1356 1003 1342 c 0,6,7
 992 1292 992 1292 949.5 1256 c 128,-1,8
 907 1220 907 1220 857 1220 c 128,-1,9
 807 1220 807 1220 779 1256 c 0,10,11
 760 1281 760 1281 760 1315 c 0,12,13
 760 1328 760 1328 763 1342 c 0,14,15
 774 1392 774 1392 816.5 1428.5 c 128,-1,16
 859 1465 859 1465 909 1465 c 0,0,1
99 -430 m 1,17,-1
 89 -430 l 1,18,-1
 346 782 l 2,19,20
 386 969 386 969 502 1038 c 0,21,22
 641 1120 641 1120 813 1120 c 128,-1,23
 985 1120 985 1120 1099 1038 c 0,24,25
 1185 976 1185 976 1185 862 c 0,26,27
 1185 825 1185 825 1176 782 c 2,28,-1
 1078 318 l 2,29,30
 1038 131 1038 131 922 62 c 0,31,32
 783 -20 783 -20 611 -20 c 0,33,34
 437 -20 437 -20 370 49 c 1,35,-1
 286 -349 l 1,36,-1
 99 -430 l 1,17,-1
799 960 m 0,37,38
 701 960 701 960 623.5 918.5 c 128,-1,39
 546 877 546 877 525 778 c 2,40,-1
 428 322 l 2,41,42
 423 296 423 296 423 275 c 0,43,44
 423 214 423 214 467 182 c 0,45,46
 527 140 527 140 625 140 c 128,-1,47
 723 140 723 140 800 181.5 c 128,-1,48
 877 223 877 223 898 322 c 2,49,-1
 995 778 l 2,50,51
 1000 804 1000 804 1000 826 c 0,52,53
 1000 888 1000 888 956 918 c 0,54,55
 896 960 896 960 799 960 c 0,37,38
EndSplineSet
Validated: 1
EndChar

StartChar: uni1E6A
Encoding: 7786 7786 182
Width: 1070
Flags: W
HStem: -20 21G<431 487.444> 1330 180<411 718 918 1263> 1630 245<827.027 978.615>
VStem: 780 245<1676.4 1827.97>
DStem2: 431 -20 630.87 -20 0.207912 0.978148<133.566 1380.17>
LayerCount: 2
Fore
SplineSet
928 1875 m 0,0,1
 977 1875 977 1875 1005 1839 c 0,2,3
 1025 1813 1025 1813 1025 1779 c 0,4,5
 1025 1763 1025 1763 1023 1752 c 0,6,7
 1013 1702 1013 1702 969.5 1666 c 128,-1,8
 926 1630 926 1630 876 1630 c 128,-1,9
 826 1630 826 1630 799 1666 c 0,10,11
 780 1692 780 1692 780 1725 c 0,12,13
 780 1739 780 1739 783 1752 c 0,14,15
 793 1802 793 1802 835.5 1838.5 c 128,-1,16
 878 1875 878 1875 928 1875 c 0,0,1
431 -20 m 1,17,-1
 718 1330 l 1,18,-1
 293 1330 l 1,19,-1
 295 1340 l 1,20,-1
 411 1510 l 1,21,-1
 1381 1510 l 1,22,-1
 1379 1500 l 1,23,-1
 1263 1330 l 1,24,-1
 918 1330 l 1,25,-1
 650 70 l 1,26,-1
 441 -20 l 1,27,-1
 431 -20 l 1,17,-1
EndSplineSet
Validated: 1
EndChar

StartChar: uni1E6B
Encoding: 7787 7787 183
Width: 780
Flags: W
HStem: -20 21G<296 352.173> 940 160<315 500 714 899> 1510 20G<748.827 805> 1630 245<688.027 839.615>
VStem: 641 245<1676.4 1827.97>
DStem2: 296 -20 475.783 -20 0.207912 0.978148<120.189 981.436 1182.43 1501.77>
LayerCount: 2
Fore
SplineSet
789 1875 m 0,0,1
 838 1875 838 1875 866 1839 c 0,2,3
 886 1813 886 1813 886 1779 c 0,4,5
 886 1763 886 1763 884 1752 c 0,6,7
 874 1702 874 1702 830.5 1666 c 128,-1,8
 787 1630 787 1630 737 1630 c 128,-1,9
 687 1630 687 1630 660 1666 c 0,10,11
 641 1692 641 1692 641 1725 c 0,12,13
 641 1739 641 1739 644 1752 c 0,14,15
 654 1802 654 1802 696.5 1838.5 c 128,-1,16
 739 1875 739 1875 789 1875 c 0,0,1
296 -20 m 1,17,-1
 500 940 l 1,18,-1
 210 940 l 1,19,-1
 212 950 l 1,20,-1
 315 1100 l 1,21,-1
 534 1100 l 1,22,-1
 608 1449 l 1,23,-1
 795 1530 l 1,24,-1
 805 1530 l 1,25,-1
 714 1100 l 1,26,-1
 1004 1100 l 1,27,-1
 1002 1090 l 1,28,-1
 899 940 l 1,29,-1
 680 940 l 1,30,-1
 493 61 l 1,31,-1
 306 -20 l 1,32,-1
 296 -20 l 1,17,-1
EndSplineSet
Validated: 1
EndChar

StartChar: uni1E60
Encoding: 7776 7776 184
Width: 1130
Flags: W
HStem: -20 180<401.017 797.653> 751 200<623.665 907.965> 1350 180<684.715 1001.4> 1630 245<864.711 1015.42>
VStem: 141 194<219.16 369.382> 371 213<992.945 1138.22> 817 246<1677.59 1826.76> 969 208<384.015 695.545> 1042 189<1213.25 1308.78>
DStem2: 846.127 -20 1046.13 -20 0.207912 0.978148<260.656 621.329>
LayerCount: 2
Fore
SplineSet
966 1875 m 0,0,1
 1018 1875 1018 1875 1044 1839 c 0,2,3
 1063 1814 1063 1814 1063 1780 c 0,4,5
 1063 1766 1063 1766 1060 1752 c 0,6,7
 1049 1702 1049 1702 1006.5 1666 c 128,-1,8
 964 1630 964 1630 914 1630 c 128,-1,9
 864 1630 864 1630 836 1666 c 0,10,11
 817 1691 817 1691 817 1725 c 0,12,13
 817 1738 817 1738 820 1752 c 0,14,15
 831 1802 831 1802 873.5 1838.5 c 128,-1,16
 916 1875 916 1875 966 1875 c 0,0,1
570 -20 m 0,17,18
 362 -20 362 -20 233 76 c 0,19,20
 141 144 141 144 141 285 c 0,21,22
 141 321 141 321 147 362 c 1,23,-1
 345 448 l 1,24,-1
 355 448 l 9,25,-1
 342 384 l 2,26,27
 335 352 335 352 335 325 c 0,28,29
 335 245 335 245 394 208 c 0,30,31
 472 160 472 160 588.5 160 c 128,-1,32
 705 160 705 160 805 208 c 0,33,34
 905 257 905 257 932 384 c 2,35,-1
 962 527 l 2,36,37
 969 561 969 561 969 590 c 0,38,39
 969 667 969 667 916 702 c 0,40,41
 842 751 842 751 723 751 c 8,42,43
 570 751 570 751 466 833 c 0,44,45
 371 907 371 907 371 1021 c 0,46,47
 371 1053 371 1053 379 1089 c 2,48,-1
 401 1192 l 2,49,50
 441 1380 441 1380 557 1448 c 0,51,52
 696 1530 696 1530 868 1530 c 24,53,54
 1049 1530 1049 1530 1154 1448 c 0,55,56
 1231 1389 1231 1389 1231 1272 c 0,57,58
 1231 1250 1231 1250 1228 1226 c 1,59,-1
 1041 1145 l 1,60,-1
 1031 1145 l 1,61,-1
 1036 1168 l 2,62,63
 1042 1195 1042 1195 1042 1218 c 0,64,65
 1042 1278 1042 1278 1002 1308 c 0,66,67
 947 1350 947 1350 854 1350 c 152,-1,68
 761 1350 761 1350 689 1308 c 0,69,70
 616 1265 616 1265 596 1168 c 2,71,-1
 589 1133 l 2,72,73
 584 1106 584 1106 584 1083 c 0,74,75
 584 1022 584 1022 622 992 c 0,76,77
 675 951 675 951 764 951 c 16,78,79
 955 951 955 951 1078 855 c 0,80,81
 1177 778 1177 778 1177 642 c 0,82,83
 1177 597 1177 597 1166 547 c 2,84,-1
 1132 384 l 2,85,86
 1085 160 1085 160 939 76 c 0,87,88
 770 -20 770 -20 570 -20 c 0,17,18
EndSplineSet
Validated: 1
EndChar

StartChar: uni1E61
Encoding: 7777 7777 185
Width: 930
Flags: W
HStem: -20 160<339.983 653.424> 514 161<495.985 714.583> 961 159<529.562 780.589> 1220 245<662.711 813.42>
VStem: 128 173<180.899 297.432> 292 181<710.754 839.632> 615 246<1267.59 1416.76> 749 183<236.256 476.476> 809 169<855.315 933.901>
LayerCount: 2
Fore
SplineSet
764 1465 m 0,0,1
 816 1465 816 1465 842 1429 c 0,2,3
 861 1404 861 1404 861 1370 c 0,4,5
 861 1356 861 1356 858 1342 c 0,6,7
 847 1292 847 1292 804.5 1256 c 128,-1,8
 762 1220 762 1220 712 1220 c 128,-1,9
 662 1220 662 1220 634 1256 c 0,10,11
 615 1281 615 1281 615 1315 c 0,12,13
 615 1328 615 1328 618 1342 c 0,14,15
 629 1392 629 1392 671.5 1428.5 c 128,-1,16
 714 1465 714 1465 764 1465 c 0,0,1
470 -20 m 0,17,18
 297 -20 297 -20 204 62 c 0,19,20
 128 130 128 130 128 241 c 0,21,22
 128 264 128 264 131 289 c 1,23,-1
 307 366 l 1,24,-1
 317 366 l 1,25,-1
 307 322 l 2,26,27
 301 294 301 294 301 271 c 0,28,29
 301 211 301 211 340 182 c 0,30,31
 394 140 394 140 488.5 140 c 128,-1,32
 583 140 583 140 650 182 c 0,33,34
 717 223 717 223 738 322 c 2,35,-1
 744 350 l 2,36,37
 749 372 749 372 749 391 c 0,38,39
 749 442 749 442 716 472 c 0,40,41
 671 514 671 514 582 514 c 0,42,43
 440 514 440 514 360 584 c 0,44,45
 292 644 292 644 292 733 c 0,46,47
 292 765 292 765 301 802 c 2,48,-1
 316 865 l 2,49,50
 348 998 348 998 430 1050 c 0,51,52
 542 1120 542 1120 684 1120 c 0,53,54
 824 1120 824 1120 907 1048 c 0,55,56
 978 986 978 986 978 896 c 0,57,58
 978 881 978 881 976 865 c 1,59,-1
 806 792 l 1,60,-1
 796 792 l 1,61,-1
 806 839 l 2,62,63
 809 852 809 852 809 864 c 0,64,65
 809 905 809 905 774 932 c 0,66,67
 737 961 737 961 668 961 c 0,68,69
 603 961 603 961 554 933 c 0,70,71
 496 901 496 901 483 839 c 2,72,-1
 476 805 l 2,73,74
 473 788 473 788 473 773 c 0,75,76
 473 734 473 734 495 710 c 0,77,78
 526 675 526 675 622 675 c 0,79,80
 775 675 775 675 862 593 c 0,81,82
 932 527 932 527 932 424 c 0,83,84
 932 391 932 391 925 354 c 2,85,-1
 918 318 l 2,86,87
 882 132 882 132 770 62 c 0,88,89
 639 -20 639 -20 470 -20 c 0,17,18
EndSplineSet
Validated: 1
EndChar

StartChar: Wgrave
Encoding: 7808 7808 186
Width: 2180
Flags: W
HStem: -20 180<519.154 935.068 1329.4 1745.24> 1510 20G<648.556 705 1458.56 1515 2268.56 2325>
VStem: 251 204<221.125 448.42>
DStem2: 176.127 -20 376.127 -20 0.207912 0.978148<395.291 1492.52> 986.127 -20 1186.13 -20 0.207912 0.978148<395.291 1492.52> 1442 1937 1300 1880 0.252042 -0.967716<19.3699 321.375> 1796.13 -20 1996.13 -20 0.207912 0.978148<260.898 1492.52>
LayerCount: 2
Fore
SplineSet
700 -20 m 128,-1,1
 490 -20 490 -20 354 76 c 0,2,3
 251 148 251 148 251 286 c 0,4,5
 251 331 251 331 262 384 c 2,6,-1
 486 1440 l 1,7,-1
 695 1530 l 1,8,-1
 705 1530 l 1,9,-1
 462 384 l 2,10,11
 455 351 455 351 455 324 c 0,12,13
 455 245 455 245 514 208 c 0,14,15
 592 160 592 160 718.5 160 c 128,-1,16
 845 160 845 160 945 208.5 c 128,-1,17
 1045 257 1045 257 1072 384 c 2,18,-1
 1296 1440 l 1,19,-1
 1505 1530 l 1,20,-1
 1515 1530 l 1,21,-1
 1272 384 l 2,22,23
 1265 351 1265 351 1265 324 c 0,24,25
 1265 244 1265 244 1324 208 c 0,26,27
 1402 160 1402 160 1528.5 160 c 128,-1,28
 1655 160 1655 160 1755 208.5 c 128,-1,29
 1855 257 1855 257 1882 384 c 2,30,-1
 2106 1440 l 1,31,-1
 2315 1530 l 1,32,-1
 2325 1530 l 1,33,-1
 2082 384 l 2,34,35
 2034 159 2034 159 1889 76 c 0,36,37
 1720 -20 1720 -20 1510 -20 c 0,38,39
 1297 -20 1297 -20 1173 76 c 0,40,41
 1151 93 1151 93 1134 113 c 1,42,43
 1108 93 1108 93 1078 76 c 0,44,0
 910 -20 910 -20 700 -20 c 128,-1,1
1432 1937 m 1,45,-1
 1442 1937 l 1,46,-1
 1523 1626 l 1,47,-1
 1393 1570 l 1,48,-1
 1383 1570 l 1,49,-1
 1300 1880 l 1,50,-1
 1432 1937 l 1,45,-1
EndSplineSet
Validated: 1
EndChar

StartChar: wgrave
Encoding: 7809 7809 187
Width: 1840
Flags: W
HStem: -20 160<467.884 803.728 1116.6 1454.19> 1100 20G<541.827 598 1191.83 1248 1841.83 1898>
VStem: 239 184<183.629 485.539>
DStem2: 176.156 -20 355.306 -20 0.207912 0.978148<340.519 1082.61> 825.306 -20 1005.31 -20 0.207912 0.978148<340.695 1082.78> 1187 1527 1044 1470 0.261536 -0.965194<17.6163 321.098> 1475.31 -20 1656.16 -20 0.207912 0.978148<216.827 1082.78>
LayerCount: 2
Fore
SplineSet
610.5 -20 m 128,-1,1
 439 -20 439 -20 325 62 c 0,2,3
 239 124 239 124 239 238 c 0,4,5
 239 275 239 275 248 318 c 2,6,-1
 401 1039 l 1,7,-1
 588 1120 l 1,8,-1
 598 1120 l 1,9,-1
 428 322 l 2,10,11
 423 296 423 296 423 275 c 0,12,13
 423 214 423 214 467 182 c 0,14,15
 527 140 527 140 625 140 c 128,-1,16
 723 140 723 140 800 181.5 c 128,-1,17
 877 223 877 223 898 322 c 2,18,-1
 1051 1039 l 1,19,-1
 1238 1120 l 1,20,-1
 1248 1120 l 1,21,-1
 1078 322 l 2,22,23
 1073 296 1073 296 1073 275 c 0,24,25
 1073 214 1073 214 1117 182 c 0,26,27
 1177 140 1177 140 1275 140 c 128,-1,28
 1373 140 1373 140 1450 181.5 c 128,-1,29
 1527 223 1527 223 1548 322 c 2,30,-1
 1701 1039 l 1,31,-1
 1888 1120 l 1,32,-1
 1898 1120 l 1,33,-1
 1728 318 l 2,34,35
 1688 131 1688 131 1572 62 c 0,36,37
 1433 -20 1433 -20 1261 -20 c 0,38,39
 1097 -20 1097 -20 985 62 c 0,40,41
 970 73 970 73 958 87 c 1,42,43
 940 73 940 73 921 62 c 0,44,0
 782 -20 782 -20 610.5 -20 c 128,-1,1
1177 1527 m 1,45,-1
 1187 1527 l 1,46,-1
 1267 1216 l 1,47,-1
 1138 1160 l 1,48,-1
 1128 1160 l 1,49,-1
 1044 1470 l 1,50,-1
 1177 1527 l 1,45,-1
EndSplineSet
Validated: 1
EndChar

StartChar: Wacute
Encoding: 7810 7810 188
Width: 2180
Flags: W
HStem: -20 180<519.154 935.068 1329.4 1745.24> 1510 20G<648.556 705 1458.56 1515 2268.56 2325>
VStem: 251 204<221.125 448.42>
DStem2: 176.127 -20 376.127 -20 0.207912 0.978148<395.291 1492.52> 986.127 -20 1186.13 -20 0.207912 0.978148<395.291 1492.52> 1319 1634 1442 1570 0.550881 0.834584<14.3449 363.055> 1796.13 -20 1996.13 -20 0.207912 0.978148<260.898 1492.52>
LayerCount: 2
Fore
SplineSet
1529 1937 m 1,0,-1
 1642 1873 l 1,1,-1
 1442 1570 l 1,2,-1
 1432 1570 l 1,3,-1
 1319 1634 l 1,4,-1
 1519 1937 l 1,5,-1
 1529 1937 l 1,0,-1
700 -20 m 128,-1,7
 490 -20 490 -20 354 76 c 0,8,9
 251 148 251 148 251 286 c 0,10,11
 251 331 251 331 262 384 c 2,12,-1
 486 1440 l 1,13,-1
 695 1530 l 1,14,-1
 705 1530 l 1,15,-1
 462 384 l 2,16,17
 455 351 455 351 455 324 c 0,18,19
 455 245 455 245 514 208 c 0,20,21
 592 160 592 160 718.5 160 c 128,-1,22
 845 160 845 160 945 208.5 c 128,-1,23
 1045 257 1045 257 1072 384 c 2,24,-1
 1296 1440 l 1,25,-1
 1505 1530 l 1,26,-1
 1515 1530 l 1,27,-1
 1272 384 l 2,28,29
 1265 351 1265 351 1265 324 c 0,30,31
 1265 244 1265 244 1324 208 c 0,32,33
 1402 160 1402 160 1528.5 160 c 128,-1,34
 1655 160 1655 160 1755 208.5 c 128,-1,35
 1855 257 1855 257 1882 384 c 2,36,-1
 2106 1440 l 1,37,-1
 2315 1530 l 1,38,-1
 2325 1530 l 1,39,-1
 2082 384 l 2,40,41
 2034 159 2034 159 1889 76 c 0,42,43
 1720 -20 1720 -20 1510 -20 c 0,44,45
 1297 -20 1297 -20 1173 76 c 0,46,47
 1151 93 1151 93 1134 113 c 1,48,49
 1108 93 1108 93 1078 76 c 0,50,6
 910 -20 910 -20 700 -20 c 128,-1,7
EndSplineSet
Validated: 1
EndChar

StartChar: wacute
Encoding: 7811 7811 189
Width: 1840
Flags: W
HStem: -20 160<467.884 803.728 1116.6 1454.19> 1100 20G<541.827 598 1191.83 1248 1841.83 1898>
VStem: 239 184<183.629 485.539>
DStem2: 176.156 -20 355.306 -20 0.207912 0.978148<340.519 1082.61> 825.306 -20 1005.31 -20 0.207912 0.978148<340.695 1082.78> 1054 1224 1177 1160 0.550881 0.834584<14.3449 363.055> 1475.31 -20 1656.16 -20 0.207912 0.978148<216.827 1082.78>
LayerCount: 2
Fore
SplineSet
1264 1527 m 1,0,-1
 1377 1463 l 1,1,-1
 1177 1160 l 1,2,-1
 1167 1160 l 1,3,-1
 1054 1224 l 1,4,-1
 1254 1527 l 1,5,-1
 1264 1527 l 1,0,-1
610.5 -20 m 128,-1,7
 439 -20 439 -20 325 62 c 0,8,9
 239 124 239 124 239 238 c 0,10,11
 239 275 239 275 248 318 c 2,12,-1
 401 1039 l 1,13,-1
 588 1120 l 1,14,-1
 598 1120 l 1,15,-1
 428 322 l 2,16,17
 423 296 423 296 423 275 c 0,18,19
 423 214 423 214 467 182 c 0,20,21
 527 140 527 140 625 140 c 128,-1,22
 723 140 723 140 800 181.5 c 128,-1,23
 877 223 877 223 898 322 c 2,24,-1
 1051 1039 l 1,25,-1
 1238 1120 l 1,26,-1
 1248 1120 l 1,27,-1
 1078 322 l 2,28,29
 1073 296 1073 296 1073 275 c 0,30,31
 1073 214 1073 214 1117 182 c 0,32,33
 1177 140 1177 140 1275 140 c 128,-1,34
 1373 140 1373 140 1450 181.5 c 128,-1,35
 1527 223 1527 223 1548 322 c 2,36,-1
 1701 1039 l 1,37,-1
 1888 1120 l 1,38,-1
 1898 1120 l 1,39,-1
 1728 318 l 2,40,41
 1688 131 1688 131 1572 62 c 0,42,43
 1433 -20 1433 -20 1261 -20 c 0,44,45
 1097 -20 1097 -20 985 62 c 0,46,47
 970 73 970 73 958 87 c 1,48,49
 940 73 940 73 921 62 c 0,50,6
 782 -20 782 -20 610.5 -20 c 128,-1,7
EndSplineSet
Validated: 1
EndChar

StartChar: Wdieresis
Encoding: 7812 7812 190
Width: 2180
Flags: W
HStem: -20 180<519.154 935.068 1329.4 1745.24> 1510 20G<648.556 705 1458.56 1515 2268.56 2325> 1640 227<1243.23 1389.64 1519.14 1665.57>
VStem: 251 204<221.125 448.42> 1202 229<1681.58 1825.8> 1479 229<1682.58 1826.8>
DStem2: 176.127 -20 376.127 -20 0.207912 0.978148<395.291 1492.52> 986.127 -20 1186.13 -20 0.207912 0.978148<395.291 1492.52> 1796.13 -20 1996.13 -20 0.207912 0.978148<260.898 1492.52>
LayerCount: 2
Fore
SplineSet
1618 1868 m 128,-1,1
 1664 1868 1664 1868 1690 1835 c 0,2,3
 1708 1812 1708 1812 1708 1779 c 0,4,5
 1708 1767 1708 1767 1706 1755 c 0,6,7
 1696 1709 1696 1709 1655.5 1675 c 128,-1,8
 1615 1641 1615 1641 1569 1641 c 0,9,10
 1524 1641 1524 1641 1498 1675 c 0,11,12
 1479 1699 1479 1699 1479 1730 c 0,13,14
 1480 1743 1480 1743 1482 1755 c 0,15,16
 1492 1801 1492 1801 1532 1834.5 c 128,-1,0
 1572 1868 1572 1868 1618 1868 c 128,-1,1
1341 1867 m 128,-1,18
 1387 1867 1387 1867 1413 1834 c 0,19,20
 1431 1811 1431 1811 1431 1778 c 0,21,22
 1431 1766 1431 1766 1429 1754 c 0,23,24
 1419 1708 1419 1708 1378.5 1674 c 128,-1,25
 1338 1640 1338 1640 1292 1640 c 0,26,27
 1247 1640 1247 1640 1221 1674 c 0,28,29
 1202 1698 1202 1698 1202 1729 c 0,30,31
 1203 1742 1203 1742 1205 1754 c 0,32,33
 1215 1800 1215 1800 1255 1833.5 c 128,-1,17
 1295 1867 1295 1867 1341 1867 c 128,-1,18
700 -20 m 128,-1,35
 490 -20 490 -20 354 76 c 0,36,37
 251 148 251 148 251 286 c 0,38,39
 251 331 251 331 262 384 c 2,40,-1
 486 1440 l 1,41,-1
 695 1530 l 1,42,-1
 705 1530 l 1,43,-1
 462 384 l 2,44,45
 455 351 455 351 455 324 c 0,46,47
 455 245 455 245 514 208 c 0,48,49
 592 160 592 160 718.5 160 c 128,-1,50
 845 160 845 160 945 208.5 c 128,-1,51
 1045 257 1045 257 1072 384 c 2,52,-1
 1296 1440 l 1,53,-1
 1505 1530 l 1,54,-1
 1515 1530 l 1,55,-1
 1272 384 l 2,56,57
 1265 351 1265 351 1265 324 c 0,58,59
 1265 244 1265 244 1324 208 c 0,60,61
 1402 160 1402 160 1528.5 160 c 128,-1,62
 1655 160 1655 160 1755 208.5 c 128,-1,63
 1855 257 1855 257 1882 384 c 2,64,-1
 2106 1440 l 1,65,-1
 2315 1530 l 1,66,-1
 2325 1530 l 1,67,-1
 2082 384 l 2,68,69
 2034 159 2034 159 1889 76 c 0,70,71
 1720 -20 1720 -20 1510 -20 c 0,72,73
 1297 -20 1297 -20 1173 76 c 0,74,75
 1151 93 1151 93 1134 113 c 1,76,77
 1108 93 1108 93 1078 76 c 0,78,34
 910 -20 910 -20 700 -20 c 128,-1,35
EndSplineSet
Validated: 1
EndChar

StartChar: wdieresis
Encoding: 7813 7813 191
Width: 1840
Flags: W
HStem: -20 160<467.884 803.728 1116.6 1454.19> 1100 20G<541.827 598 1191.83 1248 1841.83 1898> 1230 227<993.232 1139.64 1269.14 1415.57>
VStem: 239 184<183.629 485.539> 952 229<1271.58 1415.8> 1229 229<1272.58 1416.8>
DStem2: 176.156 -20 355.306 -20 0.207912 0.978148<340.519 1082.61> 825.306 -20 1005.31 -20 0.207912 0.978148<340.695 1082.78> 1475.31 -20 1656.16 -20 0.207912 0.978148<216.827 1082.78>
LayerCount: 2
Fore
SplineSet
1368 1458 m 128,-1,1
 1414 1458 1414 1458 1440 1425 c 0,2,3
 1458 1402 1458 1402 1458 1369 c 0,4,5
 1458 1357 1458 1357 1456 1345 c 0,6,7
 1446 1299 1446 1299 1405.5 1265 c 128,-1,8
 1365 1231 1365 1231 1319 1231 c 0,9,10
 1274 1231 1274 1231 1248 1265 c 0,11,12
 1229 1289 1229 1289 1229 1320 c 0,13,14
 1230 1333 1230 1333 1232 1345 c 0,15,16
 1242 1391 1242 1391 1282 1424.5 c 128,-1,0
 1322 1458 1322 1458 1368 1458 c 128,-1,1
1091 1457 m 128,-1,18
 1137 1457 1137 1457 1163 1424 c 0,19,20
 1181 1401 1181 1401 1181 1368 c 0,21,22
 1181 1356 1181 1356 1179 1344 c 0,23,24
 1169 1298 1169 1298 1128.5 1264 c 128,-1,25
 1088 1230 1088 1230 1042 1230 c 0,26,27
 997 1230 997 1230 971 1264 c 0,28,29
 952 1288 952 1288 952 1319 c 0,30,31
 953 1332 953 1332 955 1344 c 0,32,33
 965 1390 965 1390 1005 1423.5 c 128,-1,17
 1045 1457 1045 1457 1091 1457 c 128,-1,18
610.5 -20 m 128,-1,35
 439 -20 439 -20 325 62 c 0,36,37
 239 124 239 124 239 238 c 0,38,39
 239 275 239 275 248 318 c 2,40,-1
 401 1039 l 1,41,-1
 588 1120 l 1,42,-1
 598 1120 l 1,43,-1
 428 322 l 2,44,45
 423 296 423 296 423 275 c 0,46,47
 423 214 423 214 467 182 c 0,48,49
 527 140 527 140 625 140 c 128,-1,50
 723 140 723 140 800 181.5 c 128,-1,51
 877 223 877 223 898 322 c 2,52,-1
 1051 1039 l 1,53,-1
 1238 1120 l 1,54,-1
 1248 1120 l 1,55,-1
 1078 322 l 2,56,57
 1073 296 1073 296 1073 275 c 0,58,59
 1073 214 1073 214 1117 182 c 0,60,61
 1177 140 1177 140 1275 140 c 128,-1,62
 1373 140 1373 140 1450 181.5 c 128,-1,63
 1527 223 1527 223 1548 322 c 2,64,-1
 1701 1039 l 1,65,-1
 1888 1120 l 1,66,-1
 1898 1120 l 1,67,-1
 1728 318 l 2,68,69
 1688 131 1688 131 1572 62 c 0,70,71
 1433 -20 1433 -20 1261 -20 c 0,72,73
 1097 -20 1097 -20 985 62 c 0,74,75
 970 73 970 73 958 87 c 1,76,77
 940 73 940 73 921 62 c 0,78,34
 782 -20 782 -20 610.5 -20 c 128,-1,35
EndSplineSet
Validated: 1
EndChar

StartChar: Ygrave
Encoding: 7922 7922 192
Width: 1230
Flags: W
HStem: -20 21G<511 567.444> 1510 20G<588.556 645 1378.56 1435>
VStem: 287 204<672.913 898.295>
DStem2: 116.052 -20 316.052 -20 0.207912 0.978148<857.389 1492.54> 511 -20 710.87 -20 0.207912 0.978148<133.566 468.159> 1014 1937 872 1880 0.252042 -0.967716<19.3699 321.375> 906.052 -20 1106.05 -20 0.207912 0.978148<722.996 1492.54>
LayerCount: 2
Fore
SplineSet
521 -20 m 1,0,-1
 511 -20 l 1,1,-1
 608 438 l 1,2,3
 488 454 488 454 389 528 c 0,4,5
 287 605 287 605 287 741 c 0,6,7
 287 785 287 785 298 836 c 2,8,-1
 426 1440 l 1,9,-1
 635 1530 l 1,10,-1
 645 1530 l 1,11,-1
 498 836 l 2,12,13
 491 803 491 803 491 776 c 0,14,15
 491 696 491 696 550 660 c 0,16,17
 628 612 628 612 744.5 612 c 128,-1,18
 861 612 861 612 961 660.5 c 128,-1,19
 1061 709 1061 709 1088 836 c 2,20,-1
 1216 1440 l 1,21,-1
 1425 1530 l 1,22,-1
 1435 1530 l 1,23,-1
 1288 836 l 2,24,25
 1241 613 1241 613 1094 528 c 0,26,27
 964 453 964 453 808 438 c 1,28,-1
 730 70 l 1,29,-1
 521 -20 l 1,0,-1
1004 1937 m 1,30,-1
 1014 1937 l 1,31,-1
 1095 1626 l 1,32,-1
 965 1570 l 1,33,-1
 955 1570 l 1,34,-1
 872 1880 l 1,35,-1
 1004 1937 l 1,30,-1
EndSplineSet
Validated: 1
EndChar

StartChar: ygrave
Encoding: 7923 7923 193
Width: 1210
Flags: W
HStem: -410 160<338 722.676> -20 160<466.2 799.037> 1100 20G<541.827 598 1191.83 1248>
VStem: 239 184<182.542 485.539>
DStem2: 93.2588 -410 272.409 -410 0.207912 0.978148<739.232 1481.32> 870 1527 727 1470 0.261536 -0.965194<17.6163 321.098> 743.306 -410 923.156 -410 0.207912 0.978148<215.015 469.074 613.156 1481.31>
LayerCount: 2
Fore
SplineSet
233 -410 m 1,0,-1
 235 -400 l 1,1,-1
 338 -250 l 1,2,-1
 542 -250 l 2,3,4
 640 -250 640 -250 718 -208 c 0,5,6
 796 -167 796 -167 816 -68 c 2,7,-1
 840 49 l 1,8,9
 741 -20 741 -20 601 -20 c 0,10,11
 429 -20 429 -20 325 62 c 0,12,13
 239 129 239 129 239 242 c 0,14,15
 239 278 239 278 248 318 c 2,16,-1
 401 1039 l 1,17,-1
 588 1120 l 1,18,-1
 598 1120 l 1,19,-1
 428 322 l 2,20,21
 423 296 423 296 423 275 c 0,22,23
 423 214 423 214 467 182 c 0,24,25
 527 140 527 140 625 140 c 128,-1,26
 723 140 723 140 800 181.5 c 128,-1,27
 877 223 877 223 898 322 c 2,28,-1
 1051 1039 l 1,29,-1
 1238 1120 l 1,30,-1
 1248 1120 l 1,31,-1
 995 -72 l 2,32,33
 956 -256 956 -256 838 -328 c 0,34,35
 705 -410 705 -410 528 -410 c 2,36,-1
 233 -410 l 1,0,-1
860 1527 m 1,37,-1
 870 1527 l 1,38,-1
 950 1216 l 1,39,-1
 821 1160 l 1,40,-1
 811 1160 l 1,41,-1
 727 1470 l 1,42,-1
 860 1527 l 1,37,-1
EndSplineSet
Validated: 1
EndChar

StartChar: AE
Encoding: 198 198 194
Width: 1688
Flags: W
HStem: -20 21G<176 232.444> 0 180<1066 1558> 665 180<560 969 1208 1649> 1330 180<1311 1791> 1350 180<755.516 1109.2>
DStem2: 176 -20 375.87 -20 0.207912 0.978148<133.566 741.761 925.936 1366.5> 823.749 -20 1023.49 -20 0.207912 0.978148<245.996 700.231 925.988 1382.67>
LayerCount: 2
Fore
SplineSet
1111 1331 m 1,0,1
 1050 1350 1050 1350 973 1350 c 0,2,3
 846 1350 846 1350 746 1301.5 c 128,-1,4
 646 1253 646 1253 619 1126 c 2,5,-1
 560 845 l 1,6,-1
 1008 845 l 1,7,-1
 1111 1331 l 1,0,1
1558 0 m 1,8,-1
 828 0 l 1,9,-1
 969 665 l 1,10,-1
 521 665 l 1,11,-1
 395 70 l 1,12,-1
 186 -20 l 1,13,-1
 176 -20 l 1,14,-1
 419 1126 l 2,15,16
 467 1351 467 1351 612 1434 c 0,17,18
 780 1530 780 1530 991 1530 c 0,19,20
 1102 1530 1102 1530 1183 1510 c 1,21,-1
 1909 1510 l 1,22,-1
 1907 1500 l 1,23,-1
 1791 1330 l 1,24,-1
 1311 1330 l 1,25,-1
 1208 845 l 1,26,-1
 1768 845 l 1,27,-1
 1765 835 l 1,28,-1
 1649 665 l 1,29,-1
 1169 665 l 1,30,-1
 1066 180 l 1,31,-1
 1676 180 l 1,32,-1
 1674 170 l 1,33,-1
 1558 0 l 1,8,-1
EndSplineSet
Validated: 1
EndChar

StartChar: Eth
Encoding: 208 208 195
Width: 1350
Flags: W
HStem: 0 180<438 939.216> 695 120<265 348 573 826> 1330 180<683 1163.42>
VStem: 1232 203<1042.71 1268.27>
DStem2: 200 0 399.74 0 0.207912 0.978148<225.55 710.584 874.741 1401.36> 990.127 0 1190.13 0 0.207912 0.978148<260.134 1189.95>
CounterMasks: 1 e0
LayerCount: 2
Fore
SplineSet
200 0 m 1,0,-1
 348 695 l 1,1,-1
 188 695 l 1,2,-1
 190 705 l 1,3,-1
 265 815 l 1,4,-1
 373 815 l 1,5,-1
 506 1440 l 1,6,-1
 669 1510 l 1,7,-1
 986 1510 l 2,8,9
 1194 1510 1194 1510 1322 1414 c 0,10,11
 1435 1329 1435 1329 1435 1191 c 0,12,13
 1435 1151 1435 1151 1425 1106 c 2,14,-1
 1276 404 l 2,15,16
 1229 180 1229 180 1082 96 c 0,17,18
 915 0 915 0 705 0 c 2,19,-1
 200 0 l 1,0,-1
438 180 m 1,20,-1
 723 180 l 2,21,22
 850 180 850 180 948 228 c 0,23,24
 1048 276 1048 276 1076 404 c 2,25,-1
 1225 1106 l 2,26,27
 1232 1138 1232 1138 1232 1166 c 0,28,29
 1232 1247 1232 1247 1172 1282 c 0,30,31
 1094 1330 1094 1330 968 1330 c 2,32,-1
 683 1330 l 1,33,-1
 573 815 l 1,34,-1
 903 815 l 1,35,-1
 901 805 l 1,36,-1
 826 695 l 1,37,-1
 548 695 l 1,38,-1
 438 180 l 1,20,-1
EndSplineSet
Validated: 1
EndChar

StartChar: Dcroat
Encoding: 272 272 196
Width: 1350
Flags: W
HStem: 0 180<438 939.216> 695 120<265 348 573 826> 1330 180<683 1163.42>
VStem: 1232 203<1042.71 1268.27>
DStem2: 200 0 399.74 0 0.207912 0.978148<225.55 710.584 874.741 1401.36> 990.127 0 1190.13 0 0.207912 0.978148<260.134 1189.95>
CounterMasks: 1 e0
LayerCount: 2
Fore
SplineSet
200 0 m 1,0,-1
 348 695 l 1,1,-1
 188 695 l 1,2,-1
 190 705 l 1,3,-1
 265 815 l 1,4,-1
 373 815 l 1,5,-1
 506 1440 l 1,6,-1
 669 1510 l 1,7,-1
 986 1510 l 2,8,9
 1194 1510 1194 1510 1322 1414 c 0,10,11
 1435 1329 1435 1329 1435 1191 c 0,12,13
 1435 1151 1435 1151 1425 1106 c 2,14,-1
 1276 404 l 2,15,16
 1229 180 1229 180 1082 96 c 0,17,18
 915 0 915 0 705 0 c 2,19,-1
 200 0 l 1,0,-1
438 180 m 1,20,-1
 723 180 l 2,21,22
 850 180 850 180 948 228 c 0,23,24
 1048 276 1048 276 1076 404 c 2,25,-1
 1225 1106 l 2,26,27
 1232 1138 1232 1138 1232 1166 c 0,28,29
 1232 1247 1232 1247 1172 1282 c 0,30,31
 1094 1330 1094 1330 968 1330 c 2,32,-1
 683 1330 l 1,33,-1
 573 815 l 1,34,-1
 903 815 l 1,35,-1
 901 805 l 1,36,-1
 826 695 l 1,37,-1
 548 695 l 1,38,-1
 438 180 l 1,20,-1
EndSplineSet
Validated: 1
EndChar

